<svg width="41" height="41" viewBox="0 0 41 41" fill="none" xmlns="http://www.w3.org/2000/svg">
<path d="M5.01815 13.7036L13.2036 36.123C7.47782 33.3488 3.53427 27.4778 3.53427 20.6875C3.53427 18.1956 4.06653 15.8407 5.01815 13.7036V13.7036ZM32.2681 19.8246C32.2681 17.7036 31.5101 16.2359 30.8569 15.0907C29.9859 13.6794 29.1714 12.4778 29.1714 11.0665C29.1714 9.48589 30.3649 8.01815 32.0504 8.01815C32.123 8.01815 32.1956 8.02621 32.2762 8.03427C29.2198 5.23589 25.1552 3.52621 20.6875 3.52621C14.6956 3.52621 9.42137 6.59879 6.34879 11.2601C6.75202 11.2762 7.13105 11.2843 7.45363 11.2843C9.24395 11.2843 12.0262 11.0665 12.0262 11.0665C12.9536 11.0101 13.0585 12.373 12.1391 12.4778C12.1391 12.4778 11.2117 12.5827 10.1794 12.6391L16.4294 31.2198L20.1875 19.9617L17.5181 12.6391C16.5907 12.5827 15.7198 12.4778 15.7198 12.4778C14.7923 12.4214 14.9052 11.0101 15.8246 11.0665C15.8246 11.0665 18.6552 11.2843 20.3407 11.2843C22.131 11.2843 24.9133 11.0665 24.9133 11.0665C25.8407 11.0101 25.9456 12.373 25.0262 12.4778C25.0262 12.4778 24.0988 12.5827 23.0665 12.6391L29.2681 31.0827L30.9778 25.3649C31.7036 22.994 32.2681 21.2923 32.2681 19.8246ZM20.9859 22.1875L15.8407 37.1472C17.381 37.5988 19.002 37.8488 20.6875 37.8488C22.6875 37.8488 24.5988 37.502 26.381 36.873C26.3327 36.8004 26.2923 36.7198 26.2601 36.6391L20.9859 22.1875ZM35.744 12.4536C35.8165 13.002 35.8569 13.5827 35.8569 14.2198C35.8569 15.9617 35.5343 17.9133 34.5504 20.3649L29.3085 35.5181C34.4133 32.5423 37.8407 27.0181 37.8407 20.6875C37.8407 17.7036 37.0827 14.8972 35.744 12.4536V12.4536ZM40.6875 20.6875C40.6875 31.7198 31.7117 40.6875 20.6875 40.6875C9.65524 40.6875 0.6875 31.7117 0.6875 20.6875C0.6875 9.65524 9.65524 0.6875 20.6875 0.6875C31.7117 0.6875 40.6875 9.65524 40.6875 20.6875ZM39.7681 20.6875C39.7681 10.1633 31.2036 1.60685 20.6875 1.60685C10.1633 1.60685 1.60685 10.1633 1.60685 20.6875C1.60685 31.2117 10.1714 39.7681 20.6875 39.7681C31.2117 39.7681 39.7681 31.2117 39.7681 20.6875Z" fill="white"/>
</svg>
