<svg width="600" height="626" viewBox="0 0 600 626" fill="none" xmlns="http://www.w3.org/2000/svg">
<path d="M400 425.408C400 535.865 310.457 625.408 200 625.408C89.5431 625.408 0 535.865 0 425.408C0 314.951 89.5431 225.408 200 225.408C310.457 225.408 400 314.951 400 425.408Z" fill="white"/>
<path d="M141.923 408H125.579V450.408H115.715V408H99.3713V399.288H141.923V408ZM157.656 451.128C153.528 451.128 149.976 450.24 147 448.464C144.072 446.64 141.816 444.24 140.232 441.264C138.648 438.288 137.856 435.072 137.856 431.616C137.856 428.112 138.648 424.872 140.232 421.896C141.864 418.92 144.144 416.544 147.072 414.768C150.048 412.944 153.576 412.032 157.656 412.032C161.736 412.032 165.24 412.944 168.168 414.768C171.144 416.544 173.424 418.92 175.008 421.896C176.592 424.872 177.384 428.112 177.384 431.616C177.384 435.072 176.592 438.288 175.008 441.264C173.424 444.24 171.144 446.64 168.168 448.464C165.24 450.24 161.736 451.128 157.656 451.128ZM147.792 431.616C147.792 433.824 148.224 435.792 149.088 437.52C149.952 439.2 151.128 440.52 152.616 441.48C154.104 442.44 155.784 442.92 157.656 442.92C159.48 442.92 161.136 442.44 162.624 441.48C164.112 440.472 165.288 439.128 166.152 437.448C167.064 435.72 167.52 433.752 167.52 431.544C167.52 429.384 167.064 427.464 166.152 425.784C165.288 424.056 164.112 422.712 162.624 421.752C161.136 420.744 159.48 420.24 157.656 420.24C155.784 420.24 154.104 420.744 152.616 421.752C151.128 422.712 149.952 424.056 149.088 425.784C148.224 427.464 147.792 429.408 147.792 431.616ZM209.672 450.408L198.656 434.136L193.544 439.176V450.408H183.896V397.848H193.544V429.672L208.736 412.752H218.96L204.92 428.736L219.968 450.408H209.672ZM224.836 457.752C226.612 458.232 228.052 458.472 229.156 458.472C230.452 458.472 231.484 457.92 232.252 456.816C233.068 455.76 233.98 453.624 234.988 450.408L220.084 412.68H230.092L240.244 440.544L249.172 412.68H258.388L242.548 457.896C241.684 460.488 240.124 462.624 237.868 464.304C235.66 466.032 232.924 466.896 229.66 466.896C228.076 466.896 226.468 466.632 224.836 466.104V457.752ZM279.789 451.128C275.661 451.128 272.109 450.24 269.133 448.464C266.205 446.64 263.949 444.24 262.365 441.264C260.781 438.288 259.989 435.072 259.989 431.616C259.989 428.112 260.781 424.872 262.365 421.896C263.997 418.92 266.277 416.544 269.205 414.768C272.181 412.944 275.709 412.032 279.789 412.032C283.869 412.032 287.373 412.944 290.301 414.768C293.277 416.544 295.557 418.92 297.141 421.896C298.725 424.872 299.517 428.112 299.517 431.616C299.517 435.072 298.725 438.288 297.141 441.264C295.557 444.24 293.277 446.64 290.301 448.464C287.373 450.24 283.869 451.128 279.789 451.128ZM269.925 431.616C269.925 433.824 270.357 435.792 271.221 437.52C272.085 439.2 273.261 440.52 274.749 441.48C276.237 442.44 277.917 442.92 279.789 442.92C281.613 442.92 283.269 442.44 284.757 441.48C286.245 440.472 287.421 439.128 288.285 437.448C289.197 435.72 289.653 433.752 289.653 431.544C289.653 429.384 289.197 427.464 288.285 425.784C287.421 424.056 286.245 422.712 284.757 421.752C283.269 420.744 281.613 420.24 279.789 420.24C277.917 420.24 276.237 420.744 274.749 421.752C273.261 422.712 272.085 424.056 271.221 425.784C270.357 427.464 269.925 429.408 269.925 431.616Z" fill="white"/>
<path d="M141.923 408V409H142.923V408H141.923ZM125.579 408V407H124.579V408H125.579ZM125.579 450.408V451.408H126.579V450.408H125.579ZM115.715 450.408H114.715V451.408H115.715V450.408ZM115.715 408H116.715V407H115.715V408ZM99.3713 408H98.3713V409H99.3713V408ZM99.3713 399.288V398.288H98.3713V399.288H99.3713ZM141.923 399.288H142.923V398.288H141.923V399.288ZM141.923 407H125.579V409H141.923V407ZM124.579 408V450.408H126.579V408H124.579ZM125.579 449.408H115.715V451.408H125.579V449.408ZM116.715 450.408V408H114.715V450.408H116.715ZM115.715 407H99.3713V409H115.715V407ZM100.371 408V399.288H98.3713V408H100.371ZM99.3713 400.288H141.923V398.288H99.3713V400.288ZM140.923 399.288V408H142.923V399.288H140.923ZM147 448.464L146.471 449.313L146.479 449.318L146.487 449.323L147 448.464ZM140.232 441.264L139.349 441.734L140.232 441.264ZM140.232 421.896L139.355 421.416L139.349 421.427L140.232 421.896ZM147.072 414.768L147.59 415.623L147.594 415.621L147.072 414.768ZM168.168 414.768L167.639 415.617L167.647 415.622L167.655 415.627L168.168 414.768ZM175.008 441.264L175.891 441.734L175.891 441.734L175.008 441.264ZM168.168 448.464L168.686 449.319L168.69 449.317L168.168 448.464ZM149.088 437.52L148.193 437.968L148.199 437.978L149.088 437.52ZM152.616 441.48L153.158 440.64L153.158 440.64L152.616 441.48ZM162.624 441.48L163.166 442.321L163.175 442.315L163.185 442.308L162.624 441.48ZM166.152 437.448L165.267 436.982L165.263 436.991L166.152 437.448ZM166.152 425.784L165.257 426.232L165.265 426.247L165.273 426.262L166.152 425.784ZM162.624 421.752L162.063 422.58L162.072 422.587L162.082 422.593L162.624 421.752ZM152.616 421.752L153.158 422.593L153.167 422.587L153.177 422.58L152.616 421.752ZM149.088 425.784L149.977 426.242L149.982 426.232L149.088 425.784ZM157.656 450.128C153.674 450.128 150.306 449.273 147.512 447.606L146.487 449.323C149.646 451.208 153.382 452.128 157.656 452.128V450.128ZM147.529 447.616C144.746 445.882 142.614 443.612 141.115 440.795L139.349 441.734C141.018 444.869 143.397 447.399 146.471 449.313L147.529 447.616ZM141.115 440.795C139.61 437.967 138.856 434.913 138.856 431.616H136.856C136.856 435.232 137.686 438.61 139.349 441.734L141.115 440.795ZM138.856 431.616C138.856 428.27 139.611 425.192 141.115 422.366L139.349 421.427C137.685 424.553 136.856 427.955 136.856 431.616H138.856ZM141.109 422.377C142.655 419.557 144.811 417.309 147.59 415.623L146.553 413.913C143.476 415.78 141.072 418.284 139.355 421.416L141.109 422.377ZM147.594 415.621C150.388 413.909 153.729 413.032 157.656 413.032V411.032C153.423 411.032 149.707 411.98 146.549 413.916L147.594 415.621ZM157.656 413.032C161.584 413.032 164.897 413.909 167.639 415.617L168.697 413.92C165.583 411.98 161.888 411.032 157.656 411.032V413.032ZM167.655 415.627C170.479 417.312 172.629 419.556 174.125 422.366L175.891 421.427C174.218 418.285 171.808 415.776 168.68 413.91L167.655 415.627ZM174.125 422.366C175.629 425.192 176.384 428.27 176.384 431.616H178.384C178.384 427.955 177.555 424.553 175.891 421.427L174.125 422.366ZM176.384 431.616C176.384 434.913 175.63 437.967 174.125 440.795L175.891 441.734C177.554 438.61 178.384 435.232 178.384 431.616H176.384ZM174.125 440.795C172.628 443.607 170.475 445.878 167.645 447.612L168.69 449.317C171.813 447.403 174.22 444.873 175.891 441.734L174.125 440.795ZM167.649 447.609C164.905 449.274 161.588 450.128 157.656 450.128V452.128C161.883 452.128 165.574 451.207 168.686 449.319L167.649 447.609ZM146.792 431.616C146.792 433.957 147.251 436.082 148.193 437.968L149.982 437.073C149.197 435.503 148.792 433.691 148.792 431.616H146.792ZM148.199 437.978C149.137 439.803 150.429 441.259 152.074 442.321L153.158 440.64C151.827 439.782 150.767 438.598 149.977 437.063L148.199 437.978ZM152.074 442.321C153.733 443.391 155.603 443.92 157.656 443.92V441.92C155.965 441.92 154.475 441.49 153.158 440.64L152.074 442.321ZM157.656 443.92C159.666 443.92 161.511 443.388 163.166 442.321L162.082 440.64C160.76 441.493 159.294 441.92 157.656 441.92V443.92ZM163.185 442.308C164.819 441.201 166.105 439.727 167.041 437.906L165.263 436.991C164.471 438.53 163.405 439.743 162.063 440.653L163.185 442.308ZM167.036 437.915C168.034 436.026 168.52 433.894 168.52 431.544H166.52C166.52 433.611 166.094 435.415 165.267 436.982L167.036 437.915ZM168.52 431.544C168.52 429.24 168.032 427.152 167.031 425.307L165.273 426.262C166.096 427.777 166.52 429.529 166.52 431.544H168.52ZM167.046 425.337C166.11 423.464 164.818 421.978 163.166 420.912L162.082 422.593C163.406 423.447 164.466 424.649 165.257 426.232L167.046 425.337ZM163.185 420.925C161.529 419.803 159.677 419.24 157.656 419.24V421.24C159.283 421.24 160.743 421.686 162.063 422.58L163.185 420.925ZM157.656 419.24C155.593 419.24 153.716 419.8 152.055 420.925L153.177 422.58C154.492 421.689 155.975 421.24 157.656 421.24V419.24ZM152.074 420.912C150.422 421.978 149.13 423.464 148.193 425.337L149.982 426.232C150.774 424.649 151.834 423.447 153.158 422.593L152.074 420.912ZM148.199 425.327C147.25 427.171 146.792 429.276 146.792 431.616H148.792C148.792 429.541 149.197 427.758 149.977 426.242L148.199 425.327ZM209.672 450.408L208.844 450.969L209.141 451.408H209.672V450.408ZM198.656 434.136L199.484 433.576L198.81 432.58L197.954 433.424L198.656 434.136ZM193.544 439.176L192.842 438.464L192.544 438.758V439.176H193.544ZM193.544 450.408V451.408H194.544V450.408H193.544ZM183.896 450.408H182.896V451.408H183.896V450.408ZM183.896 397.848V396.848H182.896V397.848H183.896ZM193.544 397.848H194.544V396.848H193.544V397.848ZM193.544 429.672H192.544V432.283L194.288 430.341L193.544 429.672ZM208.736 412.752V411.752H208.29L207.992 412.084L208.736 412.752ZM218.96 412.752L219.711 413.412L221.169 411.752H218.96V412.752ZM204.92 428.736L204.169 428.077L203.652 428.664L204.099 429.307L204.92 428.736ZM219.968 450.408V451.408H221.88L220.789 449.838L219.968 450.408ZM210.5 449.848L199.484 433.576L197.828 434.697L208.844 450.969L210.5 449.848ZM197.954 433.424L192.842 438.464L194.246 439.889L199.358 434.849L197.954 433.424ZM192.544 439.176V450.408H194.544V439.176H192.544ZM193.544 449.408H183.896V451.408H193.544V449.408ZM184.896 450.408V397.848H182.896V450.408H184.896ZM183.896 398.848H193.544V396.848H183.896V398.848ZM192.544 397.848V429.672H194.544V397.848H192.544ZM194.288 430.341L209.48 413.421L207.992 412.084L192.8 429.004L194.288 430.341ZM208.736 413.752H218.96V411.752H208.736V413.752ZM218.209 412.093L204.169 428.077L205.671 429.396L219.711 413.412L218.209 412.093ZM204.099 429.307L219.147 450.979L220.789 449.838L205.741 428.166L204.099 429.307ZM219.968 449.408H209.672V451.408H219.968V449.408ZM224.836 457.752L225.097 456.787L223.836 456.446V457.752H224.836ZM232.252 456.816L231.461 456.205L231.446 456.225L231.431 456.245L232.252 456.816ZM234.988 450.408L235.943 450.708L236.048 450.37L235.918 450.041L234.988 450.408ZM220.084 412.68V411.68H218.614L219.154 413.048L220.084 412.68ZM230.092 412.68L231.032 412.338L230.792 411.68H230.092V412.68ZM240.244 440.544L239.305 440.887L240.305 443.632L241.197 440.85L240.244 440.544ZM249.172 412.68V411.68H248.443L248.22 412.375L249.172 412.68ZM258.388 412.68L259.332 413.011L259.798 411.68H258.388V412.68ZM242.548 457.896L241.605 457.566L241.602 457.573L241.6 457.58L242.548 457.896ZM237.868 464.304L237.271 463.502L237.261 463.51L237.252 463.517L237.868 464.304ZM224.836 466.104H223.836V466.832L224.529 467.056L224.836 466.104ZM224.575 458.718C226.388 459.208 227.925 459.472 229.156 459.472V457.472C228.179 457.472 226.837 457.257 225.097 456.787L224.575 458.718ZM229.156 459.472C230.794 459.472 232.127 458.748 233.073 457.388L231.431 456.245C230.842 457.093 230.111 457.472 229.156 457.472V459.472ZM233.044 457.428C233.982 456.213 234.937 453.915 235.943 450.708L234.034 450.109C233.023 453.334 232.155 455.308 231.461 456.205L233.044 457.428ZM235.918 450.041L221.014 412.313L219.154 413.048L234.058 450.776L235.918 450.041ZM220.084 413.68H230.092V411.68H220.084V413.68ZM229.153 413.023L239.305 440.887L241.184 440.202L231.032 412.338L229.153 413.023ZM241.197 440.85L250.125 412.986L248.22 412.375L239.292 440.239L241.197 440.85ZM249.172 413.68H258.388V411.68H249.172V413.68ZM257.445 412.35L241.605 457.566L243.492 458.227L259.332 413.011L257.445 412.35ZM241.6 457.58C240.802 459.972 239.368 461.941 237.271 463.502L238.466 465.106C240.881 463.308 242.566 461.005 243.497 458.213L241.6 457.58ZM237.252 463.517C235.248 465.085 232.739 465.896 229.66 465.896V467.896C233.109 467.896 236.073 466.98 238.485 465.092L237.252 463.517ZM229.66 465.896C228.189 465.896 226.685 465.651 225.144 465.153L224.529 467.056C226.252 467.613 227.964 467.896 229.66 467.896V465.896ZM225.836 466.104V457.752H223.836V466.104H225.836ZM269.133 448.464L268.604 449.313L268.612 449.318L268.62 449.323L269.133 448.464ZM262.365 441.264L261.482 441.734L262.365 441.264ZM262.365 421.896L261.488 421.416L261.482 421.427L262.365 421.896ZM269.205 414.768L269.723 415.623L269.727 415.621L269.205 414.768ZM290.301 414.768L289.772 415.617L289.78 415.622L289.788 415.627L290.301 414.768ZM297.141 441.264L298.023 441.734L298.023 441.734L297.141 441.264ZM290.301 448.464L290.819 449.319L290.823 449.317L290.301 448.464ZM271.221 437.52L270.326 437.968L270.331 437.978L271.221 437.52ZM274.749 441.48L275.291 440.64L275.291 440.64L274.749 441.48ZM284.757 441.48L285.299 442.321L285.308 442.315L285.318 442.308L284.757 441.48ZM288.285 437.448L287.4 436.982L287.395 436.991L288.285 437.448ZM288.285 425.784L287.39 426.232L287.398 426.247L287.406 426.262L288.285 425.784ZM284.757 421.752L284.196 422.58L284.205 422.587L284.215 422.593L284.757 421.752ZM274.749 421.752L275.291 422.593L275.3 422.587L275.31 422.58L274.749 421.752ZM271.221 425.784L272.11 426.242L272.115 426.232L271.221 425.784ZM279.789 450.128C275.806 450.128 272.439 449.273 269.645 447.606L268.62 449.323C271.778 451.208 275.515 452.128 279.789 452.128V450.128ZM269.661 447.616C266.879 445.882 264.747 443.612 263.247 440.795L261.482 441.734C263.151 444.869 265.53 447.399 268.604 449.313L269.661 447.616ZM263.247 440.795C261.742 437.967 260.989 434.913 260.989 431.616H258.989C258.989 435.232 259.819 438.61 261.482 441.734L263.247 440.795ZM260.989 431.616C260.989 428.27 261.743 425.192 263.247 422.366L261.482 421.427C259.818 424.553 258.989 427.955 258.989 431.616H260.989ZM263.241 422.377C264.788 419.557 266.944 417.309 269.723 415.623L268.686 413.913C265.609 415.78 263.205 418.284 261.488 421.416L263.241 422.377ZM269.727 415.621C272.521 413.909 275.861 413.032 279.789 413.032V411.032C275.556 411.032 271.84 411.98 268.682 413.916L269.727 415.621ZM279.789 413.032C283.716 413.032 287.03 413.909 289.772 415.617L290.829 413.92C287.716 411.98 284.021 411.032 279.789 411.032V413.032ZM289.788 415.627C292.612 417.312 294.762 419.556 296.258 422.366L298.023 421.427C296.351 418.285 293.941 415.776 290.813 413.91L289.788 415.627ZM296.258 422.366C297.762 425.192 298.517 428.27 298.517 431.616H300.517C300.517 427.955 299.687 424.553 298.023 421.427L296.258 422.366ZM298.517 431.616C298.517 434.913 297.763 437.967 296.258 440.795L298.023 441.734C299.686 438.61 300.517 435.232 300.517 431.616H298.517ZM296.258 440.795C294.761 443.607 292.608 445.878 289.778 447.612L290.823 449.317C293.946 447.403 296.353 444.873 298.023 441.734L296.258 440.795ZM289.782 447.609C287.038 449.274 283.721 450.128 279.789 450.128V452.128C284.016 452.128 287.707 451.207 290.819 449.319L289.782 447.609ZM268.925 431.616C268.925 433.957 269.383 436.082 270.326 437.968L272.115 437.073C271.33 435.503 270.925 433.691 270.925 431.616H268.925ZM270.331 437.978C271.27 439.803 272.561 441.259 274.207 442.321L275.291 440.64C273.96 439.782 272.899 438.598 272.11 437.063L270.331 437.978ZM274.207 442.321C275.866 443.391 277.736 443.92 279.789 443.92V441.92C278.097 441.92 276.608 441.49 275.291 440.64L274.207 442.321ZM279.789 443.92C281.799 443.92 283.644 443.388 285.299 442.321L284.215 440.64C282.893 441.493 281.426 441.92 279.789 441.92V443.92ZM285.318 442.308C286.951 441.201 288.237 439.727 289.174 437.906L287.395 436.991C286.604 438.53 285.538 439.743 284.196 440.653L285.318 442.308ZM289.169 437.915C290.166 436.026 290.653 433.894 290.653 431.544H288.653C288.653 433.611 288.227 435.415 287.4 436.982L289.169 437.915ZM290.653 431.544C290.653 429.24 290.165 427.152 289.164 425.307L287.406 426.262C288.228 427.777 288.653 429.529 288.653 431.544H290.653ZM289.179 425.337C288.242 423.464 286.951 421.978 285.299 420.912L284.215 422.593C285.538 423.447 286.599 424.649 287.39 426.232L289.179 425.337ZM285.318 420.925C283.661 419.803 281.809 419.24 279.789 419.24V421.24C281.416 421.24 282.876 421.686 284.196 422.58L285.318 420.925ZM279.789 419.24C277.726 419.24 275.848 419.8 274.188 420.925L275.31 422.58C276.625 421.689 278.108 421.24 279.789 421.24V419.24ZM274.207 420.912C272.554 421.978 271.263 423.464 270.326 425.337L272.115 426.232C272.906 424.649 273.967 423.447 275.291 422.593L274.207 420.912ZM270.331 425.327C269.383 427.171 268.925 429.276 268.925 431.616H270.925C270.925 429.541 271.33 427.758 272.11 426.242L270.331 425.327Z" fill="black"/>
<g clip-path="url(#clip0)">
<path d="M203.194 386.129C200.487 383.453 199.797 381.793 199.797 377.954C199.797 375.224 200.5 372.452 201.42 371.555C202.313 370.684 203.043 368.094 203.043 365.799C203.043 362.891 204.191 360.01 206.829 356.299C210.995 350.44 211.755 344.995 208.806 342.152C207.207 340.612 207.065 340.705 207.592 342.95C207.92 344.349 208.37 346.269 208.591 347.218C208.819 348.196 207.186 350.069 204.818 351.546C197.007 356.417 193.695 352.48 192.774 337.229C192.353 330.257 194.383 327.059 199.227 327.059C201.607 327.059 203.946 325.703 206.903 322.61C209.243 320.163 211.948 318.161 212.915 318.161C214.006 318.16 214.921 316.7 215.328 314.313C216.186 309.268 220.615 304.175 224.144 304.175C225.905 304.175 228.444 302.469 230.955 299.599C233.157 297.082 236.419 294.148 238.204 293.08C239.989 292.012 241.584 291.005 241.749 290.843C241.913 290.68 240.261 287.463 238.077 283.694C232.725 274.459 227.545 261.154 223.978 247.475C221.231 236.94 221.027 234.581 221.027 213.276C221.027 192.005 221.235 189.586 223.977 178.95C235.487 134.303 264.219 101.498 302.06 89.7991C311.155 86.9873 315.237 86.4515 328 86.3944C344.838 86.3189 355.995 88.764 369.71 95.5355L377.11 99.1893L377.438 94.5737C377.735 90.3934 378.097 89.9206 381.273 89.5606C383.202 89.3419 385.814 90.0139 387.077 91.0538C390.859 94.1666 392.372 92.38 392.372 84.8C392.372 80.2178 392.878 77.6744 393.926 76.9852C395.978 75.6354 396.637 54.3511 394.751 50.3131C391.764 43.9182 394.711 37.1985 400.503 37.1985C402.702 37.1985 409.927 45.2459 415.075 53.4284C419.061 59.7627 429.214 67.5875 432.492 66.8511C434.205 66.4662 435.771 66.9899 436.657 68.2435C439.178 71.8127 442.46 70.503 446.28 64.4043C450.374 57.8662 452.292 56.5792 454.594 58.8243C456.836 61.0114 456.6 64.8085 453.978 68.7259C451.559 72.3399 451.787 75.871 454.787 81.2516C456.188 83.7653 457.108 84.2056 459.607 83.5605C464.271 82.3569 465.084 86.2847 460.983 90.2019C453.819 97.0439 448.417 100.473 443.522 101.285C435.862 102.555 431.687 107.317 429.373 117.426C427.606 125.149 427.336 125.575 423.978 125.956C421.863 126.196 419.043 125.365 416.956 123.887C405.46 115.745 397.781 111.749 397.781 113.909C397.781 114.147 401.378 118.693 405.773 124.011C419.201 140.258 427.163 156.321 433.14 179.225C435.845 189.589 436.054 192.039 436.054 213.276C436.054 234.513 435.845 236.963 433.14 247.327C427.745 268 421.286 281.874 409.675 297.726C387.683 327.753 349.639 344.901 316.604 339.679C310.971 338.788 304.613 338.016 302.474 337.962C300.336 337.909 297.9 337.197 297.062 336.381C296.224 335.565 293.105 333.777 290.131 332.408L284.725 329.919L281.749 333.494C280.112 335.46 278.298 338.535 277.718 340.328C276.316 344.663 273.829 344.438 270.007 339.63L266.862 335.674L262.537 340.266C260.159 342.791 257.727 344.857 257.134 344.857C256.54 344.857 256.055 346.789 256.055 349.151C256.055 351.513 255.417 354.067 254.638 354.827C253.195 356.234 249.377 355.459 246.23 353.121C244.2 351.612 240.909 344.113 240.909 340.996C240.909 339.787 239.935 338.498 238.745 338.132C235.377 337.097 236.195 333.639 240.281 331.633C242.315 330.634 244.566 328.481 245.281 326.849C245.997 325.216 247.831 322.307 249.357 320.384C251.252 317.998 251.639 316.883 250.577 316.871C249.722 316.861 247.927 316.509 246.588 316.087C244.556 315.447 244.154 315.827 244.154 318.393C244.154 322.913 242.163 324.516 236.545 324.516C230.539 324.516 229.319 325.549 232.364 328.055C234.008 329.409 234.5 330.907 234.169 333.559C233.84 336.19 234.413 337.976 236.229 339.981C238.729 342.74 239.89 351.214 237.768 351.214C236.302 351.214 229.008 364.641 229.008 367.339C229.008 370.126 225.081 379.269 223.088 381.121C222.318 381.838 221.504 383.554 221.279 384.935C220.647 388.828 216.254 388.954 215.012 385.115C213.438 380.251 211.902 379.977 212.08 384.592C212.217 388.151 211.851 388.77 209.415 389.103C207.59 389.352 205.389 388.299 203.194 386.129V386.129ZM208.68 374.415C210.517 371.806 213.688 372.604 215.681 376.178L217.55 379.53L220.566 375.283C222.226 372.948 223.904 369.008 224.295 366.528C225.061 361.674 226.567 358.408 231.535 350.815L234.708 345.967L231.18 341.689C228.478 338.413 227.806 336.694 228.308 334.343C228.835 331.876 228.384 330.94 226.01 329.569C224.386 328.631 222.042 326.504 220.801 324.842C217.93 320.997 214.712 321.796 208.993 327.774C206.161 330.736 203.744 332.144 201.494 332.145C198.353 332.145 198.182 332.401 198.324 336.912C198.703 348.936 198.594 348.47 200.869 347.771C202.532 347.26 202.872 346.408 202.363 344.025C201.558 340.253 204.5 335.958 207.89 335.958C211.53 335.958 215.12 341.386 215.738 347.822C216.242 353.076 215.958 353.899 211.826 359.167C208.66 363.203 207.37 365.957 207.37 368.681C207.37 370.79 206.64 373.227 205.748 374.097C203.772 376.024 203.65 379.382 205.477 381.551C206.563 382.841 206.902 382.452 207.196 379.581C207.397 377.614 208.065 375.289 208.68 374.415V374.415ZM251.727 346.161C251.727 343.326 252.472 341.923 254.703 340.554C256.339 339.549 259.108 336.96 260.855 334.8C264.532 330.256 268.842 329.649 271.639 333.282C273.455 335.639 273.545 335.629 275.864 332.83C283.181 323.996 283.345 323.667 281.841 320.837C280.673 318.64 279.346 318.16 274.443 318.16C269.285 318.16 268.323 318.55 267.401 321.02C266.572 323.241 265.286 323.969 261.655 324.276C259.082 324.494 256.357 324.066 255.598 323.327C254.134 321.899 253.317 322.744 248.909 330.237C245.007 336.87 244.986 341.343 248.822 348.353C250.338 351.124 251.727 350.075 251.727 346.161H251.727ZM305.373 324.657C307.011 323.144 308.877 322.113 309.521 322.367C310.164 322.622 311.278 321.197 311.998 319.202C312.914 316.661 314.334 315.332 316.741 314.767L320.176 313.96L317.326 312.205C315.759 311.24 314.484 309.754 314.493 308.902C314.519 306.407 317.258 297.855 318.498 296.399C320.352 294.22 324.717 295.605 325.068 298.484C325.494 301.981 329.756 303.822 339.022 304.515C346.874 305.101 349.097 304.221 349.097 300.525C349.097 295.244 358.037 291.356 359.547 295.981C360.046 297.509 360.647 297.077 362.202 294.074C363.479 291.606 365.104 290.181 366.661 290.163C368.354 290.144 369.613 288.867 370.734 286.031C371.752 283.456 373.286 281.772 374.851 281.512C379.81 280.685 382.28 286.613 378.72 290.796C377.756 291.928 377.258 293.195 377.612 293.611C378.763 294.963 381.541 291.24 382.416 287.17C382.984 284.532 384.429 282.509 386.721 281.145L390.17 279.092L387.489 272.882C384.776 266.598 383.919 259.679 385.853 259.679C387.27 259.679 390.208 252.831 390.208 249.527C390.208 248.069 390.92 245.6 391.79 244.039C393.165 241.573 393.171 240.54 391.838 236.138C388.447 224.95 390.672 215.183 396.611 215.183C399.255 215.183 399.579 214.779 399.133 212.038C398.789 209.921 399.715 206.953 401.968 202.956C406.866 194.267 407.251 189.878 403.854 181.447C402.299 177.588 401.027 173.661 401.027 172.721C401.027 170.807 397.471 160.503 394.932 155.057C393.723 152.465 393.547 150.576 394.281 148.065C395.559 143.694 394.901 141.446 392.346 141.446C389.983 141.446 388.61 143.464 390.19 144.612C390.795 145.051 391.29 146.768 391.29 148.428C391.29 153.979 384.032 154.209 381.781 148.729C380.77 146.266 380.608 146.681 380.544 151.906C380.484 156.861 379.997 158.28 377.766 159.997C374.696 162.362 374.267 165.786 376.739 168.197C379.323 170.718 378.293 176.161 375.062 177.06L372.357 177.813L375.399 180.168C378.17 182.314 378.376 182.987 377.711 187.729C377.309 190.592 376.567 193.54 376.062 194.279C375.556 195.018 374.417 198.737 373.53 202.543C369.388 220.305 366.049 228.687 361.949 231.617C360.182 232.88 357.529 235.837 356.052 238.189C352.982 243.079 345.337 249.508 342.594 249.508C341.576 249.508 338.85 251.025 336.536 252.878C334.125 254.809 330.71 256.302 328.541 256.374L324.754 256.501L325.034 250.262C325.187 246.83 325.865 243.241 326.54 242.285C328.544 239.448 326.743 238.905 323.731 241.438C321.379 243.415 321.036 244.467 321.567 248.076C322.075 251.528 321.6 253.264 319.133 256.975C312.03 267.661 309.758 272.441 311.055 273.966C311.747 274.778 312.313 276.779 312.313 278.413C312.313 280.729 311.222 281.931 307.355 283.879C302.103 286.524 297.193 287.102 295.489 285.274C294.908 284.65 288.823 284.712 281.479 285.417C274.339 286.102 265.332 286.795 261.464 286.957C251.733 287.364 252.191 287.201 248.355 291.607C246.46 293.785 243.4 296.326 241.556 297.254C239.712 298.183 236.134 301.264 233.604 304.101C231.05 306.965 227.921 309.269 226.572 309.28C223.543 309.304 222.099 310.408 220.538 313.894C218.404 318.66 221.681 320.046 234.078 319.623C239.579 319.435 239.696 319.35 240.029 315.299C240.363 311.222 240.44 311.169 245.777 311.292C249.063 311.367 251.504 310.791 251.994 309.823C252.523 308.779 254.263 308.46 257.036 308.897C259.945 309.356 262.053 308.92 263.772 307.505C265.148 306.373 267.597 305.446 269.214 305.446C270.832 305.446 272.477 304.835 272.87 304.087C273.263 303.34 275.361 302.862 277.532 303.026C279.703 303.189 283.081 302.892 285.04 302.365C287.387 301.734 289.152 301.946 290.221 302.989C291.618 304.35 291.237 305.233 287.472 309.358C283.589 313.613 281.348 318.312 284.184 316.253C284.779 315.82 285.266 316.143 285.266 316.969C285.266 318.088 285.679 318.068 286.889 316.888C287.781 316.018 288.511 314.331 288.511 313.14C288.511 310.093 293.445 304.96 295.489 305.881C297.365 306.728 297.823 313.719 296.085 314.981C295.489 315.413 295.003 318.143 295.003 321.047C295.003 325.283 295.591 326.881 297.978 329.123C300.743 331.72 301.004 331.759 301.674 329.664C302.071 328.424 303.736 326.171 305.373 324.657V324.657ZM263.628 316.888C263.628 314.788 262.907 314.346 259.481 314.346C254.322 314.346 253.164 315.544 256.332 317.604C260.266 320.161 263.628 319.831 263.628 316.888ZM379.389 133.02C379.389 132.031 380.51 130.621 381.88 129.888L384.37 128.555L380.798 124.104C378.824 121.645 377.226 118.303 377.226 116.637C377.226 111.039 385.085 107.38 388.06 111.593C389.269 113.304 389.842 113.232 393.123 110.958C396.978 108.285 403.095 107.552 404.868 109.552C405.433 110.189 408.816 112.497 412.387 114.68C415.957 116.863 419.744 119.344 420.802 120.195C423.187 122.112 424.396 120.248 425.43 113.058C425.922 109.635 427.551 106.452 430.778 102.605C434.736 97.8864 436.27 96.9461 441.212 96.206C447.099 95.3245 448.681 94.6266 452.255 91.3346C454.183 89.5589 454.153 89.3281 451.453 85.1682C449.91 82.7913 448.342 79.0514 447.969 76.8574C447.37 73.3396 447.035 73.0286 445.132 74.2253C443.945 74.9717 441.447 75.258 439.581 74.8616C437.715 74.4652 434.266 73.7624 431.917 73.2997C426.962 72.3236 415.201 62.7222 410.011 55.415C401.28 43.122 400.004 41.7056 398.867 43.0421C398.074 43.9734 398.218 45.7434 399.342 48.9042C401.405 54.7082 400.478 78.9913 398.153 80.0399C397.191 80.4738 396.699 82.9598 396.699 87.3959C396.699 91.2307 396.121 94.6402 395.347 95.3678C392.538 98.0088 389.079 98.3803 385.707 96.4033C383.834 95.3057 382.164 94.4077 381.996 94.4077C381.827 94.4077 381.969 96.4326 382.31 98.9075C382.805 102.488 382.421 104.046 380.431 106.535C379.056 108.256 377.296 109.664 376.521 109.664C375.746 109.664 374.3 111.119 373.308 112.899C371.568 116.02 371.607 116.26 374.422 119.713C377.086 122.981 377.276 123.862 376.6 129.851C375.951 135.596 376.078 136.311 377.624 135.614C378.595 135.176 379.389 134.009 379.389 133.02Z" fill="#EBB8C4"/>
<path d="M203.194 386.129C200.487 383.453 199.797 381.793 199.797 377.954C199.797 375.224 200.5 372.452 201.42 371.555C202.313 370.684 203.043 368.094 203.043 365.799C203.043 362.891 204.191 360.01 206.829 356.299C210.995 350.44 211.755 344.995 208.806 342.152C207.207 340.612 207.065 340.705 207.592 342.95C207.92 344.349 208.37 346.269 208.591 347.218C208.819 348.196 207.186 350.069 204.818 351.546C197.007 356.417 193.695 352.48 192.774 337.229C192.353 330.257 194.383 327.059 199.227 327.059C201.607 327.059 203.946 325.703 206.903 322.61C209.243 320.163 211.948 318.161 212.915 318.161C214.006 318.16 214.921 316.7 215.328 314.313C216.186 309.268 220.615 304.175 224.144 304.175C225.905 304.175 228.444 302.469 230.955 299.599C233.157 297.082 236.419 294.148 238.204 293.08C239.989 292.012 241.618 290.965 241.824 290.754C242.03 290.542 240.644 287.714 238.744 284.468C233.445 275.418 226.19 256.428 223.445 244.423C221.357 235.295 220.974 230.459 220.974 213.276C220.974 189.386 222.861 178.929 230.691 159.434C239.44 137.65 252.141 120.485 269.478 107.012C299.029 84.0488 334.904 79.9099 369.11 95.5178L377.111 99.1689L377.439 94.5635C377.735 90.3946 378.099 89.9205 381.273 89.5606C383.202 89.3419 385.814 90.0139 387.077 91.0538C390.859 94.1666 392.372 92.38 392.372 84.8C392.372 80.2178 392.878 77.6744 393.926 76.9852C395.978 75.6354 396.637 54.3511 394.751 50.3131C391.764 43.9182 394.711 37.1985 400.503 37.1985C402.702 37.1985 409.927 45.2459 415.075 53.4284C419.061 59.7627 429.214 67.5875 432.492 66.8511C434.205 66.4662 435.771 66.9899 436.657 68.2435C439.178 71.8127 442.46 70.503 446.28 64.4043C450.374 57.8662 452.292 56.5792 454.594 58.8243C456.836 61.0114 456.6 64.8085 453.978 68.7259C451.559 72.3399 451.787 75.871 454.787 81.2516C456.188 83.7653 457.108 84.2056 459.607 83.5605C464.271 82.3569 465.084 86.2847 460.983 90.2019C453.819 97.0439 448.417 100.473 443.522 101.285C435.862 102.555 431.687 107.317 429.373 117.426C427.606 125.149 427.336 125.575 423.978 125.956C421.863 126.196 419.043 125.365 416.956 123.887C404.434 115.018 397.772 111.732 397.786 114.431C397.789 114.955 401.002 119.103 404.927 123.648C414.336 134.545 420.566 144.931 426.391 159.434C434.221 178.929 436.108 189.386 436.108 213.276C436.108 237.527 434.19 247.875 425.973 267.943C419.694 283.278 415.407 290.412 405.083 302.711C382.214 329.954 349.809 343.632 317.993 339.472C312.191 338.713 305.427 338.041 302.962 337.979C300.496 337.916 297.575 336.967 296.47 335.87C295.366 334.772 292.338 332.934 289.741 331.784L285.021 329.693L281.906 333.354C280.192 335.368 278.312 338.494 277.727 340.301C276.316 344.662 273.836 344.447 270.007 339.63L266.862 335.674L262.537 340.266C260.159 342.791 257.727 344.857 257.134 344.857C256.54 344.857 256.055 346.789 256.055 349.151C256.055 351.513 255.417 354.067 254.638 354.827C253.195 356.234 249.377 355.459 246.23 353.121C244.2 351.612 240.909 344.113 240.909 340.996C240.909 339.787 239.935 338.498 238.745 338.132C235.377 337.097 236.195 333.639 240.281 331.633C242.315 330.634 244.566 328.481 245.281 326.849C245.997 325.216 247.831 322.307 249.357 320.384C251.252 317.998 251.639 316.883 250.577 316.871C249.722 316.861 247.927 316.509 246.588 316.087C244.556 315.447 244.154 315.827 244.154 318.393C244.154 322.913 242.163 324.516 236.545 324.516C230.539 324.516 229.319 325.549 232.364 328.055C234.008 329.409 234.5 330.907 234.169 333.559C233.84 336.19 234.413 337.976 236.229 339.981C238.729 342.74 239.89 351.214 237.768 351.214C236.302 351.214 229.008 364.641 229.008 367.339C229.008 370.126 225.081 379.269 223.088 381.121C222.318 381.838 221.504 383.554 221.279 384.935C220.647 388.828 216.254 388.954 215.012 385.115C213.438 380.251 211.902 379.977 212.08 384.592C212.217 388.151 211.851 388.77 209.415 389.103C207.59 389.352 205.389 388.299 203.194 386.129V386.129ZM208.68 374.415C210.517 371.806 213.688 372.604 215.681 376.178L217.55 379.53L220.566 375.283C222.226 372.948 223.904 369.008 224.295 366.528C225.061 361.674 226.567 358.408 231.535 350.815L234.708 345.967L231.18 341.689C228.478 338.413 227.806 336.694 228.308 334.343C228.835 331.876 228.384 330.94 226.01 329.569C224.386 328.631 222.042 326.504 220.801 324.842C217.93 320.997 214.712 321.796 208.993 327.774C206.161 330.736 203.744 332.144 201.494 332.145C198.353 332.145 198.182 332.401 198.324 336.912C198.703 348.936 198.594 348.47 200.869 347.771C202.532 347.26 202.872 346.408 202.363 344.025C201.558 340.253 204.5 335.958 207.89 335.958C211.53 335.958 215.12 341.386 215.738 347.822C216.242 353.076 215.958 353.899 211.826 359.167C208.66 363.203 207.37 365.957 207.37 368.681C207.37 370.79 206.64 373.227 205.748 374.097C203.772 376.024 203.65 379.382 205.477 381.551C206.563 382.841 206.902 382.452 207.196 379.581C207.397 377.614 208.065 375.289 208.68 374.415V374.415ZM251.727 346.161C251.727 343.326 252.472 341.923 254.703 340.554C256.339 339.549 259.108 336.96 260.855 334.8C264.532 330.256 268.842 329.649 271.639 333.282C273.455 335.639 273.545 335.629 275.864 332.83C283.181 323.996 283.345 323.667 281.841 320.837C280.673 318.64 279.346 318.16 274.443 318.16C269.285 318.16 268.323 318.55 267.401 321.02C266.572 323.241 265.286 323.969 261.655 324.276C259.082 324.494 256.357 324.066 255.598 323.327C254.134 321.899 253.317 322.744 248.909 330.237C245.007 336.87 244.986 341.343 248.822 348.353C250.338 351.124 251.727 350.075 251.727 346.161H251.727ZM305.373 324.657C307.011 323.144 308.877 322.113 309.521 322.367C310.164 322.622 311.278 321.197 311.998 319.202C312.914 316.661 314.334 315.332 316.741 314.767L320.176 313.96L317.326 312.205C315.759 311.24 314.484 309.754 314.493 308.902C314.519 306.407 317.258 297.855 318.498 296.399C320.352 294.22 324.717 295.605 325.068 298.484C325.494 301.981 329.756 303.822 339.022 304.515C346.874 305.101 349.097 304.221 349.097 300.525C349.097 295.244 358.037 291.356 359.547 295.981C360.046 297.509 360.647 297.077 362.202 294.074C363.479 291.606 365.104 290.181 366.661 290.163C368.354 290.144 369.613 288.867 370.734 286.031C371.752 283.456 373.286 281.772 374.851 281.512C379.81 280.685 382.28 286.613 378.72 290.796C377.756 291.928 377.258 293.195 377.612 293.611C378.763 294.963 381.541 291.24 382.416 287.17C382.984 284.532 384.429 282.509 386.721 281.145L390.17 279.092L387.489 272.882C384.776 266.598 383.919 259.679 385.853 259.679C387.27 259.679 390.208 252.831 390.208 249.527C390.208 248.069 390.92 245.6 391.79 244.039C393.165 241.573 393.171 240.54 391.838 236.138C388.447 224.95 390.672 215.183 396.611 215.183C399.255 215.183 399.579 214.779 399.133 212.038C398.789 209.921 399.715 206.953 401.968 202.956C406.866 194.267 407.251 189.878 403.854 181.447C402.299 177.588 401.027 173.661 401.027 172.721C401.027 170.807 397.471 160.503 394.932 155.057C393.723 152.465 393.547 150.576 394.281 148.065C395.559 143.694 394.901 141.446 392.346 141.446C389.983 141.446 388.61 143.464 390.19 144.612C390.795 145.051 391.29 146.768 391.29 148.428C391.29 153.979 384.032 154.209 381.781 148.729C380.77 146.266 380.608 146.681 380.544 151.906C380.484 156.861 379.997 158.28 377.766 159.997C374.696 162.362 374.267 165.786 376.739 168.197C379.323 170.718 378.293 176.161 375.062 177.06L372.357 177.813L375.399 180.168C378.17 182.314 378.376 182.987 377.711 187.729C377.309 190.592 376.567 193.54 376.062 194.279C375.556 195.018 374.417 198.737 373.53 202.543C369.388 220.305 366.049 228.687 361.949 231.617C360.182 232.88 357.529 235.837 356.052 238.189C352.982 243.079 345.337 249.508 342.594 249.508C341.576 249.508 338.85 251.025 336.536 252.878C334.125 254.809 330.71 256.302 328.541 256.374L324.754 256.501L325.034 250.262C325.187 246.83 325.865 243.241 326.54 242.285C328.544 239.448 326.743 238.905 323.731 241.438C321.379 243.415 321.036 244.467 321.567 248.076C322.075 251.528 321.6 253.264 319.133 256.975C312.03 267.661 309.758 272.441 311.055 273.966C311.747 274.778 312.313 276.779 312.313 278.413C312.313 280.729 311.222 281.931 307.355 283.879C302.103 286.524 297.193 287.102 295.489 285.274C294.908 284.65 288.823 284.712 281.479 285.417C274.339 286.102 265.332 286.795 261.464 286.957C251.733 287.364 252.191 287.201 248.355 291.607C246.46 293.785 243.4 296.326 241.556 297.254C239.712 298.183 236.134 301.264 233.604 304.101C231.05 306.965 227.921 309.269 226.572 309.28C223.543 309.304 222.099 310.408 220.538 313.894C218.404 318.66 221.681 320.046 234.078 319.623C239.579 319.435 239.696 319.35 240.029 315.299C240.363 311.222 240.44 311.169 245.777 311.292C249.063 311.367 251.504 310.791 251.994 309.823C252.523 308.779 254.263 308.46 257.036 308.897C259.945 309.356 262.053 308.92 263.772 307.505C265.148 306.373 267.597 305.446 269.214 305.446C270.832 305.446 272.477 304.835 272.87 304.087C273.263 303.34 275.361 302.862 277.532 303.026C279.703 303.189 283.081 302.892 285.04 302.365C287.387 301.734 289.152 301.946 290.221 302.989C291.618 304.35 291.237 305.233 287.472 309.358C283.589 313.613 281.348 318.312 284.184 316.253C284.779 315.82 285.266 316.143 285.266 316.969C285.266 318.088 285.679 318.068 286.889 316.888C287.781 316.018 288.511 314.331 288.511 313.14C288.511 310.093 293.445 304.96 295.489 305.881C297.365 306.728 297.823 313.719 296.085 314.981C295.489 315.413 295.003 318.143 295.003 321.047C295.003 325.283 295.591 326.881 297.978 329.123C300.743 331.72 301.004 331.759 301.674 329.664C302.071 328.424 303.736 326.171 305.373 324.657V324.657ZM263.628 316.888C263.628 314.788 262.907 314.346 259.481 314.346C254.322 314.346 253.164 315.544 256.332 317.604C260.266 320.161 263.628 319.831 263.628 316.888ZM379.389 133.02C379.389 132.031 380.51 130.621 381.88 129.888L384.37 128.555L380.798 124.104C378.824 121.645 377.226 118.303 377.226 116.637C377.226 111.039 385.085 107.38 388.06 111.593C389.269 113.304 389.842 113.232 393.123 110.958C396.978 108.285 403.095 107.552 404.868 109.552C405.433 110.189 408.816 112.497 412.387 114.68C415.957 116.863 419.744 119.344 420.802 120.195C423.187 122.112 424.396 120.248 425.43 113.058C425.922 109.635 427.551 106.452 430.778 102.605C434.736 97.8864 436.27 96.9461 441.212 96.206C447.099 95.3245 448.681 94.6266 452.255 91.3346C454.183 89.5589 454.153 89.3281 451.453 85.1682C449.91 82.7913 448.342 79.0514 447.969 76.8574C447.37 73.3396 447.035 73.0286 445.132 74.2253C443.945 74.9717 441.447 75.258 439.581 74.8616C437.715 74.4652 434.266 73.7624 431.917 73.2997C426.962 72.3236 415.201 62.7222 410.011 55.415C401.28 43.122 400.004 41.7056 398.867 43.0421C398.074 43.9734 398.218 45.7434 399.342 48.9042C401.405 54.7082 400.478 78.9913 398.153 80.0399C397.191 80.4738 396.699 82.9598 396.699 87.3959C396.699 91.2307 396.121 94.6402 395.347 95.3678C392.538 98.0088 389.079 98.3803 385.707 96.4033C383.834 95.3057 382.164 94.4077 381.996 94.4077C381.827 94.4077 381.969 96.4326 382.31 98.9075C382.805 102.488 382.421 104.046 380.431 106.535C379.056 108.256 377.296 109.664 376.521 109.664C375.746 109.664 374.3 111.119 373.308 112.899C371.568 116.02 371.607 116.26 374.422 119.713C377.086 122.981 377.276 123.862 376.6 129.851C375.951 135.596 376.078 136.311 377.624 135.614C378.595 135.176 379.389 134.009 379.389 133.02Z" fill="#E49BAC"/>
<path d="M203.194 386.129C200.487 383.453 199.797 381.793 199.797 377.954C199.797 375.224 200.5 372.452 201.42 371.555C202.313 370.684 203.043 368.094 203.043 365.799C203.043 362.891 204.191 360.01 206.829 356.299C210.995 350.44 211.755 344.995 208.806 342.152C207.207 340.612 207.065 340.705 207.592 342.95C207.92 344.349 208.37 346.269 208.591 347.218C208.819 348.196 207.186 350.069 204.818 351.546C197.007 356.417 193.695 352.48 192.774 337.229C192.353 330.257 194.383 327.059 199.227 327.059C201.607 327.059 203.946 325.703 206.903 322.61C209.243 320.163 211.948 318.161 212.915 318.161C214.006 318.16 214.921 316.7 215.328 314.313C216.186 309.268 220.615 304.175 224.144 304.175C225.905 304.175 228.444 302.469 230.955 299.599C233.157 297.082 236.419 294.148 238.204 293.08C239.989 292.012 241.632 290.949 241.855 290.718C242.078 290.486 240.559 287.269 238.479 283.569C214.356 240.66 214.408 185.942 238.612 142.718C243.927 133.226 257.341 116.887 265.251 110.27C274.329 102.676 287.455 95.1612 298.845 91.0389C307.93 87.7503 309.758 87.5346 328.541 87.5346C347.218 87.5346 349.188 87.7636 358.011 90.9618C363.211 92.8467 369.784 95.7039 372.616 97.3111L377.766 100.233V95.0957C377.766 90.2316 377.953 89.937 381.273 89.5606C383.202 89.3419 385.814 90.0139 387.077 91.0538C390.859 94.1666 392.372 92.38 392.372 84.8C392.372 80.2178 392.878 77.6744 393.926 76.9852C395.978 75.6354 396.637 54.3511 394.751 50.3131C391.764 43.9182 394.711 37.1985 400.503 37.1985C402.702 37.1985 409.927 45.2459 415.075 53.4284C419.061 59.7627 429.214 67.5875 432.492 66.8511C434.205 66.4662 435.771 66.9899 436.657 68.2435C439.178 71.8127 442.46 70.503 446.28 64.4043C450.374 57.8662 452.292 56.5792 454.594 58.8243C456.836 61.0114 456.6 64.8085 453.978 68.7259C451.559 72.3399 451.787 75.871 454.787 81.2516C456.188 83.7653 457.108 84.2056 459.607 83.5605C464.271 82.3569 465.084 86.2847 460.983 90.2019C453.819 97.0439 448.417 100.473 443.522 101.285C435.862 102.555 431.687 107.317 429.373 117.426C427.606 125.149 427.336 125.575 423.978 125.956C421.863 126.196 419.043 125.365 416.956 123.887C404.365 114.969 397.781 111.735 397.781 114.468C397.781 115.012 400.965 119.16 404.857 123.685C446.644 172.272 447.377 250.745 406.51 300.802C393.063 317.274 376.959 328.804 358.051 335.496C349.589 338.492 346.673 338.87 331.246 338.975C308.835 339.127 298.838 338.215 296.398 335.795C295.333 334.739 292.338 332.934 289.741 331.784L285.021 329.693L281.906 333.354C280.192 335.368 278.312 338.494 277.727 340.301C276.316 344.662 273.836 344.447 270.007 339.63L266.862 335.674L262.537 340.266C260.159 342.791 257.727 344.857 257.134 344.857C256.54 344.857 256.055 346.789 256.055 349.151C256.055 351.513 255.417 354.067 254.638 354.827C253.195 356.234 249.377 355.459 246.23 353.121C244.2 351.612 240.909 344.113 240.909 340.996C240.909 339.787 239.935 338.498 238.745 338.132C235.377 337.097 236.195 333.639 240.281 331.633C242.315 330.634 244.566 328.481 245.281 326.849C245.997 325.216 247.831 322.307 249.357 320.384C251.252 317.998 251.639 316.883 250.577 316.871C249.722 316.861 247.927 316.509 246.588 316.087C244.556 315.447 244.154 315.827 244.154 318.393C244.154 322.913 242.163 324.516 236.545 324.516C230.539 324.516 229.319 325.549 232.364 328.055C234.008 329.409 234.5 330.907 234.169 333.559C233.84 336.19 234.413 337.976 236.229 339.981C238.729 342.74 239.89 351.214 237.768 351.214C236.302 351.214 229.008 364.641 229.008 367.339C229.008 370.126 225.081 379.269 223.088 381.121C222.318 381.838 221.504 383.554 221.279 384.935C220.647 388.828 216.254 388.954 215.012 385.115C213.438 380.251 211.902 379.977 212.08 384.592C212.217 388.151 211.851 388.77 209.415 389.103C207.59 389.352 205.389 388.299 203.194 386.129V386.129ZM208.68 374.415C210.517 371.806 213.688 372.604 215.681 376.178L217.55 379.53L220.566 375.283C222.226 372.948 223.904 369.008 224.295 366.528C225.061 361.674 226.567 358.408 231.535 350.815L234.708 345.967L231.18 341.689C228.478 338.413 227.806 336.694 228.308 334.343C228.835 331.876 228.384 330.94 226.01 329.569C224.386 328.631 222.042 326.504 220.801 324.842C217.93 320.997 214.712 321.796 208.993 327.774C206.161 330.736 203.744 332.144 201.494 332.145C198.353 332.145 198.182 332.401 198.324 336.912C198.703 348.936 198.594 348.47 200.869 347.771C202.532 347.26 202.872 346.408 202.363 344.025C201.558 340.253 204.5 335.958 207.89 335.958C211.53 335.958 215.12 341.386 215.738 347.822C216.242 353.076 215.958 353.899 211.826 359.167C208.66 363.203 207.37 365.957 207.37 368.681C207.37 370.79 206.64 373.227 205.748 374.097C203.772 376.024 203.65 379.382 205.477 381.551C206.563 382.841 206.902 382.452 207.196 379.581C207.397 377.614 208.065 375.289 208.68 374.415V374.415ZM251.727 346.161C251.727 343.326 252.472 341.923 254.703 340.554C256.339 339.549 259.108 336.96 260.855 334.8C264.532 330.256 268.842 329.649 271.639 333.282C273.455 335.639 273.545 335.629 275.864 332.83C283.181 323.996 283.345 323.667 281.841 320.837C280.673 318.64 279.346 318.16 274.443 318.16C269.285 318.16 268.323 318.55 267.401 321.02C266.572 323.241 265.286 323.969 261.655 324.276C259.082 324.494 256.357 324.066 255.598 323.327C254.134 321.899 253.317 322.744 248.909 330.237C245.007 336.87 244.986 341.343 248.822 348.353C250.338 351.124 251.727 350.075 251.727 346.161H251.727ZM305.373 324.657C307.011 323.144 308.877 322.113 309.521 322.367C310.164 322.622 311.278 321.197 311.998 319.202C312.914 316.661 314.334 315.332 316.741 314.767L320.176 313.96L317.326 312.205C315.759 311.24 314.484 309.754 314.493 308.902C314.519 306.407 317.258 297.855 318.498 296.399C320.352 294.22 324.717 295.605 325.068 298.484C325.494 301.981 329.756 303.822 339.022 304.515C346.874 305.101 349.097 304.221 349.097 300.525C349.097 295.244 358.037 291.356 359.547 295.981C360.046 297.509 360.647 297.077 362.202 294.074C363.479 291.606 365.104 290.181 366.661 290.163C368.354 290.144 369.613 288.867 370.734 286.031C371.752 283.456 373.286 281.772 374.851 281.512C379.81 280.685 382.28 286.613 378.72 290.796C377.756 291.928 377.258 293.195 377.612 293.611C378.763 294.963 381.541 291.24 382.416 287.17C382.984 284.532 384.429 282.509 386.721 281.145L390.17 279.092L387.489 272.882C384.776 266.598 383.919 259.679 385.853 259.679C387.27 259.679 390.208 252.831 390.208 249.527C390.208 248.069 390.92 245.6 391.79 244.039C393.165 241.573 393.171 240.54 391.838 236.138C388.447 224.95 390.672 215.183 396.611 215.183C399.255 215.183 399.579 214.779 399.133 212.038C398.789 209.921 399.715 206.953 401.968 202.956C406.866 194.267 407.251 189.878 403.854 181.447C402.299 177.588 401.027 173.661 401.027 172.721C401.027 170.807 397.471 160.503 394.932 155.057C393.723 152.465 393.547 150.576 394.281 148.065C395.559 143.694 394.901 141.446 392.346 141.446C389.983 141.446 388.61 143.464 390.19 144.612C390.795 145.051 391.29 146.768 391.29 148.428C391.29 153.979 384.032 154.209 381.781 148.729C380.77 146.266 380.608 146.681 380.544 151.906C380.484 156.861 379.997 158.28 377.766 159.997C374.696 162.362 374.267 165.786 376.739 168.197C379.323 170.718 378.293 176.161 375.062 177.06L372.357 177.813L375.399 180.168C378.17 182.314 378.376 182.987 377.711 187.729C377.309 190.592 376.567 193.54 376.062 194.279C375.556 195.018 374.417 198.737 373.53 202.543C369.388 220.305 366.049 228.687 361.949 231.617C360.182 232.88 357.529 235.837 356.052 238.189C352.982 243.079 345.337 249.508 342.594 249.508C341.576 249.508 338.85 251.025 336.536 252.878C334.125 254.809 330.71 256.302 328.541 256.374L324.754 256.501L325.034 250.262C325.187 246.83 325.865 243.241 326.54 242.285C328.544 239.448 326.743 238.905 323.731 241.438C321.379 243.415 321.036 244.467 321.567 248.076C322.075 251.528 321.6 253.264 319.133 256.975C312.03 267.661 309.758 272.441 311.055 273.966C311.747 274.778 312.313 276.779 312.313 278.413C312.313 280.729 311.222 281.931 307.355 283.879C302.103 286.524 297.193 287.102 295.489 285.274C294.908 284.65 288.823 284.712 281.479 285.417C274.339 286.102 265.332 286.795 261.464 286.957C251.733 287.364 252.191 287.201 248.355 291.607C246.46 293.785 243.4 296.326 241.556 297.254C239.712 298.183 236.134 301.264 233.604 304.101C231.05 306.965 227.921 309.269 226.572 309.28C223.543 309.304 222.099 310.408 220.538 313.894C218.404 318.66 221.681 320.046 234.078 319.623C239.579 319.435 239.696 319.35 240.029 315.299C240.363 311.222 240.44 311.169 245.777 311.292C249.063 311.367 251.504 310.791 251.994 309.823C252.523 308.779 254.263 308.46 257.036 308.897C259.945 309.356 262.053 308.92 263.772 307.505C265.148 306.373 267.597 305.446 269.214 305.446C270.832 305.446 272.477 304.835 272.87 304.087C273.263 303.34 275.361 302.862 277.532 303.026C279.703 303.189 283.081 302.892 285.04 302.365C287.387 301.734 289.152 301.946 290.221 302.989C291.618 304.35 291.237 305.233 287.472 309.358C283.589 313.613 281.348 318.312 284.184 316.253C284.779 315.82 285.266 316.143 285.266 316.969C285.266 318.088 285.679 318.068 286.889 316.888C287.781 316.018 288.511 314.331 288.511 313.14C288.511 310.093 293.445 304.96 295.489 305.881C297.365 306.728 297.823 313.719 296.085 314.981C295.489 315.413 295.003 318.143 295.003 321.047C295.003 325.283 295.591 326.881 297.978 329.123C300.743 331.72 301.004 331.759 301.674 329.664C302.071 328.424 303.736 326.171 305.373 324.657V324.657ZM263.628 316.888C263.628 314.788 262.907 314.346 259.481 314.346C254.322 314.346 253.164 315.544 256.332 317.604C260.266 320.161 263.628 319.831 263.628 316.888ZM379.389 133.02C379.389 132.031 380.51 130.621 381.88 129.888L384.37 128.555L380.798 124.104C378.824 121.645 377.226 118.303 377.226 116.637C377.226 111.039 385.085 107.38 388.06 111.593C389.269 113.304 389.842 113.232 393.123 110.958C396.978 108.285 403.095 107.552 404.868 109.552C405.433 110.189 408.816 112.497 412.387 114.68C415.957 116.863 419.744 119.344 420.802 120.195C423.187 122.112 424.396 120.248 425.43 113.058C425.922 109.635 427.551 106.452 430.778 102.605C434.736 97.8864 436.27 96.9461 441.212 96.206C447.099 95.3245 448.681 94.6266 452.255 91.3346C454.183 89.5589 454.153 89.3281 451.453 85.1682C449.91 82.7913 448.342 79.0514 447.969 76.8574C447.37 73.3396 447.035 73.0286 445.132 74.2253C443.945 74.9717 441.447 75.258 439.581 74.8616C437.715 74.4652 434.266 73.7624 431.917 73.2997C426.962 72.3236 415.201 62.7222 410.011 55.415C401.28 43.122 400.004 41.7056 398.867 43.0421C398.074 43.9734 398.218 45.7434 399.342 48.9042C401.405 54.7082 400.478 78.9913 398.153 80.0399C397.191 80.4738 396.699 82.9598 396.699 87.3959C396.699 91.2307 396.121 94.6402 395.347 95.3678C392.538 98.0088 389.079 98.3803 385.707 96.4033C383.834 95.3057 382.164 94.4077 381.996 94.4077C381.827 94.4077 381.969 96.4326 382.31 98.9075C382.805 102.488 382.421 104.046 380.431 106.535C379.056 108.256 377.296 109.664 376.521 109.664C375.746 109.664 374.3 111.119 373.308 112.899C371.568 116.02 371.607 116.26 374.422 119.713C377.086 122.981 377.276 123.862 376.6 129.851C375.951 135.596 376.078 136.311 377.624 135.614C378.595 135.176 379.389 134.009 379.389 133.02Z" fill="#D9728A"/>
<path d="M203.194 386.129C200.487 383.453 199.797 381.793 199.797 377.954C199.797 375.224 200.5 372.452 201.42 371.555C202.313 370.684 203.043 368.102 203.043 365.817C203.043 362.843 204.272 359.914 207.366 355.514C211.866 349.115 212.16 346.277 208.735 342.315C207.006 340.314 207.003 340.413 208.591 347.218C208.819 348.196 207.186 350.069 204.818 351.546C197.007 356.417 193.695 352.48 192.774 337.229C192.353 330.257 194.383 327.059 199.227 327.059C201.607 327.059 203.946 325.703 206.903 322.61C209.243 320.163 211.948 318.161 212.915 318.161C214.006 318.16 214.921 316.7 215.328 314.313C216.186 309.268 220.615 304.175 224.144 304.175C225.905 304.175 228.444 302.469 230.955 299.599C233.157 297.082 236.419 294.148 238.204 293.08C239.989 292.012 241.624 290.959 241.837 290.739C242.049 290.52 239.94 286.034 237.148 280.771C230.722 268.655 226.424 256.647 223.39 242.333C219.852 225.642 220.059 198.92 223.856 182.114C234.056 136.974 263.193 102.56 301.494 90.4186C309.333 87.9335 313.324 87.5033 328.541 87.5033C348.129 87.5033 357.603 89.5707 371.175 96.8072L377.766 100.321V95.1398C377.766 90.226 377.948 89.9376 381.273 89.5606C383.202 89.3419 385.814 90.0139 387.077 91.0538C390.859 94.1666 392.372 92.38 392.372 84.8C392.372 80.2178 392.878 77.6744 393.926 76.9852C395.978 75.6354 396.637 54.3511 394.751 50.3131C391.764 43.9182 394.711 37.1985 400.503 37.1985C402.702 37.1985 409.927 45.2459 415.075 53.4284C419.061 59.7627 429.214 67.5875 432.492 66.8511C434.205 66.4662 435.771 66.9899 436.657 68.2435C439.178 71.8127 442.46 70.503 446.28 64.4043C450.374 57.8662 452.292 56.5792 454.594 58.8243C456.836 61.0114 456.6 64.8085 453.978 68.7259C451.559 72.3399 451.787 75.871 454.787 81.2516C456.188 83.7653 457.108 84.2056 459.607 83.5605C464.271 82.3569 465.084 86.2847 460.983 90.2019C453.819 97.0439 448.417 100.473 443.522 101.285C435.862 102.555 431.687 107.317 429.373 117.426C427.606 125.149 427.336 125.575 423.978 125.956C421.863 126.196 419.043 125.365 416.956 123.887C404.685 115.196 397.781 111.74 397.781 114.29C397.781 114.736 401.452 119.617 405.939 125.136C419.769 142.146 428.132 159.604 433.234 182.114C435.588 192.499 435.975 196.898 435.975 213.276C435.975 229.654 435.588 234.052 433.234 244.438C424.697 282.101 403.52 311.935 373.685 328.327C358.901 336.45 348.907 338.931 330.705 338.995C309.103 339.071 298.704 338.086 296.379 335.742C295.324 334.679 292.363 332.854 289.798 331.685L285.134 329.56L281.962 333.288C280.218 335.338 278.312 338.494 277.727 340.301C276.316 344.662 273.836 344.447 270.007 339.63L266.862 335.674L262.537 340.266C260.159 342.791 257.727 344.857 257.134 344.857C256.54 344.857 256.055 346.789 256.055 349.151C256.055 351.513 255.417 354.067 254.638 354.827C253.195 356.234 249.377 355.459 246.23 353.121C244.2 351.612 240.909 344.113 240.909 340.996C240.909 339.787 239.935 338.498 238.745 338.132C235.377 337.097 236.195 333.639 240.281 331.633C242.315 330.634 244.566 328.481 245.281 326.849C245.997 325.216 247.831 322.307 249.357 320.384C251.252 317.998 251.639 316.883 250.577 316.871C249.722 316.861 247.927 316.509 246.588 316.087C244.556 315.447 244.154 315.827 244.154 318.393C244.154 322.913 242.163 324.516 236.545 324.516C230.539 324.516 229.319 325.549 232.364 328.055C234.008 329.409 234.5 330.907 234.169 333.559C233.84 336.19 234.413 337.976 236.229 339.981C238.729 342.74 239.89 351.214 237.768 351.214C236.302 351.214 229.008 364.641 229.008 367.339C229.008 370.088 225.03 379.195 223.012 381.067C222.245 381.779 221.45 383.505 221.245 384.904C220.669 388.832 216.263 388.982 215.012 385.115C213.438 380.251 211.902 379.977 212.08 384.592C212.217 388.151 211.851 388.77 209.415 389.103C207.59 389.352 205.389 388.299 203.194 386.129V386.129ZM208.68 374.415C210.517 371.806 213.688 372.604 215.681 376.178L217.55 379.53L220.566 375.283C222.226 372.948 223.904 369.008 224.295 366.528C225.061 361.674 226.567 358.408 231.535 350.815L234.708 345.967L231.18 341.689C228.478 338.413 227.806 336.694 228.308 334.343C228.835 331.876 228.384 330.94 226.01 329.569C224.386 328.631 222.042 326.504 220.801 324.842C217.93 320.997 214.712 321.796 208.993 327.774C206.161 330.736 203.744 332.144 201.494 332.145C198.353 332.145 198.182 332.401 198.324 336.912C198.703 348.936 198.594 348.47 200.869 347.771C202.532 347.26 202.872 346.408 202.363 344.025C201.558 340.253 204.5 335.958 207.89 335.958C211.53 335.958 215.12 341.386 215.738 347.822C216.242 353.076 215.958 353.899 211.826 359.167C208.66 363.203 207.37 365.957 207.37 368.681C207.37 370.79 206.64 373.227 205.748 374.097C203.772 376.024 203.65 379.382 205.477 381.551C206.563 382.841 206.902 382.452 207.196 379.581C207.397 377.614 208.065 375.289 208.68 374.415V374.415ZM251.727 346.161C251.727 343.326 252.472 341.923 254.703 340.554C256.339 339.549 259.108 336.96 260.855 334.8C264.532 330.256 268.842 329.649 271.639 333.282C273.455 335.639 273.545 335.629 275.864 332.83C283.181 323.996 283.345 323.667 281.841 320.837C280.673 318.64 279.346 318.16 274.443 318.16C269.285 318.16 268.323 318.55 267.401 321.02C266.572 323.241 265.286 323.969 261.655 324.276C259.082 324.494 256.357 324.066 255.598 323.327C254.134 321.899 253.317 322.744 248.909 330.237C245.007 336.87 244.986 341.343 248.822 348.353C250.338 351.124 251.727 350.075 251.727 346.161H251.727ZM305.373 324.657C307.011 323.144 308.877 322.113 309.521 322.367C310.164 322.622 311.278 321.197 311.998 319.202C312.914 316.661 314.334 315.332 316.741 314.767L320.176 313.96L317.326 312.205C315.759 311.24 314.484 309.754 314.493 308.902C314.519 306.407 317.258 297.855 318.498 296.399C320.352 294.22 324.717 295.605 325.068 298.484C325.494 301.981 329.756 303.822 339.022 304.515C346.874 305.101 349.097 304.221 349.097 300.525C349.097 295.244 358.037 291.356 359.547 295.981C360.046 297.509 360.647 297.077 362.202 294.074C363.479 291.606 365.104 290.181 366.661 290.163C368.354 290.144 369.613 288.867 370.734 286.031C372.493 281.582 376.24 280.019 378.908 282.621C381.081 284.74 380.859 288.005 378.307 291.462C375.48 295.293 375.569 296.03 378.578 293.706C379.917 292.672 381.547 289.884 382.201 287.512C382.96 284.761 384.618 282.455 386.78 281.145L390.17 279.092L387.489 272.882C384.776 266.598 383.919 259.679 385.853 259.679C387.27 259.679 390.208 252.831 390.208 249.527C390.208 248.069 390.92 245.6 391.79 244.039C393.165 241.573 393.171 240.54 391.838 236.138C388.447 224.95 390.672 215.183 396.611 215.183C399.255 215.183 399.579 214.779 399.133 212.038C398.789 209.921 399.715 206.953 401.968 202.956C406.866 194.267 407.251 189.878 403.854 181.447C402.299 177.588 401.027 173.661 401.027 172.721C401.027 170.807 397.471 160.503 394.932 155.057C393.723 152.465 393.547 150.576 394.281 148.065C395.559 143.694 394.901 141.446 392.346 141.446C389.983 141.446 388.61 143.464 390.19 144.612C390.795 145.051 391.29 146.768 391.29 148.428C391.29 153.979 384.032 154.209 381.781 148.729C380.77 146.266 380.608 146.681 380.544 151.906C380.484 156.861 379.997 158.28 377.766 159.997C374.696 162.362 374.267 165.786 376.739 168.197C379.323 170.718 378.293 176.161 375.062 177.06L372.357 177.813L375.399 180.168C378.17 182.314 378.376 182.987 377.711 187.729C377.309 190.592 376.567 193.54 376.062 194.279C375.556 195.018 374.417 198.737 373.53 202.543C369.388 220.305 366.049 228.687 361.949 231.617C360.182 232.88 357.529 235.837 356.052 238.189C352.982 243.079 345.337 249.508 342.594 249.508C341.576 249.508 338.85 251.025 336.536 252.878C334.125 254.809 330.71 256.302 328.541 256.374L324.754 256.501L325.034 250.262C325.187 246.83 325.865 243.241 326.54 242.285C328.544 239.448 326.743 238.905 323.731 241.438C321.379 243.415 321.036 244.467 321.567 248.076C322.075 251.528 321.6 253.264 319.133 256.975C312.03 267.661 309.758 272.441 311.055 273.966C311.747 274.778 312.313 276.779 312.313 278.413C312.313 280.729 311.222 281.931 307.355 283.879C302.103 286.524 297.193 287.102 295.489 285.274C294.908 284.65 288.823 284.712 281.479 285.417C274.339 286.102 265.332 286.795 261.464 286.957C251.733 287.364 252.191 287.201 248.355 291.607C246.46 293.785 243.4 296.326 241.556 297.254C239.712 298.183 236.134 301.264 233.604 304.101C231.05 306.965 227.921 309.269 226.572 309.28C223.543 309.304 222.099 310.408 220.538 313.894C218.404 318.66 221.681 320.046 234.078 319.623C239.579 319.435 239.696 319.35 240.029 315.299C240.363 311.222 240.44 311.169 245.777 311.292C249.063 311.367 251.504 310.791 251.994 309.823C252.523 308.779 254.263 308.46 257.036 308.897C259.945 309.356 262.053 308.92 263.772 307.505C265.148 306.373 267.597 305.446 269.214 305.446C270.832 305.446 272.477 304.835 272.87 304.087C273.263 303.34 275.361 302.862 277.532 303.026C279.703 303.189 283.081 302.892 285.04 302.365C287.387 301.734 289.152 301.946 290.221 302.989C291.618 304.35 291.237 305.233 287.472 309.358C283.589 313.613 281.348 318.312 284.184 316.253C284.779 315.82 285.266 316.143 285.266 316.969C285.266 318.088 285.679 318.068 286.889 316.888C287.781 316.018 288.511 314.331 288.511 313.14C288.511 310.093 293.445 304.96 295.489 305.881C297.365 306.728 297.823 313.719 296.085 314.981C295.489 315.413 295.003 318.143 295.003 321.047C295.003 325.283 295.591 326.881 297.978 329.123C300.743 331.72 301.004 331.759 301.674 329.664C302.071 328.424 303.736 326.171 305.373 324.657V324.657ZM263.628 316.888C263.628 314.788 262.907 314.346 259.481 314.346C254.322 314.346 253.164 315.544 256.332 317.604C260.266 320.161 263.628 319.831 263.628 316.888ZM379.389 133.02C379.389 132.031 380.51 130.621 381.88 129.888L384.37 128.555L380.798 124.104C378.824 121.645 377.226 118.303 377.226 116.637C377.226 111.039 385.085 107.38 388.06 111.593C389.269 113.304 389.842 113.232 393.123 110.958C396.978 108.285 403.095 107.552 404.868 109.552C405.433 110.189 408.816 112.497 412.387 114.68C415.957 116.863 419.744 119.344 420.802 120.195C423.187 122.112 424.396 120.248 425.43 113.058C425.922 109.635 427.551 106.452 430.778 102.605C434.736 97.8864 436.27 96.9461 441.212 96.206C447.099 95.3245 448.681 94.6266 452.255 91.3346C454.183 89.5589 454.153 89.3281 451.453 85.1682C449.91 82.7913 448.342 79.0514 447.969 76.8574C447.37 73.3396 447.035 73.0286 445.132 74.2253C443.945 74.9717 441.447 75.258 439.581 74.8616C437.715 74.4652 434.266 73.7624 431.917 73.2997C426.962 72.3236 415.201 62.7222 410.011 55.415C401.28 43.122 400.004 41.7056 398.867 43.0421C398.074 43.9734 398.218 45.7434 399.342 48.9042C401.405 54.7082 400.478 78.9913 398.153 80.0399C397.191 80.4738 396.699 82.9598 396.699 87.3959C396.699 91.2307 396.121 94.6402 395.347 95.3678C392.538 98.0088 389.079 98.3803 385.707 96.4033C383.834 95.3057 382.164 94.4077 381.996 94.4077C381.827 94.4077 381.969 96.4326 382.31 98.9075C382.805 102.488 382.421 104.046 380.431 106.535C379.056 108.256 377.296 109.664 376.521 109.664C375.746 109.664 374.3 111.119 373.308 112.899C371.568 116.02 371.607 116.26 374.422 119.713C377.086 122.981 377.276 123.862 376.6 129.851C375.951 135.596 376.078 136.311 377.624 135.614C378.595 135.176 379.389 134.009 379.389 133.02Z" fill="#CF4D6C"/>
<path d="M203.194 386.129C200.487 383.453 199.797 381.793 199.797 377.954C199.797 375.224 200.5 372.452 201.42 371.555C202.313 370.684 203.043 368.102 203.043 365.817C203.043 362.843 204.272 359.914 207.366 355.514C211.866 349.115 212.16 346.277 208.735 342.315C207.006 340.314 207.003 340.413 208.591 347.218C208.819 348.196 207.186 350.069 204.818 351.546C197.007 356.417 193.695 352.48 192.774 337.229C192.353 330.257 194.383 327.059 199.227 327.059C201.607 327.059 203.946 325.703 206.903 322.61C209.243 320.163 211.948 318.161 212.915 318.161C214.006 318.16 214.921 316.7 215.328 314.313C216.185 309.275 220.614 304.175 224.132 304.175C225.914 304.175 228.534 302.362 231.356 299.174C233.792 296.424 237.181 293.494 238.888 292.664C240.594 291.833 241.991 290.679 241.991 290.1C241.991 289.521 240.578 286.587 238.851 283.58C214.681 241.496 214.853 185.883 239.289 142.063C245.725 130.522 261.752 112.573 272.07 105.351C302.17 84.2825 338.859 81.0331 370.446 96.6384L377.766 100.255V95.1067C377.766 90.2302 377.952 89.9371 381.273 89.5606C383.202 89.3419 385.814 90.0139 387.077 91.0538C390.859 94.1666 392.372 92.38 392.372 84.8C392.372 80.2178 392.878 77.6744 393.926 76.9852C395.978 75.6354 396.637 54.3511 394.751 50.3131C391.764 43.9182 394.711 37.1985 400.503 37.1985C402.702 37.1985 409.927 45.2459 415.075 53.4284C419.061 59.7627 429.214 67.5875 432.492 66.8511C434.205 66.4662 435.771 66.9899 436.657 68.2435C439.178 71.8127 442.46 70.503 446.28 64.4043C450.374 57.8662 452.292 56.5792 454.594 58.8243C456.836 61.0114 456.6 64.8085 453.978 68.7259C451.559 72.3399 451.787 75.871 454.787 81.2516C456.188 83.7653 457.108 84.2056 459.607 83.5605C464.271 82.3569 465.084 86.2847 460.983 90.2019C453.819 97.0439 448.417 100.473 443.522 101.285C435.862 102.555 431.687 107.317 429.373 117.426C427.613 125.115 427.324 125.576 424.032 125.951C421.62 126.226 418.634 125.049 414.305 122.12C403.322 114.686 400.264 113.062 398.634 113.797C397.482 114.316 399.321 117.287 405.254 124.494C425.899 149.574 436.053 178.844 436.053 213.276C436.053 248.066 425.685 277.648 404.826 302.371C390.813 318.979 374.605 329.912 354.696 336.184C348.32 338.192 342.875 338.827 331.246 338.919C309.83 339.088 298.187 338.03 296.734 335.786C296.079 334.773 293.233 332.921 290.409 331.67L285.275 329.395L282.032 333.205C280.249 335.301 278.312 338.494 277.727 340.301C276.316 344.662 273.836 344.447 270.007 339.63L266.862 335.674L262.537 340.266C260.159 342.791 257.727 344.857 257.134 344.857C256.54 344.857 256.055 346.789 256.055 349.151C256.055 351.513 255.417 354.067 254.638 354.827C253.195 356.234 249.377 355.459 246.23 353.121C244.2 351.612 240.909 344.113 240.909 340.996C240.909 339.787 239.935 338.498 238.745 338.132C235.377 337.097 236.195 333.639 240.281 331.633C242.315 330.634 244.566 328.481 245.281 326.849C245.997 325.216 247.831 322.307 249.357 320.384C251.252 317.998 251.639 316.883 250.577 316.871C249.722 316.861 247.927 316.509 246.588 316.087C244.556 315.447 244.154 315.827 244.154 318.393C244.154 322.913 242.163 324.516 236.545 324.516C230.539 324.516 229.319 325.549 232.364 328.055C234.008 329.409 234.5 330.907 234.169 333.559C233.84 336.19 234.413 337.976 236.229 339.981C238.729 342.74 239.89 351.214 237.768 351.214C236.302 351.214 229.008 364.641 229.008 367.339C229.008 370.088 225.03 379.195 223.012 381.067C222.245 381.779 221.45 383.505 221.245 384.904C220.669 388.832 216.263 388.982 215.012 385.115C213.438 380.251 211.902 379.977 212.08 384.592C212.217 388.151 211.851 388.77 209.415 389.103C207.59 389.352 205.389 388.299 203.194 386.129V386.129ZM208.68 374.415C210.517 371.806 213.688 372.604 215.681 376.178L217.55 379.53L220.566 375.283C222.226 372.948 223.904 369.008 224.295 366.528C225.061 361.674 226.567 358.408 231.535 350.815L234.708 345.967L231.18 341.689C228.478 338.413 227.806 336.694 228.308 334.343C228.835 331.876 228.384 330.94 226.01 329.569C224.386 328.631 222.042 326.504 220.801 324.842C217.93 320.997 214.712 321.796 208.993 327.774C206.161 330.736 203.744 332.144 201.494 332.145C198.353 332.145 198.182 332.401 198.324 336.912C198.703 348.936 198.594 348.47 200.869 347.771C202.532 347.26 202.872 346.408 202.363 344.025C201.558 340.253 204.5 335.958 207.89 335.958C211.53 335.958 215.12 341.386 215.738 347.822C216.242 353.076 215.958 353.899 211.826 359.167C208.66 363.203 207.37 365.957 207.37 368.681C207.37 370.79 206.64 373.227 205.748 374.097C203.772 376.024 203.65 379.382 205.477 381.551C206.563 382.841 206.902 382.452 207.196 379.581C207.397 377.614 208.065 375.289 208.68 374.415V374.415ZM251.727 346.161C251.727 343.326 252.472 341.923 254.703 340.554C256.339 339.549 259.108 336.96 260.855 334.8C264.532 330.256 268.842 329.649 271.639 333.282C273.455 335.639 273.545 335.629 275.864 332.83C283.181 323.996 283.345 323.667 281.841 320.837C280.673 318.64 279.346 318.16 274.443 318.16C269.285 318.16 268.323 318.55 267.401 321.02C266.572 323.241 265.286 323.969 261.655 324.276C259.082 324.494 256.357 324.066 255.598 323.327C254.134 321.899 253.317 322.744 248.909 330.237C245.007 336.87 244.986 341.343 248.822 348.353C250.338 351.124 251.727 350.075 251.727 346.161H251.727ZM305.373 324.657C307.011 323.144 308.877 322.113 309.521 322.367C310.164 322.622 311.278 321.197 311.998 319.202C312.914 316.661 314.334 315.332 316.741 314.767L320.176 313.96L317.326 312.205C315.759 311.24 314.484 309.754 314.493 308.902C314.519 306.407 317.258 297.855 318.498 296.399C320.352 294.22 324.717 295.605 325.068 298.484C325.494 301.981 329.756 303.822 339.022 304.515C346.874 305.101 349.097 304.221 349.097 300.525C349.097 295.244 358.037 291.356 359.547 295.981C360.046 297.509 360.647 297.077 362.202 294.074C363.479 291.606 365.104 290.181 366.661 290.163C368.354 290.144 369.613 288.867 370.734 286.031C372.493 281.582 376.24 280.019 378.908 282.621C381.081 284.74 380.859 288.005 378.307 291.462C375.48 295.293 375.569 296.03 378.578 293.706C379.917 292.672 381.547 289.884 382.201 287.512C382.96 284.761 384.618 282.455 386.78 281.145L390.17 279.092L387.489 272.882C384.776 266.598 383.919 259.679 385.853 259.679C387.27 259.679 390.208 252.831 390.208 249.527C390.208 248.069 390.92 245.6 391.79 244.039C393.165 241.573 393.171 240.54 391.838 236.138C388.447 224.95 390.672 215.183 396.611 215.183C399.255 215.183 399.579 214.779 399.133 212.038C398.789 209.921 399.715 206.953 401.968 202.956C406.866 194.267 407.251 189.878 403.854 181.447C402.299 177.588 401.027 173.661 401.027 172.721C401.027 170.807 397.471 160.503 394.932 155.057C393.723 152.465 393.547 150.576 394.281 148.065C395.559 143.694 394.901 141.446 392.346 141.446C389.983 141.446 388.61 143.464 390.19 144.612C390.795 145.051 391.29 146.768 391.29 148.428C391.29 153.979 384.032 154.209 381.781 148.729C380.77 146.266 380.608 146.681 380.544 151.906C380.484 156.861 379.997 158.28 377.766 159.997C374.696 162.362 374.267 165.786 376.739 168.197C379.323 170.718 378.293 176.161 375.062 177.06L372.357 177.813L375.399 180.168C378.17 182.314 378.376 182.987 377.711 187.729C377.309 190.592 376.567 193.54 376.062 194.279C375.556 195.018 374.417 198.737 373.53 202.543C369.388 220.305 366.049 228.687 361.949 231.617C360.182 232.88 357.529 235.837 356.052 238.189C352.982 243.079 345.337 249.508 342.594 249.508C341.576 249.508 338.85 251.025 336.536 252.878C334.125 254.809 330.71 256.302 328.541 256.374L324.754 256.501L325.034 250.262C325.187 246.83 325.865 243.241 326.54 242.285C328.544 239.448 326.743 238.905 323.731 241.438C321.379 243.415 321.036 244.467 321.567 248.076C322.075 251.528 321.6 253.264 319.133 256.975C312.03 267.661 309.758 272.441 311.055 273.966C311.747 274.778 312.313 276.779 312.313 278.413C312.313 280.729 311.222 281.931 307.355 283.879C302.103 286.524 297.193 287.102 295.489 285.274C294.908 284.65 288.823 284.712 281.479 285.417C274.339 286.102 265.332 286.795 261.464 286.957C251.733 287.364 252.191 287.201 248.355 291.607C246.46 293.785 243.4 296.326 241.556 297.254C239.712 298.183 236.134 301.264 233.604 304.101C231.05 306.965 227.921 309.269 226.572 309.28C223.543 309.304 222.099 310.408 220.538 313.894C218.404 318.66 221.681 320.046 234.078 319.623C239.579 319.435 239.696 319.35 240.029 315.299C240.363 311.222 240.44 311.169 245.777 311.292C249.063 311.367 251.504 310.791 251.994 309.823C252.523 308.779 254.263 308.46 257.036 308.897C259.945 309.356 262.053 308.92 263.772 307.505C265.148 306.373 267.597 305.446 269.214 305.446C270.832 305.446 272.477 304.835 272.87 304.087C273.263 303.34 275.361 302.862 277.532 303.026C279.703 303.189 283.081 302.892 285.04 302.365C287.387 301.734 289.152 301.946 290.221 302.989C291.618 304.35 291.237 305.233 287.472 309.358C283.589 313.613 281.348 318.312 284.184 316.253C284.779 315.82 285.266 316.143 285.266 316.969C285.266 318.088 285.679 318.068 286.889 316.888C287.781 316.018 288.511 314.331 288.511 313.14C288.511 310.093 293.445 304.96 295.489 305.881C297.365 306.728 297.823 313.719 296.085 314.981C295.489 315.413 295.003 318.143 295.003 321.047C295.003 325.283 295.591 326.881 297.978 329.123C300.743 331.72 301.004 331.759 301.674 329.664C302.071 328.424 303.736 326.171 305.373 324.657V324.657ZM263.628 316.888C263.628 314.788 262.907 314.346 259.481 314.346C254.322 314.346 253.164 315.544 256.332 317.604C260.266 320.161 263.628 319.831 263.628 316.888ZM379.389 133.02C379.389 132.031 380.51 130.621 381.88 129.888L384.37 128.555L380.798 124.104C378.824 121.645 377.226 118.303 377.226 116.637C377.226 111.039 385.085 107.38 388.06 111.593C389.269 113.304 389.842 113.232 393.123 110.958C396.978 108.285 403.095 107.552 404.868 109.552C405.433 110.189 408.816 112.497 412.387 114.68C415.957 116.863 419.744 119.344 420.802 120.195C423.187 122.112 424.396 120.248 425.43 113.058C425.922 109.635 427.551 106.452 430.778 102.605C434.736 97.8864 436.27 96.9461 441.212 96.206C447.099 95.3245 448.681 94.6266 452.255 91.3346C454.183 89.5589 454.153 89.3281 451.453 85.1682C449.91 82.7913 448.342 79.0514 447.969 76.8574C447.37 73.3396 447.035 73.0286 445.132 74.2253C443.945 74.9717 441.447 75.258 439.581 74.8616C437.715 74.4652 434.266 73.7624 431.917 73.2997C426.962 72.3236 415.201 62.7222 410.011 55.415C401.28 43.122 400.004 41.7056 398.867 43.0421C398.074 43.9734 398.218 45.7434 399.342 48.9042C401.405 54.7082 400.478 78.9913 398.153 80.0399C397.191 80.4738 396.699 82.9598 396.699 87.3959C396.699 91.2307 396.121 94.6402 395.347 95.3678C392.538 98.0088 389.079 98.3803 385.707 96.4033C383.834 95.3057 382.164 94.4077 381.996 94.4077C381.827 94.4077 381.969 96.4326 382.31 98.9075C382.805 102.488 382.421 104.046 380.431 106.535C379.056 108.256 377.296 109.664 376.521 109.664C375.746 109.664 374.3 111.119 373.308 112.899C371.568 116.02 371.607 116.26 374.422 119.713C377.086 122.981 377.276 123.862 376.6 129.851C375.951 135.596 376.078 136.311 377.624 135.614C378.595 135.176 379.389 134.009 379.389 133.02Z" fill="#C6294E"/>
<path d="M203.194 386.129C200.487 383.453 199.797 381.793 199.797 377.954C199.797 375.224 200.5 372.452 201.42 371.555C202.313 370.684 203.043 368.102 203.043 365.817C203.043 362.843 204.272 359.914 207.366 355.514C211.866 349.115 212.16 346.277 208.735 342.315C207.006 340.314 207.003 340.413 208.591 347.218C208.819 348.196 207.186 350.069 204.818 351.546C197.007 356.417 193.695 352.48 192.774 337.229C192.353 330.257 194.383 327.059 199.227 327.059C201.607 327.059 203.946 325.703 206.903 322.61C209.243 320.163 211.948 318.161 212.915 318.161C214.006 318.16 214.921 316.7 215.328 314.313C216.186 309.268 220.615 304.175 224.144 304.175C225.905 304.175 228.443 302.469 230.955 299.596C233.157 297.077 236.778 293.923 239.002 292.585L243.047 290.154L239.261 283.963C237.18 280.558 233.564 272.975 231.226 267.113C202.367 194.748 237.02 109.594 303.117 90.4521C325.881 83.8595 350.946 86.7375 373.98 98.5888L377.766 100.537V95.2476C377.766 90.2122 377.935 89.939 381.273 89.5606C383.202 89.3419 385.814 90.0139 387.077 91.0538C390.859 94.1666 392.372 92.38 392.372 84.8C392.372 80.2178 392.878 77.6744 393.926 76.9852C395.978 75.6354 396.637 54.3511 394.751 50.3131C391.764 43.9182 394.711 37.1985 400.503 37.1985C402.702 37.1985 409.927 45.2459 415.075 53.4284C419.061 59.7627 429.214 67.5875 432.492 66.8511C434.205 66.4662 435.771 66.9899 436.657 68.2435C439.178 71.8127 442.46 70.503 446.28 64.4043C450.374 57.8662 452.292 56.5792 454.594 58.8243C456.836 61.0114 456.6 64.8085 453.978 68.7259C451.559 72.3399 451.787 75.871 454.787 81.2516C456.188 83.7653 457.108 84.2056 459.607 83.5605C464.271 82.3569 465.084 86.2847 460.983 90.2019C453.819 97.0439 448.417 100.473 443.522 101.285C435.862 102.555 431.687 107.317 429.373 117.426C427.613 125.115 427.324 125.576 424.032 125.951C421.62 126.226 418.634 125.049 414.305 122.12C402.832 114.354 400.277 113.056 398.261 113.965C396.589 114.719 397.127 115.706 401.856 120.567C414.458 133.521 427.482 158.753 432.321 179.586C437.232 200.727 437.244 225.612 432.353 246.966C427.017 270.266 412.467 296.235 396.227 311.441C385.464 321.52 366.917 332.431 354.506 335.986C342.348 339.469 322.948 340.494 312.175 338.221C306.429 337.01 303.185 336.868 301.494 337.755C299.537 338.781 298.717 338.524 297.279 336.437C296.297 335.012 293.213 332.822 290.426 331.572L285.358 329.297L282.074 333.156C280.268 335.279 278.312 338.494 277.727 340.301C276.316 344.662 273.836 344.447 270.007 339.63L266.862 335.674L262.537 340.266C260.159 342.791 257.727 344.857 257.134 344.857C256.54 344.857 256.055 346.789 256.055 349.151C256.055 351.513 255.417 354.067 254.638 354.827C253.195 356.234 249.377 355.459 246.23 353.121C244.2 351.612 240.909 344.113 240.909 340.996C240.909 339.787 239.935 338.498 238.745 338.132C235.377 337.097 236.195 333.639 240.281 331.633C242.315 330.634 244.566 328.481 245.281 326.849C245.997 325.216 247.831 322.307 249.357 320.384C251.252 317.998 251.639 316.883 250.577 316.871C249.722 316.861 247.927 316.509 246.588 316.087C244.556 315.447 244.154 315.827 244.154 318.393C244.154 322.913 242.163 324.516 236.545 324.516C230.539 324.516 229.319 325.549 232.364 328.055C234.008 329.409 234.5 330.907 234.169 333.559C233.84 336.19 234.413 337.976 236.229 339.981C238.729 342.74 239.89 351.214 237.768 351.214C236.302 351.214 229.008 364.641 229.008 367.339C229.008 370.088 225.03 379.195 223.012 381.067C222.245 381.779 221.45 383.505 221.245 384.904C220.669 388.832 216.263 388.982 215.012 385.115C213.438 380.251 211.902 379.977 212.08 384.592C212.217 388.151 211.851 388.77 209.415 389.103C207.59 389.352 205.389 388.299 203.194 386.129V386.129ZM208.68 374.415C210.517 371.806 213.688 372.604 215.681 376.178L217.55 379.53L220.566 375.283C222.226 372.948 223.904 369.008 224.295 366.528C225.061 361.674 226.567 358.408 231.535 350.815L234.708 345.967L231.18 341.689C228.478 338.413 227.806 336.694 228.308 334.343C228.835 331.876 228.384 330.94 226.01 329.569C224.386 328.631 222.042 326.504 220.801 324.842C217.93 320.997 214.712 321.796 208.993 327.774C206.161 330.736 203.744 332.144 201.494 332.145C198.353 332.145 198.182 332.401 198.324 336.912C198.703 348.936 198.594 348.47 200.869 347.771C202.532 347.26 202.872 346.408 202.363 344.025C201.558 340.253 204.5 335.958 207.89 335.958C211.53 335.958 215.12 341.386 215.738 347.822C216.242 353.076 215.958 353.899 211.826 359.167C208.66 363.203 207.37 365.957 207.37 368.681C207.37 370.79 206.64 373.227 205.748 374.097C203.772 376.024 203.65 379.382 205.477 381.551C206.563 382.841 206.902 382.452 207.196 379.581C207.397 377.614 208.065 375.289 208.68 374.415V374.415ZM251.727 346.161C251.727 343.326 252.472 341.923 254.703 340.554C256.339 339.549 259.108 336.96 260.855 334.8C264.532 330.256 268.842 329.649 271.639 333.282C273.455 335.639 273.545 335.629 275.864 332.83C283.181 323.996 283.345 323.667 281.841 320.837C280.673 318.64 279.346 318.16 274.443 318.16C269.285 318.16 268.323 318.55 267.401 321.02C266.572 323.241 265.286 323.969 261.655 324.276C259.082 324.494 256.357 324.066 255.598 323.327C254.134 321.899 253.317 322.744 248.909 330.237C245.007 336.87 244.986 341.343 248.822 348.353C250.338 351.124 251.727 350.075 251.727 346.161H251.727ZM305.373 324.657C307.011 323.144 308.877 322.113 309.521 322.367C310.164 322.622 311.278 321.197 311.998 319.202C312.914 316.661 314.334 315.332 316.741 314.767L320.176 313.96L317.326 312.205C315.759 311.24 314.484 309.754 314.493 308.902C314.519 306.407 317.258 297.855 318.498 296.399C320.352 294.22 324.717 295.605 325.068 298.484C325.494 301.981 329.756 303.822 339.022 304.515C346.874 305.101 349.097 304.221 349.097 300.525C349.097 295.244 358.037 291.356 359.547 295.981C360.046 297.509 360.647 297.077 362.202 294.074C363.479 291.606 365.104 290.181 366.661 290.163C368.354 290.144 369.613 288.867 370.734 286.031C372.493 281.582 376.24 280.019 378.908 282.621C381.081 284.74 380.859 288.005 378.307 291.462C375.48 295.293 375.569 296.03 378.578 293.706C379.917 292.672 381.547 289.884 382.201 287.512C382.96 284.761 384.618 282.455 386.78 281.145L390.17 279.092L387.489 272.882C384.776 266.598 383.919 259.679 385.853 259.679C387.27 259.679 390.208 252.831 390.208 249.527C390.208 248.069 390.92 245.6 391.79 244.039C393.165 241.573 393.171 240.54 391.838 236.138C388.447 224.95 390.672 215.183 396.611 215.183C399.255 215.183 399.579 214.779 399.133 212.038C398.789 209.921 399.715 206.953 401.968 202.956C406.866 194.267 407.251 189.878 403.854 181.447C402.299 177.588 401.027 173.661 401.027 172.721C401.027 170.807 397.471 160.503 394.932 155.057C393.723 152.465 393.547 150.576 394.281 148.065C395.559 143.694 394.901 141.446 392.346 141.446C389.983 141.446 388.61 143.464 390.19 144.612C390.795 145.051 391.29 146.768 391.29 148.428C391.29 153.979 384.032 154.209 381.781 148.729C380.77 146.266 380.608 146.681 380.544 151.906C380.484 156.861 379.997 158.28 377.766 159.997C374.696 162.362 374.267 165.786 376.739 168.197C379.323 170.718 378.293 176.161 375.062 177.06L372.357 177.813L375.399 180.168C378.17 182.314 378.376 182.987 377.711 187.729C377.309 190.592 376.567 193.54 376.062 194.279C375.556 195.018 374.417 198.737 373.53 202.543C369.388 220.305 366.049 228.687 361.949 231.617C360.182 232.88 357.529 235.837 356.052 238.189C352.982 243.079 345.337 249.508 342.594 249.508C341.576 249.508 338.85 251.025 336.536 252.878C334.125 254.809 330.71 256.302 328.541 256.374L324.754 256.501L325.034 250.262C325.187 246.83 325.865 243.241 326.54 242.285C328.544 239.448 326.743 238.905 323.731 241.438C321.379 243.415 321.036 244.467 321.567 248.076C322.075 251.528 321.6 253.264 319.133 256.975C312.03 267.661 309.758 272.441 311.055 273.966C311.747 274.778 312.313 276.779 312.313 278.413C312.313 280.729 311.222 281.931 307.355 283.879C302.103 286.524 297.193 287.102 295.489 285.274C294.908 284.65 288.823 284.712 281.479 285.417C274.339 286.102 265.332 286.795 261.464 286.957C251.733 287.364 252.191 287.201 248.355 291.607C246.46 293.785 243.4 296.326 241.556 297.254C239.712 298.183 236.134 301.264 233.604 304.101C231.05 306.965 227.921 309.269 226.572 309.28C223.543 309.304 222.099 310.408 220.538 313.894C218.404 318.66 221.681 320.046 234.078 319.623C239.579 319.435 239.696 319.35 240.029 315.299C240.363 311.222 240.44 311.169 245.777 311.292C249.063 311.367 251.504 310.791 251.994 309.823C252.523 308.779 254.263 308.46 257.036 308.897C259.945 309.356 262.053 308.92 263.772 307.505C265.148 306.373 267.597 305.446 269.214 305.446C270.832 305.446 272.477 304.835 272.87 304.087C273.263 303.34 275.361 302.862 277.532 303.026C279.703 303.189 283.081 302.892 285.04 302.365C287.387 301.734 289.152 301.946 290.221 302.989C291.618 304.35 291.237 305.233 287.472 309.358C283.589 313.613 281.348 318.312 284.184 316.253C284.779 315.82 285.266 316.143 285.266 316.969C285.266 318.088 285.679 318.068 286.889 316.888C287.781 316.018 288.511 314.331 288.511 313.14C288.511 310.093 293.445 304.96 295.489 305.881C297.365 306.728 297.823 313.719 296.085 314.981C295.489 315.413 295.003 318.143 295.003 321.047C295.003 325.283 295.591 326.881 297.978 329.123C300.743 331.72 301.004 331.759 301.674 329.664C302.071 328.424 303.736 326.171 305.373 324.657V324.657ZM263.942 316.888C264.442 314.641 263.975 314.346 259.921 314.346C254.349 314.346 253.085 315.493 256.332 317.604C260.127 320.07 263.3 319.772 263.942 316.888ZM379.389 133.02C379.389 132.031 380.51 130.621 381.88 129.888L384.37 128.555L380.798 124.104C378.824 121.645 377.226 118.303 377.226 116.637C377.226 111.039 385.085 107.38 388.06 111.593C389.269 113.304 389.842 113.232 393.123 110.958C396.978 108.285 403.095 107.552 404.868 109.552C405.433 110.189 408.816 112.497 412.387 114.68C415.957 116.863 419.744 119.344 420.802 120.195C423.187 122.112 424.396 120.248 425.43 113.058C425.922 109.635 427.551 106.452 430.778 102.605C434.736 97.8864 436.27 96.9461 441.212 96.206C447.099 95.3245 448.681 94.6266 452.255 91.3346C454.183 89.5589 454.153 89.3281 451.453 85.1682C449.91 82.7913 448.342 79.0514 447.969 76.8574C447.37 73.3396 447.035 73.0286 445.132 74.2253C443.945 74.9717 441.447 75.258 439.581 74.8616C437.715 74.4652 434.266 73.7624 431.917 73.2997C426.962 72.3236 415.201 62.7222 410.011 55.415C401.28 43.122 400.004 41.7056 398.867 43.0421C398.074 43.9734 398.218 45.7434 399.342 48.9042C401.405 54.7082 400.478 78.9913 398.153 80.0399C397.191 80.4738 396.699 82.9598 396.699 87.3959C396.699 91.2307 396.121 94.6402 395.347 95.3678C392.538 98.0088 389.079 98.3803 385.707 96.4033C383.834 95.3057 382.164 94.4077 381.996 94.4077C381.827 94.4077 381.969 96.4326 382.31 98.9075C382.805 102.488 382.421 104.046 380.431 106.535C379.056 108.256 377.296 109.664 376.521 109.664C375.746 109.664 374.3 111.119 373.308 112.899C371.568 116.02 371.607 116.26 374.422 119.713C377.086 122.981 377.276 123.862 376.6 129.851C375.951 135.596 376.078 136.311 377.624 135.614C378.595 135.176 379.389 134.009 379.389 133.02Z" fill="#BB002C"/>
<path d="M203.194 386.129C200.487 383.453 199.797 381.793 199.797 377.954C199.797 375.224 200.5 372.452 201.42 371.555C202.313 370.684 203.043 368.102 203.043 365.817C203.043 362.843 204.272 359.914 207.366 355.514C211.866 349.115 212.16 346.277 208.735 342.315C207.006 340.314 207.003 340.413 208.591 347.218C208.819 348.196 207.186 350.069 204.818 351.546C197.007 356.417 193.695 352.48 192.774 337.229C192.353 330.257 194.383 327.059 199.227 327.059C201.607 327.059 203.946 325.703 206.903 322.61C209.243 320.163 211.948 318.161 212.915 318.161C214.006 318.16 214.921 316.7 215.328 314.313C216.186 309.268 220.615 304.175 224.144 304.175C225.905 304.175 228.443 302.469 230.955 299.596C233.157 297.077 236.906 293.856 239.286 292.438C241.666 291.02 243.981 289.12 244.431 288.217C246.514 284.036 252.641 281.183 258.961 281.451C262.421 281.598 272.505 281.05 281.37 280.235C291.892 279.267 297.931 279.183 298.763 279.994C299.601 280.812 301.212 280.716 303.47 279.714C307.012 278.143 307.698 276.934 305.821 275.57C303.35 273.775 305.892 267.667 314.197 255.45C315.878 252.977 316.64 250.155 316.64 246.405C316.64 241.528 317.073 240.602 320.755 237.604C325.496 233.743 327.409 233.5 331.84 236.192C335.837 238.621 336.081 242.746 332.327 244.423C330.672 245.163 329.623 246.63 329.623 248.206C329.623 251.467 329.857 251.441 335.032 247.601C337.389 245.853 340.148 244.423 341.165 244.423C343.905 244.423 349.485 239.527 352.356 234.604C353.744 232.224 356.233 229.454 357.888 228.449C361.734 226.112 365.069 217.726 369.202 200C370.089 196.194 371.308 192.384 371.909 191.532C372.654 190.477 372.618 189.703 371.795 189.105C371.13 188.623 370.819 187.517 371.103 186.647C371.387 185.777 370.69 184.279 369.554 183.317C366.675 180.878 366.979 176.428 370.23 173.423C371.831 171.942 372.506 170.552 371.852 170.077C371.237 169.631 370.734 167.052 370.734 164.347C370.734 160.616 371.387 158.826 373.439 156.929C375.534 154.992 376.144 153.261 376.144 149.242C376.144 144.783 376.592 143.782 379.336 142.115C381.091 141.048 383.23 140.175 384.088 140.175C384.947 140.175 385.929 139.317 386.272 138.268C386.698 136.963 388.434 136.361 391.772 136.361C397.877 136.361 400.596 140.148 399.486 147.104C399.099 149.523 399.266 152.529 399.856 153.784C401.887 158.108 405.354 168.471 405.354 170.219C405.354 171.182 406.572 174.935 408.059 178.559C409.547 182.182 410.764 187.347 410.764 190.035C410.764 195.377 408.427 202.996 405.706 206.529C404.681 207.861 403.927 211.244 403.854 214.84L403.732 220.904L399.687 220.626C396.191 220.385 395.55 220.776 394.968 223.501C394.598 225.235 395.079 229.472 396.038 232.917C398.193 240.659 398.223 243.251 396.193 246.405C395.319 247.762 394.589 250.366 394.57 252.191C394.551 254.017 393.363 257.541 391.929 260.024L389.323 264.537L391.929 270.587C395.829 279.639 395.287 284.448 390.272 285.295C388.352 285.619 387.39 286.842 386.747 289.775C385.727 294.422 378.252 302.046 375.344 301.403C374.296 301.171 372.958 299.698 372.371 298.129C370.724 293.73 366.934 294.424 365.386 299.408C362.589 308.414 361.581 309.896 358.251 309.896C355.344 309.896 354.986 309.425 354.389 304.811C354.027 302.014 353.662 300.913 353.578 302.364C353.493 303.816 352.329 306.175 350.99 307.608C348.836 309.913 347.306 310.184 337.718 309.96C329.344 309.764 326.201 309.183 323.891 307.404C319.942 304.364 318.749 305.937 322.425 309.335C327.046 313.606 325.844 318.642 319.968 319.627C318.408 319.888 316.618 321.613 315.553 323.88C314.387 326.363 312.663 327.92 310.613 328.34C308.54 328.766 306.969 330.203 306.012 332.548C305.214 334.506 303.358 336.752 301.889 337.539C299.591 338.769 298.856 338.536 296.62 335.874C295.191 334.172 293.269 332.042 292.349 331.14C291.428 330.239 290.675 327.825 290.675 325.777C290.675 322.989 290.267 322.237 289.052 322.785C288.16 323.188 287.429 324.198 287.429 325.032C287.429 325.865 285.474 328.938 283.084 331.861C280.694 334.784 278.272 338.618 277.701 340.38C276.315 344.665 273.815 344.421 270.007 339.63L266.862 335.674L262.537 340.266C260.159 342.791 257.727 344.857 257.134 344.857C256.54 344.857 256.055 346.789 256.055 349.151C256.055 351.513 255.417 354.067 254.638 354.827C253.195 356.234 249.377 355.459 246.23 353.121C244.2 351.612 240.909 344.113 240.909 340.996C240.909 339.787 239.935 338.498 238.745 338.132C235.377 337.097 236.195 333.639 240.281 331.633C242.315 330.634 244.566 328.481 245.281 326.849C245.997 325.216 247.831 322.307 249.357 320.384C251.252 317.998 251.639 316.883 250.577 316.871C249.722 316.861 247.927 316.509 246.588 316.087C244.556 315.447 244.154 315.827 244.154 318.393C244.154 322.913 242.163 324.516 236.545 324.516C230.539 324.516 229.319 325.549 232.364 328.055C234.008 329.409 234.5 330.907 234.169 333.559C233.84 336.19 234.413 337.976 236.229 339.981C238.729 342.74 239.89 351.214 237.768 351.214C236.302 351.214 229.008 364.641 229.008 367.339C229.008 370.088 225.03 379.195 223.012 381.067C222.245 381.779 221.45 383.505 221.245 384.904C220.669 388.832 216.263 388.982 215.012 385.115C213.438 380.251 211.902 379.977 212.08 384.592C212.217 388.151 211.851 388.77 209.415 389.103C207.59 389.352 205.389 388.299 203.194 386.129V386.129ZM208.68 374.415C210.517 371.806 213.688 372.604 215.681 376.178L217.55 379.53L220.566 375.283C222.226 372.948 223.904 369.008 224.295 366.528C225.061 361.674 226.567 358.408 231.535 350.815L234.708 345.967L231.18 341.689C228.478 338.413 227.806 336.694 228.308 334.343C228.835 331.876 228.384 330.94 226.01 329.569C224.386 328.631 222.042 326.504 220.801 324.842C217.93 320.997 214.712 321.796 208.993 327.774C206.161 330.736 203.744 332.144 201.494 332.145C198.353 332.145 198.182 332.401 198.324 336.912C198.703 348.936 198.594 348.47 200.869 347.771C202.532 347.26 202.872 346.408 202.363 344.025C201.558 340.253 204.5 335.958 207.89 335.958C211.53 335.958 215.12 341.386 215.738 347.822C216.242 353.076 215.958 353.899 211.826 359.167C208.66 363.203 207.37 365.957 207.37 368.681C207.37 370.79 206.64 373.227 205.748 374.097C203.772 376.024 203.65 379.382 205.477 381.551C206.563 382.841 206.902 382.452 207.196 379.581C207.397 377.614 208.065 375.289 208.68 374.415V374.415ZM251.727 346.161C251.727 343.326 252.472 341.923 254.703 340.554C256.339 339.549 259.108 336.96 260.855 334.8C264.532 330.256 268.842 329.649 271.639 333.282C273.455 335.639 273.545 335.629 275.864 332.83C283.181 323.996 283.345 323.667 281.841 320.837C280.673 318.64 279.346 318.16 274.443 318.16C269.285 318.16 268.323 318.55 267.401 321.02C266.572 323.241 265.286 323.969 261.655 324.276C259.082 324.494 256.357 324.066 255.598 323.327C254.134 321.899 253.317 322.744 248.909 330.237C245.007 336.87 244.986 341.343 248.822 348.353C250.338 351.124 251.727 350.075 251.727 346.161H251.727ZM305.373 324.657C307.011 323.144 308.877 322.113 309.521 322.367C310.164 322.622 311.278 321.197 311.998 319.202C312.914 316.661 314.334 315.332 316.741 314.767L320.176 313.96L317.326 312.205C315.759 311.24 314.484 309.754 314.493 308.902C314.519 306.407 317.258 297.855 318.498 296.399C320.352 294.22 324.717 295.605 325.068 298.484C325.494 301.981 329.756 303.822 339.022 304.515C346.874 305.101 349.097 304.221 349.097 300.525C349.097 295.244 358.037 291.356 359.547 295.981C360.046 297.509 360.647 297.077 362.202 294.074C363.479 291.606 365.104 290.181 366.661 290.163C368.354 290.144 369.613 288.867 370.734 286.031C372.493 281.582 376.24 280.019 378.908 282.621C381.081 284.74 380.859 288.005 378.307 291.462C375.48 295.293 375.569 296.03 378.578 293.706C379.917 292.672 381.547 289.884 382.201 287.512C382.96 284.761 384.618 282.455 386.78 281.145L390.17 279.092L387.489 272.882C384.776 266.598 383.919 259.679 385.853 259.679C387.27 259.679 390.208 252.831 390.208 249.527C390.208 248.069 390.92 245.6 391.79 244.039C393.165 241.573 393.171 240.54 391.838 236.138C388.447 224.95 390.672 215.183 396.611 215.183C399.255 215.183 399.579 214.779 399.133 212.038C398.789 209.921 399.715 206.953 401.968 202.956C406.866 194.267 407.251 189.878 403.854 181.447C402.299 177.588 401.027 173.661 401.027 172.721C401.027 170.807 397.471 160.503 394.932 155.057C393.723 152.465 393.547 150.576 394.281 148.065C395.559 143.694 394.901 141.446 392.346 141.446C389.983 141.446 388.61 143.464 390.19 144.612C390.795 145.051 391.29 146.768 391.29 148.428C391.29 153.979 384.032 154.209 381.781 148.729C380.77 146.266 380.608 146.681 380.544 151.906C380.484 156.861 379.997 158.28 377.766 159.997C374.696 162.362 374.267 165.786 376.739 168.197C379.323 170.718 378.293 176.161 375.062 177.06L372.357 177.813L375.399 180.168C378.17 182.314 378.376 182.987 377.711 187.729C377.309 190.592 376.567 193.54 376.062 194.279C375.556 195.018 374.417 198.737 373.53 202.543C369.388 220.305 366.049 228.687 361.949 231.617C360.182 232.88 357.529 235.837 356.052 238.189C352.982 243.079 345.337 249.508 342.594 249.508C341.576 249.508 338.85 251.025 336.536 252.878C334.125 254.809 330.71 256.302 328.541 256.374L324.754 256.501L325.034 250.262C325.187 246.83 325.865 243.241 326.54 242.285C328.544 239.448 326.743 238.905 323.731 241.438C321.379 243.415 321.036 244.467 321.567 248.076C322.075 251.528 321.6 253.264 319.133 256.975C312.03 267.661 309.758 272.441 311.055 273.966C311.747 274.778 312.313 276.779 312.313 278.413C312.313 280.729 311.222 281.931 307.355 283.879C302.103 286.524 297.193 287.102 295.489 285.274C294.908 284.65 288.823 284.712 281.479 285.417C274.339 286.102 265.332 286.795 261.464 286.957C251.733 287.364 252.191 287.201 248.355 291.607C246.46 293.785 243.4 296.326 241.556 297.254C239.712 298.183 236.134 301.264 233.604 304.101C231.05 306.965 227.921 309.269 226.572 309.28C223.543 309.304 222.099 310.408 220.538 313.894C218.404 318.66 221.681 320.046 234.078 319.623C239.579 319.435 239.696 319.35 240.029 315.299C240.363 311.222 240.44 311.169 245.777 311.292C249.063 311.367 251.504 310.791 251.994 309.823C252.523 308.779 254.263 308.46 257.036 308.897C259.945 309.356 262.053 308.92 263.772 307.505C265.148 306.373 267.597 305.446 269.214 305.446C270.832 305.446 272.477 304.835 272.87 304.087C273.263 303.34 275.361 302.862 277.532 303.026C279.703 303.189 283.081 302.892 285.04 302.365C287.387 301.734 289.152 301.946 290.221 302.989C291.618 304.35 291.237 305.233 287.472 309.358C283.589 313.613 281.348 318.312 284.184 316.253C284.779 315.82 285.266 316.143 285.266 316.969C285.266 318.088 285.679 318.068 286.889 316.888C287.781 316.018 288.511 314.331 288.511 313.14C288.511 310.093 293.445 304.96 295.489 305.881C297.365 306.728 297.823 313.719 296.085 314.981C295.489 315.413 295.003 318.143 295.003 321.047C295.003 325.283 295.591 326.881 297.978 329.123C300.743 331.72 301.004 331.759 301.674 329.664C302.071 328.424 303.736 326.171 305.373 324.657V324.657ZM264.183 316.57C265.091 314.139 266.218 313.652 271.705 313.32C277.857 312.949 280.938 311.542 280.938 309.105C280.938 307.561 275.811 307.696 274.988 309.26C274.62 309.96 272.98 310.532 271.344 310.532C269.708 310.532 267.424 311.372 266.269 312.398C265.114 313.425 262.181 314.283 259.751 314.305C254.329 314.355 253.123 315.518 256.332 317.604C260.171 320.099 263.005 319.726 264.183 316.57V316.57ZM373.025 139.719C372.209 138.564 371.767 135.158 371.94 131.349C372.176 126.108 371.793 124.448 369.859 122.33C365.453 117.507 367.103 110.325 373.753 105.379C377.487 102.603 377.764 101.967 377.765 96.1773C377.766 90.0938 377.843 89.9495 381.273 89.5606C383.202 89.3419 385.814 90.0139 387.077 91.0538C390.859 94.1666 392.372 92.38 392.372 84.8C392.372 80.2178 392.878 77.6744 393.926 76.9852C395.978 75.6354 396.637 54.3511 394.751 50.3131C391.764 43.9182 394.711 37.1985 400.503 37.1985C402.702 37.1985 409.927 45.2459 415.075 53.4284C419.061 59.7627 429.214 67.5875 432.492 66.8511C434.205 66.4662 435.771 66.9899 436.657 68.2435C439.178 71.8127 442.46 70.503 446.28 64.4043C450.374 57.8662 452.292 56.5792 454.594 58.8243C456.836 61.0114 456.6 64.8085 453.978 68.7259C451.559 72.3399 451.787 75.871 454.787 81.2516C456.188 83.7653 457.108 84.2056 459.607 83.5605C464.271 82.3569 465.084 86.2847 460.983 90.2019C453.819 97.0439 448.417 100.473 443.522 101.285C435.862 102.555 431.687 107.317 429.373 117.426C427.613 125.115 427.324 125.576 424.032 125.951C421.62 126.226 418.634 125.049 414.305 122.12C410.87 119.794 406.224 116.763 403.981 115.382L399.903 112.873L395.326 115.721C390.007 119.032 387.731 119.276 385.934 116.731C385.223 115.724 383.949 115.212 383.104 115.593C381.853 116.157 381.982 116.972 383.797 119.967C385.024 121.992 386.698 123.648 387.517 123.648C388.336 123.648 390.331 124.988 391.952 126.626C395.963 130.681 394.881 133.819 389.471 133.819C386.461 133.819 384.855 134.634 383.216 136.994C380.452 140.977 374.952 142.447 373.025 139.719V139.719ZM379.389 133.02C379.389 132.031 380.51 130.621 381.88 129.888L384.37 128.555L380.798 124.104C378.824 121.645 377.226 118.303 377.226 116.637C377.226 111.039 385.085 107.38 388.06 111.593C389.269 113.304 389.842 113.232 393.123 110.958C396.978 108.285 403.095 107.552 404.868 109.552C405.433 110.189 408.816 112.497 412.387 114.68C415.957 116.863 419.744 119.344 420.802 120.195C423.187 122.112 424.396 120.248 425.43 113.058C425.922 109.635 427.551 106.452 430.778 102.605C434.736 97.8864 436.27 96.9461 441.212 96.206C447.099 95.3245 448.681 94.6266 452.255 91.3346C454.183 89.5589 454.153 89.3281 451.453 85.1682C449.91 82.7913 448.342 79.0514 447.969 76.8574C447.37 73.3396 447.035 73.0286 445.132 74.2253C443.945 74.9717 441.447 75.258 439.581 74.8616C437.715 74.4652 434.266 73.7624 431.917 73.2997C426.962 72.3236 415.201 62.7222 410.011 55.415C401.28 43.122 400.004 41.7056 398.867 43.0421C398.074 43.9734 398.218 45.7434 399.342 48.9042C401.405 54.7082 400.478 78.9913 398.153 80.0399C397.191 80.4738 396.699 82.9598 396.699 87.3959C396.699 91.2307 396.121 94.6402 395.347 95.3678C392.538 98.0088 389.079 98.3803 385.707 96.4033C383.834 95.3057 382.164 94.4077 381.996 94.4077C381.827 94.4077 381.969 96.4326 382.31 98.9075C382.805 102.488 382.421 104.046 380.431 106.535C379.056 108.256 377.296 109.664 376.521 109.664C375.746 109.664 374.3 111.119 373.308 112.899C371.568 116.02 371.607 116.26 374.422 119.713C377.086 122.981 377.276 123.862 376.6 129.851C375.951 135.596 376.078 136.311 377.624 135.614C378.595 135.176 379.389 134.009 379.389 133.02Z" fill="#BB002C"/>
</g>
<g clip-path="url(#clip1)">
<path d="M348.359 413.171C401.858 433.333 446.057 370.569 413.093 316.524L429.41 305.064L375.319 276.018L377.397 341.591L394.225 329.773C419.49 368.652 393.719 412.303 348.359 413.169L348.359 413.171Z" fill="#BB002C" stroke="#BB002C" stroke-width="7.7696"/>
<path opacity="0.69886" d="M359.032 415.313C406.573 424.452 440.261 364.672 409.878 315.129L423.82 305.099L379.324 280.674L380.429 336.319L394.678 326.068C420.531 365.35 399.362 406.46 359.032 415.314L359.032 415.313Z" stroke="url(#paint0_linear)" stroke-width="7.7696" stroke-miterlimit="10"/>
<path opacity="0.69886" d="M429.955 307.006L428.182 308.356L415.667 317.871C428.515 342.88 427.198 369.523 415.215 392.441C407.686 406.841 394.309 414.699 394.309 414.699C439.09 370.155 394.144 340.047 409.72 295.058L429.955 307.006Z" fill="url(#paint1_radial)"/>
</g>
<defs>
<linearGradient id="paint0_linear" x1="391.581" y1="370.308" x2="359.696" y2="385.604" gradientUnits="userSpaceOnUse">
<stop stop-color="white"/>
<stop offset="1" stop-color="white" stop-opacity="0"/>
</linearGradient>
<radialGradient id="paint1_radial" cx="0" cy="0" r="1" gradientUnits="userSpaceOnUse" gradientTransform="translate(422.051 351.303) rotate(-88.923) scale(197.69 20.051)">
<stop stop-color="white"/>
<stop offset="1" stop-color="white" stop-opacity="0"/>
</radialGradient>
<clipPath id="clip0">
<rect x="57.0135" width="542.986" height="424.95" fill="white"/>
</clipPath>
<clipPath id="clip1">
<rect width="145.859" height="79.0184" fill="white" transform="matrix(0.305251 -0.952272 -0.931858 -0.362823 407.571 437.857)"/>
</clipPath>
</defs>
</svg>
