<svg width="600" height="626" viewBox="0 0 600 626" fill="none" xmlns="http://www.w3.org/2000/svg">
<path d="M400 425.408C400 535.865 310.457 625.408 200 625.408C89.5431 625.408 0 535.865 0 425.408C0 314.951 89.5431 225.408 200 225.408C310.457 225.408 400 314.951 400 425.408Z" fill="white"/>
<path d="M141.923 408H125.579V450.408H115.715V408H99.3713V399.288H141.923V408ZM157.656 451.128C153.528 451.128 149.976 450.24 147 448.464C144.072 446.64 141.816 444.24 140.232 441.264C138.648 438.288 137.856 435.072 137.856 431.616C137.856 428.112 138.648 424.872 140.232 421.896C141.864 418.92 144.144 416.544 147.072 414.768C150.048 412.944 153.576 412.032 157.656 412.032C161.736 412.032 165.24 412.944 168.168 414.768C171.144 416.544 173.424 418.92 175.008 421.896C176.592 424.872 177.384 428.112 177.384 431.616C177.384 435.072 176.592 438.288 175.008 441.264C173.424 444.24 171.144 446.64 168.168 448.464C165.24 450.24 161.736 451.128 157.656 451.128ZM147.792 431.616C147.792 433.824 148.224 435.792 149.088 437.52C149.952 439.2 151.128 440.52 152.616 441.48C154.104 442.44 155.784 442.92 157.656 442.92C159.48 442.92 161.136 442.44 162.624 441.48C164.112 440.472 165.288 439.128 166.152 437.448C167.064 435.72 167.52 433.752 167.52 431.544C167.52 429.384 167.064 427.464 166.152 425.784C165.288 424.056 164.112 422.712 162.624 421.752C161.136 420.744 159.48 420.24 157.656 420.24C155.784 420.24 154.104 420.744 152.616 421.752C151.128 422.712 149.952 424.056 149.088 425.784C148.224 427.464 147.792 429.408 147.792 431.616ZM209.672 450.408L198.656 434.136L193.544 439.176V450.408H183.896V397.848H193.544V429.672L208.736 412.752H218.96L204.92 428.736L219.968 450.408H209.672ZM224.836 457.752C226.612 458.232 228.052 458.472 229.156 458.472C230.452 458.472 231.484 457.92 232.252 456.816C233.068 455.76 233.98 453.624 234.988 450.408L220.084 412.68H230.092L240.244 440.544L249.172 412.68H258.388L242.548 457.896C241.684 460.488 240.124 462.624 237.868 464.304C235.66 466.032 232.924 466.896 229.66 466.896C228.076 466.896 226.468 466.632 224.836 466.104V457.752ZM279.789 451.128C275.661 451.128 272.109 450.24 269.133 448.464C266.205 446.64 263.949 444.24 262.365 441.264C260.781 438.288 259.989 435.072 259.989 431.616C259.989 428.112 260.781 424.872 262.365 421.896C263.997 418.92 266.277 416.544 269.205 414.768C272.181 412.944 275.709 412.032 279.789 412.032C283.869 412.032 287.373 412.944 290.301 414.768C293.277 416.544 295.557 418.92 297.141 421.896C298.725 424.872 299.517 428.112 299.517 431.616C299.517 435.072 298.725 438.288 297.141 441.264C295.557 444.24 293.277 446.64 290.301 448.464C287.373 450.24 283.869 451.128 279.789 451.128ZM269.925 431.616C269.925 433.824 270.357 435.792 271.221 437.52C272.085 439.2 273.261 440.52 274.749 441.48C276.237 442.44 277.917 442.92 279.789 442.92C281.613 442.92 283.269 442.44 284.757 441.48C286.245 440.472 287.421 439.128 288.285 437.448C289.197 435.72 289.653 433.752 289.653 431.544C289.653 429.384 289.197 427.464 288.285 425.784C287.421 424.056 286.245 422.712 284.757 421.752C283.269 420.744 281.613 420.24 279.789 420.24C277.917 420.24 276.237 420.744 274.749 421.752C273.261 422.712 272.085 424.056 271.221 425.784C270.357 427.464 269.925 429.408 269.925 431.616Z" fill="white"/>
<path d="M141.923 408V409H142.923V408H141.923ZM125.579 408V407H124.579V408H125.579ZM125.579 450.408V451.408H126.579V450.408H125.579ZM115.715 450.408H114.715V451.408H115.715V450.408ZM115.715 408H116.715V407H115.715V408ZM99.3713 408H98.3713V409H99.3713V408ZM99.3713 399.288V398.288H98.3713V399.288H99.3713ZM141.923 399.288H142.923V398.288H141.923V399.288ZM141.923 407H125.579V409H141.923V407ZM124.579 408V450.408H126.579V408H124.579ZM125.579 449.408H115.715V451.408H125.579V449.408ZM116.715 450.408V408H114.715V450.408H116.715ZM115.715 407H99.3713V409H115.715V407ZM100.371 408V399.288H98.3713V408H100.371ZM99.3713 400.288H141.923V398.288H99.3713V400.288ZM140.923 399.288V408H142.923V399.288H140.923ZM147 448.464L146.471 449.313L146.479 449.318L146.487 449.323L147 448.464ZM140.232 441.264L139.349 441.734L140.232 441.264ZM140.232 421.896L139.355 421.416L139.349 421.427L140.232 421.896ZM147.072 414.768L147.59 415.623L147.594 415.621L147.072 414.768ZM168.168 414.768L167.639 415.617L167.647 415.622L167.655 415.627L168.168 414.768ZM175.008 441.264L175.891 441.734L175.891 441.734L175.008 441.264ZM168.168 448.464L168.686 449.319L168.69 449.317L168.168 448.464ZM149.088 437.52L148.193 437.968L148.199 437.978L149.088 437.52ZM152.616 441.48L153.158 440.64L153.158 440.64L152.616 441.48ZM162.624 441.48L163.166 442.321L163.175 442.315L163.185 442.308L162.624 441.48ZM166.152 437.448L165.267 436.982L165.263 436.991L166.152 437.448ZM166.152 425.784L165.257 426.232L165.265 426.247L165.273 426.262L166.152 425.784ZM162.624 421.752L162.063 422.58L162.072 422.587L162.082 422.593L162.624 421.752ZM152.616 421.752L153.158 422.593L153.167 422.587L153.177 422.58L152.616 421.752ZM149.088 425.784L149.977 426.242L149.982 426.232L149.088 425.784ZM157.656 450.128C153.674 450.128 150.306 449.273 147.512 447.606L146.487 449.323C149.646 451.208 153.382 452.128 157.656 452.128V450.128ZM147.529 447.616C144.746 445.882 142.614 443.612 141.115 440.795L139.349 441.734C141.018 444.869 143.397 447.399 146.471 449.313L147.529 447.616ZM141.115 440.795C139.61 437.967 138.856 434.913 138.856 431.616H136.856C136.856 435.232 137.686 438.61 139.349 441.734L141.115 440.795ZM138.856 431.616C138.856 428.27 139.611 425.192 141.115 422.366L139.349 421.427C137.685 424.553 136.856 427.955 136.856 431.616H138.856ZM141.109 422.377C142.655 419.557 144.811 417.309 147.59 415.623L146.553 413.913C143.476 415.78 141.072 418.284 139.355 421.416L141.109 422.377ZM147.594 415.621C150.388 413.909 153.729 413.032 157.656 413.032V411.032C153.423 411.032 149.707 411.98 146.549 413.916L147.594 415.621ZM157.656 413.032C161.584 413.032 164.897 413.909 167.639 415.617L168.697 413.92C165.583 411.98 161.888 411.032 157.656 411.032V413.032ZM167.655 415.627C170.479 417.312 172.629 419.556 174.125 422.366L175.891 421.427C174.218 418.285 171.808 415.776 168.68 413.91L167.655 415.627ZM174.125 422.366C175.629 425.192 176.384 428.27 176.384 431.616H178.384C178.384 427.955 177.555 424.553 175.891 421.427L174.125 422.366ZM176.384 431.616C176.384 434.913 175.63 437.967 174.125 440.795L175.891 441.734C177.554 438.61 178.384 435.232 178.384 431.616H176.384ZM174.125 440.795C172.628 443.607 170.475 445.878 167.645 447.612L168.69 449.317C171.813 447.403 174.22 444.873 175.891 441.734L174.125 440.795ZM167.649 447.609C164.905 449.274 161.588 450.128 157.656 450.128V452.128C161.883 452.128 165.574 451.207 168.686 449.319L167.649 447.609ZM146.792 431.616C146.792 433.957 147.251 436.082 148.193 437.968L149.982 437.073C149.197 435.503 148.792 433.691 148.792 431.616H146.792ZM148.199 437.978C149.137 439.803 150.429 441.259 152.074 442.321L153.158 440.64C151.827 439.782 150.767 438.598 149.977 437.063L148.199 437.978ZM152.074 442.321C153.733 443.391 155.603 443.92 157.656 443.92V441.92C155.965 441.92 154.475 441.49 153.158 440.64L152.074 442.321ZM157.656 443.92C159.666 443.92 161.511 443.388 163.166 442.321L162.082 440.64C160.76 441.493 159.294 441.92 157.656 441.92V443.92ZM163.185 442.308C164.819 441.201 166.105 439.727 167.041 437.906L165.263 436.991C164.471 438.53 163.405 439.743 162.063 440.653L163.185 442.308ZM167.036 437.915C168.034 436.026 168.52 433.894 168.52 431.544H166.52C166.52 433.611 166.094 435.415 165.267 436.982L167.036 437.915ZM168.52 431.544C168.52 429.24 168.032 427.152 167.031 425.307L165.273 426.262C166.096 427.777 166.52 429.529 166.52 431.544H168.52ZM167.046 425.337C166.11 423.464 164.818 421.978 163.166 420.912L162.082 422.593C163.406 423.447 164.466 424.649 165.257 426.232L167.046 425.337ZM163.185 420.925C161.529 419.803 159.677 419.24 157.656 419.24V421.24C159.283 421.24 160.743 421.686 162.063 422.58L163.185 420.925ZM157.656 419.24C155.593 419.24 153.716 419.8 152.055 420.925L153.177 422.58C154.492 421.689 155.975 421.24 157.656 421.24V419.24ZM152.074 420.912C150.422 421.978 149.13 423.464 148.193 425.337L149.982 426.232C150.774 424.649 151.834 423.447 153.158 422.593L152.074 420.912ZM148.199 425.327C147.25 427.171 146.792 429.276 146.792 431.616H148.792C148.792 429.541 149.197 427.758 149.977 426.242L148.199 425.327ZM209.672 450.408L208.844 450.969L209.141 451.408H209.672V450.408ZM198.656 434.136L199.484 433.576L198.81 432.58L197.954 433.424L198.656 434.136ZM193.544 439.176L192.842 438.464L192.544 438.758V439.176H193.544ZM193.544 450.408V451.408H194.544V450.408H193.544ZM183.896 450.408H182.896V451.408H183.896V450.408ZM183.896 397.848V396.848H182.896V397.848H183.896ZM193.544 397.848H194.544V396.848H193.544V397.848ZM193.544 429.672H192.544V432.283L194.288 430.341L193.544 429.672ZM208.736 412.752V411.752H208.29L207.992 412.084L208.736 412.752ZM218.96 412.752L219.711 413.412L221.169 411.752H218.96V412.752ZM204.92 428.736L204.169 428.077L203.652 428.664L204.099 429.307L204.92 428.736ZM219.968 450.408V451.408H221.88L220.789 449.838L219.968 450.408ZM210.5 449.848L199.484 433.576L197.828 434.697L208.844 450.969L210.5 449.848ZM197.954 433.424L192.842 438.464L194.246 439.889L199.358 434.849L197.954 433.424ZM192.544 439.176V450.408H194.544V439.176H192.544ZM193.544 449.408H183.896V451.408H193.544V449.408ZM184.896 450.408V397.848H182.896V450.408H184.896ZM183.896 398.848H193.544V396.848H183.896V398.848ZM192.544 397.848V429.672H194.544V397.848H192.544ZM194.288 430.341L209.48 413.421L207.992 412.084L192.8 429.004L194.288 430.341ZM208.736 413.752H218.96V411.752H208.736V413.752ZM218.209 412.093L204.169 428.077L205.671 429.396L219.711 413.412L218.209 412.093ZM204.099 429.307L219.147 450.979L220.789 449.838L205.741 428.166L204.099 429.307ZM219.968 449.408H209.672V451.408H219.968V449.408ZM224.836 457.752L225.097 456.787L223.836 456.446V457.752H224.836ZM232.252 456.816L231.461 456.205L231.446 456.225L231.431 456.245L232.252 456.816ZM234.988 450.408L235.943 450.708L236.048 450.37L235.918 450.041L234.988 450.408ZM220.084 412.68V411.68H218.614L219.154 413.048L220.084 412.68ZM230.092 412.68L231.032 412.338L230.792 411.68H230.092V412.68ZM240.244 440.544L239.305 440.887L240.305 443.632L241.197 440.85L240.244 440.544ZM249.172 412.68V411.68H248.443L248.22 412.375L249.172 412.68ZM258.388 412.68L259.332 413.011L259.798 411.68H258.388V412.68ZM242.548 457.896L241.605 457.566L241.602 457.573L241.6 457.58L242.548 457.896ZM237.868 464.304L237.271 463.502L237.261 463.51L237.252 463.517L237.868 464.304ZM224.836 466.104H223.836V466.832L224.529 467.056L224.836 466.104ZM224.575 458.718C226.388 459.208 227.925 459.472 229.156 459.472V457.472C228.179 457.472 226.837 457.257 225.097 456.787L224.575 458.718ZM229.156 459.472C230.794 459.472 232.127 458.748 233.073 457.388L231.431 456.245C230.842 457.093 230.111 457.472 229.156 457.472V459.472ZM233.044 457.428C233.982 456.213 234.937 453.915 235.943 450.708L234.034 450.109C233.023 453.334 232.155 455.308 231.461 456.205L233.044 457.428ZM235.918 450.041L221.014 412.313L219.154 413.048L234.058 450.776L235.918 450.041ZM220.084 413.68H230.092V411.68H220.084V413.68ZM229.153 413.023L239.305 440.887L241.184 440.202L231.032 412.338L229.153 413.023ZM241.197 440.85L250.125 412.986L248.22 412.375L239.292 440.239L241.197 440.85ZM249.172 413.68H258.388V411.68H249.172V413.68ZM257.445 412.35L241.605 457.566L243.492 458.227L259.332 413.011L257.445 412.35ZM241.6 457.58C240.802 459.972 239.368 461.941 237.271 463.502L238.466 465.106C240.881 463.308 242.566 461.005 243.497 458.213L241.6 457.58ZM237.252 463.517C235.248 465.085 232.739 465.896 229.66 465.896V467.896C233.109 467.896 236.073 466.98 238.485 465.092L237.252 463.517ZM229.66 465.896C228.189 465.896 226.685 465.651 225.144 465.153L224.529 467.056C226.252 467.613 227.964 467.896 229.66 467.896V465.896ZM225.836 466.104V457.752H223.836V466.104H225.836ZM269.133 448.464L268.604 449.313L268.612 449.318L268.62 449.323L269.133 448.464ZM262.365 441.264L261.482 441.734L262.365 441.264ZM262.365 421.896L261.488 421.416L261.482 421.427L262.365 421.896ZM269.205 414.768L269.723 415.623L269.727 415.621L269.205 414.768ZM290.301 414.768L289.772 415.617L289.78 415.622L289.788 415.627L290.301 414.768ZM297.141 441.264L298.023 441.734L298.023 441.734L297.141 441.264ZM290.301 448.464L290.819 449.319L290.823 449.317L290.301 448.464ZM271.221 437.52L270.326 437.968L270.331 437.978L271.221 437.52ZM274.749 441.48L275.291 440.64L275.291 440.64L274.749 441.48ZM284.757 441.48L285.299 442.321L285.308 442.315L285.318 442.308L284.757 441.48ZM288.285 437.448L287.4 436.982L287.395 436.991L288.285 437.448ZM288.285 425.784L287.39 426.232L287.398 426.247L287.406 426.262L288.285 425.784ZM284.757 421.752L284.196 422.58L284.205 422.587L284.215 422.593L284.757 421.752ZM274.749 421.752L275.291 422.593L275.3 422.587L275.31 422.58L274.749 421.752ZM271.221 425.784L272.11 426.242L272.115 426.232L271.221 425.784ZM279.789 450.128C275.806 450.128 272.439 449.273 269.645 447.606L268.62 449.323C271.778 451.208 275.515 452.128 279.789 452.128V450.128ZM269.661 447.616C266.879 445.882 264.747 443.612 263.247 440.795L261.482 441.734C263.151 444.869 265.53 447.399 268.604 449.313L269.661 447.616ZM263.247 440.795C261.742 437.967 260.989 434.913 260.989 431.616H258.989C258.989 435.232 259.819 438.61 261.482 441.734L263.247 440.795ZM260.989 431.616C260.989 428.27 261.743 425.192 263.247 422.366L261.482 421.427C259.818 424.553 258.989 427.955 258.989 431.616H260.989ZM263.241 422.377C264.788 419.557 266.944 417.309 269.723 415.623L268.686 413.913C265.609 415.78 263.205 418.284 261.488 421.416L263.241 422.377ZM269.727 415.621C272.521 413.909 275.861 413.032 279.789 413.032V411.032C275.556 411.032 271.84 411.98 268.682 413.916L269.727 415.621ZM279.789 413.032C283.716 413.032 287.03 413.909 289.772 415.617L290.829 413.92C287.716 411.98 284.021 411.032 279.789 411.032V413.032ZM289.788 415.627C292.612 417.312 294.762 419.556 296.258 422.366L298.023 421.427C296.351 418.285 293.941 415.776 290.813 413.91L289.788 415.627ZM296.258 422.366C297.762 425.192 298.517 428.27 298.517 431.616H300.517C300.517 427.955 299.687 424.553 298.023 421.427L296.258 422.366ZM298.517 431.616C298.517 434.913 297.763 437.967 296.258 440.795L298.023 441.734C299.686 438.61 300.517 435.232 300.517 431.616H298.517ZM296.258 440.795C294.761 443.607 292.608 445.878 289.778 447.612L290.823 449.317C293.946 447.403 296.353 444.873 298.023 441.734L296.258 440.795ZM289.782 447.609C287.038 449.274 283.721 450.128 279.789 450.128V452.128C284.016 452.128 287.707 451.207 290.819 449.319L289.782 447.609ZM268.925 431.616C268.925 433.957 269.383 436.082 270.326 437.968L272.115 437.073C271.33 435.503 270.925 433.691 270.925 431.616H268.925ZM270.331 437.978C271.27 439.803 272.561 441.259 274.207 442.321L275.291 440.64C273.96 439.782 272.899 438.598 272.11 437.063L270.331 437.978ZM274.207 442.321C275.866 443.391 277.736 443.92 279.789 443.92V441.92C278.097 441.92 276.608 441.49 275.291 440.64L274.207 442.321ZM279.789 443.92C281.799 443.92 283.644 443.388 285.299 442.321L284.215 440.64C282.893 441.493 281.426 441.92 279.789 441.92V443.92ZM285.318 442.308C286.951 441.201 288.237 439.727 289.174 437.906L287.395 436.991C286.604 438.53 285.538 439.743 284.196 440.653L285.318 442.308ZM289.169 437.915C290.166 436.026 290.653 433.894 290.653 431.544H288.653C288.653 433.611 288.227 435.415 287.4 436.982L289.169 437.915ZM290.653 431.544C290.653 429.24 290.165 427.152 289.164 425.307L287.406 426.262C288.228 427.777 288.653 429.529 288.653 431.544H290.653ZM289.179 425.337C288.242 423.464 286.951 421.978 285.299 420.912L284.215 422.593C285.538 423.447 286.599 424.649 287.39 426.232L289.179 425.337ZM285.318 420.925C283.661 419.803 281.809 419.24 279.789 419.24V421.24C281.416 421.24 282.876 421.686 284.196 422.58L285.318 420.925ZM279.789 419.24C277.726 419.24 275.848 419.8 274.188 420.925L275.31 422.58C276.625 421.689 278.108 421.24 279.789 421.24V419.24ZM274.207 420.912C272.554 421.978 271.263 423.464 270.326 425.337L272.115 426.232C272.906 424.649 273.967 423.447 275.291 422.593L274.207 420.912ZM270.331 425.327C269.383 427.171 268.925 429.276 268.925 431.616H270.925C270.925 429.541 271.33 427.758 272.11 426.242L270.331 425.327Z" fill="black"/>
<path d="M203.194 362.507C200.487 359.994 199.797 358.436 199.797 354.832C199.797 352.269 200.5 349.667 201.42 348.824C202.313 348.007 203.043 345.575 203.043 343.42C203.043 340.69 204.191 337.986 206.829 334.502C210.995 329.002 211.755 323.89 208.806 321.221C207.207 319.774 207.065 319.862 207.592 321.97C207.92 323.283 208.37 325.086 208.591 325.976C208.819 326.895 207.186 328.653 204.818 330.04C197.007 334.613 193.695 330.916 192.774 316.599C192.353 310.053 194.383 307.05 199.227 307.05C201.607 307.05 203.946 305.778 206.903 302.874C209.243 300.577 211.948 298.697 212.915 298.697C214.006 298.696 214.921 297.325 215.328 295.085C216.186 290.348 220.615 285.567 224.144 285.567C225.905 285.567 228.444 283.965 230.955 281.27C233.157 278.907 236.419 276.153 238.204 275.151C239.989 274.148 241.584 273.203 241.749 273.05C241.913 272.897 240.261 269.877 238.077 266.339C232.725 257.669 227.545 245.177 223.978 232.335C221.231 222.445 221.027 220.23 221.027 200.228C221.027 180.259 221.235 177.988 223.977 168.003C235.487 126.087 264.219 95.289 302.06 84.3056C311.155 81.6657 315.237 81.1628 328 81.1091C344.838 81.0383 355.995 83.3338 369.71 89.691L377.11 93.1213L377.438 88.7881C377.735 84.8635 378.097 84.4197 381.273 84.0816C383.202 83.8763 385.814 84.5072 387.077 85.4835C390.859 88.4059 392.372 86.7285 392.372 79.6123C392.372 75.3104 392.878 72.9226 393.926 72.2755C395.978 71.0083 396.637 51.0261 394.751 47.2351C391.764 41.2315 394.711 34.9229 400.503 34.9229C402.702 34.9229 409.927 42.478 415.075 50.1599C419.061 56.1067 429.214 63.4527 432.492 62.7614C434.205 62.4001 435.771 62.8917 436.657 64.0687C439.178 67.4195 442.46 66.1899 446.28 60.4643C450.374 54.3262 452.292 53.1179 454.594 55.2257C456.836 57.279 456.6 60.8437 453.978 64.5215C451.559 67.9145 451.787 71.2295 454.787 76.2809C456.188 78.6408 457.108 79.0543 459.607 78.4486C464.271 77.3187 465.084 81.0062 460.983 84.6837C453.819 91.1071 448.417 94.3261 443.522 95.0884C435.862 96.2813 431.687 100.752 429.373 110.242C427.606 117.493 427.336 117.893 423.978 118.25C421.863 118.476 419.043 117.695 416.956 116.308C405.46 108.664 397.781 104.913 397.781 106.941C397.781 107.164 401.378 111.432 405.773 116.425C419.201 131.677 427.163 146.758 433.14 168.261C435.845 177.99 436.054 180.291 436.054 200.228C436.054 220.166 435.845 222.467 433.14 232.196C427.745 251.605 421.286 264.63 409.675 279.512C387.683 307.702 349.639 323.802 316.604 318.898C310.971 318.062 304.613 317.337 302.474 317.287C300.336 317.237 297.9 316.569 297.062 315.803C296.224 315.037 293.105 313.358 290.131 312.073L284.725 309.736L281.749 313.092C280.112 314.938 278.298 317.825 277.718 319.508C276.316 323.578 273.829 323.367 270.007 318.853L266.862 315.139L262.537 319.45C260.159 321.82 257.727 323.76 257.134 323.76C256.54 323.76 256.055 325.574 256.055 327.791C256.055 330.009 255.417 332.406 254.638 333.12C253.195 334.441 249.377 333.714 246.23 331.518C244.2 330.102 240.909 323.062 240.909 320.135C240.909 319 239.935 317.79 238.745 317.447C235.377 316.475 236.195 313.228 240.281 311.345C242.315 310.407 244.566 308.386 245.281 306.853C245.997 305.321 247.831 302.59 249.357 300.784C251.252 298.544 251.639 297.497 250.577 297.486C249.722 297.476 247.927 297.146 246.588 296.75C244.556 296.149 244.154 296.506 244.154 298.915C244.154 303.159 242.163 304.663 236.545 304.663C230.539 304.663 229.319 305.633 232.364 307.986C234.008 309.257 234.5 310.664 234.169 313.153C233.84 315.623 234.413 317.3 236.229 319.182C238.729 321.773 239.89 329.728 237.768 329.728C236.302 329.728 229.008 342.334 229.008 344.867C229.008 347.483 225.081 356.066 223.088 357.806C222.318 358.479 221.504 360.09 221.279 361.386C220.647 365.041 216.254 365.159 215.012 361.555C213.438 356.989 211.902 356.731 212.08 361.064C212.217 364.405 211.851 364.987 209.415 365.299C207.59 365.533 205.389 364.545 203.194 362.507ZM208.68 351.51C210.517 349.06 213.688 349.81 215.681 353.165L217.55 356.311L220.566 352.325C222.226 350.132 223.904 346.433 224.295 344.105C225.061 339.548 226.567 336.482 231.535 329.353L234.708 324.802L231.18 320.786C228.478 317.71 227.806 316.096 228.308 313.889C228.835 311.573 228.384 310.694 226.01 309.407C224.386 308.527 222.042 306.53 220.801 304.969C217.93 301.359 214.712 302.109 208.993 307.722C206.161 310.503 203.744 311.825 201.494 311.825C198.353 311.826 198.182 312.066 198.324 316.301C198.703 327.589 198.594 327.152 200.869 326.496C202.532 326.016 202.872 325.216 202.363 322.979C201.558 319.437 204.5 315.405 207.89 315.405C211.53 315.405 215.12 320.501 215.738 326.543C216.242 331.476 215.958 332.249 211.826 337.195C208.66 340.984 207.37 343.569 207.37 346.126C207.37 348.106 206.64 350.394 205.748 351.212C203.772 353.02 203.65 356.173 205.477 358.21C206.563 359.42 206.902 359.055 207.196 356.36C207.397 354.513 208.065 352.331 208.68 351.51ZM251.727 324.984C251.727 322.323 252.472 321.005 254.703 319.72C256.339 318.777 259.108 316.346 260.855 314.318C264.532 310.053 268.842 309.483 271.639 312.893C273.455 315.106 273.545 315.097 275.864 312.468C283.181 304.175 283.345 303.866 281.841 301.209C280.673 299.146 279.346 298.696 274.443 298.696C269.285 298.696 268.323 299.063 267.401 301.381C266.572 303.466 265.286 304.15 261.655 304.438C259.082 304.642 256.357 304.241 255.598 303.547C254.134 302.207 253.317 302.999 248.909 310.034C245.007 316.261 244.986 320.461 248.822 327.042C250.338 329.643 251.727 328.659 251.727 324.984H251.727ZM305.373 304.796C307.011 303.375 308.877 302.407 309.521 302.646C310.164 302.885 311.278 301.548 311.998 299.675C312.914 297.289 314.334 296.042 316.741 295.511L320.176 294.753L317.326 293.105C315.759 292.199 314.484 290.804 314.493 290.004C314.519 287.662 317.258 279.634 318.498 278.266C320.352 276.22 324.717 277.521 325.068 280.224C325.494 283.506 329.756 285.235 339.022 285.885C346.874 286.436 349.097 285.61 349.097 282.14C349.097 277.182 358.037 273.532 359.547 277.874C360.046 279.309 360.647 278.903 362.202 276.083C363.479 273.766 365.104 272.428 366.661 272.412C368.354 272.394 369.613 271.195 370.734 268.533C371.752 266.115 373.286 264.534 374.851 264.29C379.81 263.514 382.28 269.079 378.72 273.006C377.756 274.069 377.258 275.258 377.611 275.649C378.763 276.919 381.541 273.423 382.416 269.602C382.984 267.125 384.429 265.226 386.721 263.946L390.17 262.018L387.489 256.188C384.776 250.289 383.919 243.793 385.853 243.793C387.27 243.793 390.208 237.364 390.208 234.262C390.208 232.893 390.92 230.575 391.79 229.11C393.165 226.794 393.171 225.824 391.838 221.692C388.447 211.189 390.672 202.019 396.611 202.019C399.255 202.019 399.579 201.64 399.133 199.066C398.789 197.078 399.715 194.292 401.968 190.54C406.866 182.382 407.251 178.262 403.854 170.347C402.299 166.724 401.027 163.037 401.027 162.154C401.027 160.358 397.471 150.684 394.932 145.571C393.723 143.138 393.547 141.364 394.281 139.007C395.559 134.903 394.901 132.793 392.346 132.793C389.983 132.793 388.61 134.687 390.19 135.765C390.795 136.177 391.29 137.79 391.29 139.348C391.29 144.559 384.032 144.775 381.781 139.63C380.77 137.318 380.608 137.707 380.544 142.613C380.484 147.265 379.997 148.597 377.766 150.209C374.696 152.429 374.267 155.644 376.739 157.908C379.323 160.274 378.293 165.384 375.062 166.228L372.357 166.935L375.399 169.146C378.17 171.161 378.376 171.792 377.711 176.245C377.309 178.933 376.567 181.7 376.062 182.394C375.556 183.088 374.417 186.579 373.53 190.152C369.388 206.827 366.049 214.697 361.949 217.448C360.182 218.633 357.529 221.41 356.052 223.618C352.982 228.208 345.337 234.244 342.594 234.244C341.576 234.244 338.85 235.668 336.536 237.408C334.125 239.22 330.71 240.622 328.541 240.69L324.754 240.809L325.034 234.952C325.187 231.73 325.865 228.36 326.54 227.463C328.544 224.8 326.743 224.29 323.731 226.667C321.379 228.524 321.036 229.511 321.567 232.899C322.075 236.14 321.6 237.77 319.133 241.254C312.03 251.287 309.758 255.774 311.055 257.206C311.747 257.968 312.313 259.847 312.313 261.38C312.313 263.555 311.222 264.683 307.355 266.512C302.103 268.996 297.193 269.538 295.489 267.822C294.908 267.236 288.823 267.294 281.479 267.956C274.339 268.6 265.332 269.25 261.464 269.402C251.733 269.784 252.191 269.632 248.355 273.768C246.46 275.812 243.4 278.198 241.556 279.069C239.712 279.941 236.134 282.834 233.604 285.497C231.05 288.186 227.922 290.349 226.572 290.359C223.543 290.382 222.099 291.419 220.538 294.691C218.404 299.165 221.681 300.467 234.078 300.069C239.579 299.893 239.696 299.813 240.029 296.01C240.363 292.183 240.44 292.133 245.777 292.248C249.063 292.319 251.504 291.778 251.994 290.869C252.523 289.889 254.263 289.59 257.036 290C259.945 290.43 262.053 290.022 263.772 288.693C265.148 287.63 267.597 286.76 269.214 286.76C270.832 286.76 272.477 286.186 272.87 285.484C273.263 284.782 275.361 284.334 277.532 284.488C279.703 284.641 283.081 284.362 285.04 283.868C287.387 283.275 289.152 283.474 290.221 284.453C291.618 285.731 291.237 286.56 287.472 290.433C283.589 294.428 281.348 298.839 284.184 296.905C284.779 296.5 285.266 296.802 285.266 297.578C285.266 298.629 285.679 298.609 286.889 297.502C287.781 296.685 288.511 295.102 288.511 293.983C288.511 291.123 293.445 286.304 295.489 287.169C297.365 287.963 297.823 294.526 296.085 295.712C295.489 296.118 295.003 298.68 295.003 301.407C295.003 305.383 295.591 306.883 297.978 308.988C300.743 311.427 301.004 311.463 301.674 309.496C302.071 308.332 303.736 306.217 305.373 304.796V304.796ZM263.628 297.502C263.628 295.53 262.907 295.115 259.481 295.115C254.322 295.115 253.164 296.24 256.332 298.174C260.266 300.574 263.628 300.265 263.628 297.502ZM379.389 124.882C379.389 123.953 380.51 122.631 381.88 121.942L384.37 120.69L380.798 116.512C378.824 114.204 377.226 111.066 377.226 109.502C377.226 104.246 385.085 100.811 388.06 104.766C389.269 106.373 389.842 106.305 393.123 104.17C396.978 101.66 403.095 100.973 404.868 102.85C405.433 103.448 408.816 105.615 412.387 107.664C415.957 109.713 419.744 112.043 420.802 112.842C423.187 114.641 424.396 112.892 425.43 106.141C425.922 102.928 427.551 99.9394 430.778 96.3281C434.736 91.8981 436.27 91.0154 441.212 90.3205C447.099 89.4929 448.681 88.8377 452.255 85.7471C454.183 84.0801 454.153 83.8633 451.453 79.958C449.91 77.7265 448.342 74.2154 447.969 72.1556C447.37 68.853 447.035 68.561 445.132 69.6845C443.945 70.3852 441.447 70.6541 439.581 70.2819C437.715 69.9097 434.266 69.2499 431.917 68.8156C426.962 67.8992 415.201 58.8851 410.011 52.0249C401.28 40.484 400.004 39.1543 398.867 40.4089C398.074 41.2833 398.218 42.945 399.342 45.9124C401.405 51.3614 400.478 74.159 398.153 75.1434C397.191 75.5507 396.699 77.8847 396.699 82.0493C396.699 85.6496 396.121 88.8505 395.347 89.5336C392.538 92.013 389.079 92.3618 385.707 90.5057C383.834 89.4753 382.164 88.6323 381.996 88.6323C381.827 88.6323 381.969 90.5333 382.31 92.8567C382.805 96.2184 382.421 97.6811 380.431 100.018C379.056 101.633 377.296 102.955 376.521 102.955C375.746 102.955 374.3 104.321 373.308 105.992C371.568 108.922 371.607 109.148 374.422 112.389C377.086 115.457 377.276 116.285 376.6 121.907C375.951 127.301 376.078 127.972 377.624 127.317C378.595 126.906 379.389 125.811 379.389 124.882Z" fill="#EBB8C4"/>
<path d="M203.194 362.507C200.487 359.994 199.797 358.436 199.797 354.832C199.797 352.269 200.5 349.667 201.42 348.824C202.313 348.007 203.043 345.575 203.043 343.42C203.043 340.69 204.191 337.986 206.829 334.502C210.995 329.002 211.755 323.89 208.806 321.221C207.207 319.774 207.065 319.862 207.592 321.97C207.92 323.283 208.37 325.086 208.591 325.976C208.819 326.895 207.186 328.653 204.818 330.04C197.007 334.613 193.695 330.916 192.774 316.599C192.353 310.053 194.383 307.05 199.227 307.05C201.607 307.05 203.946 305.778 206.903 302.874C209.243 300.577 211.948 298.697 212.915 298.697C214.006 298.696 214.921 297.325 215.328 295.085C216.186 290.348 220.615 285.567 224.144 285.567C225.905 285.567 228.444 283.965 230.955 281.27C233.157 278.907 236.419 276.153 238.204 275.151C239.989 274.148 241.618 273.165 241.824 272.967C242.03 272.768 240.644 270.112 238.744 267.065C233.445 258.569 226.19 240.741 223.445 229.47C221.357 220.9 220.974 216.36 220.974 200.228C220.974 177.8 222.861 167.983 230.691 149.68C239.44 129.229 252.141 113.114 269.478 100.466C299.029 78.907 334.904 75.0213 369.11 89.6744L377.111 93.1022L377.439 88.7785C377.735 84.8646 378.099 84.4195 381.273 84.0816C383.202 83.8763 385.814 84.5072 387.077 85.4835C390.859 88.4059 392.372 86.7285 392.372 79.6123C392.372 75.3104 392.878 72.9226 393.926 72.2755C395.978 71.0083 396.637 51.0261 394.751 47.2351C391.764 41.2315 394.711 34.9229 400.503 34.9229C402.702 34.9229 409.927 42.478 415.075 50.1599C419.061 56.1067 429.214 63.4527 432.492 62.7614C434.205 62.4001 435.771 62.8917 436.657 64.0687C439.178 67.4195 442.46 66.1899 446.28 60.4643C450.374 54.3262 452.292 53.1179 454.594 55.2257C456.836 57.279 456.6 60.8437 453.978 64.5215C451.559 67.9145 451.787 71.2295 454.787 76.2809C456.188 78.6408 457.108 79.0543 459.607 78.4486C464.271 77.3187 465.084 81.0062 460.983 84.6837C453.819 91.1071 448.417 94.3261 443.522 95.0884C435.862 96.2813 431.687 100.752 429.373 110.242C427.606 117.493 427.336 117.893 423.978 118.25C421.863 118.476 419.043 117.695 416.956 116.308C404.434 107.981 397.772 104.896 397.786 107.431C397.789 107.923 401.002 111.817 404.927 116.084C414.336 126.314 420.566 136.065 426.391 149.68C434.221 167.983 436.108 177.8 436.108 200.228C436.108 222.996 434.19 232.711 425.973 251.551C419.694 265.948 415.407 272.646 405.083 284.193C382.214 309.769 349.809 322.61 317.993 318.704C312.191 317.992 305.427 317.361 302.962 317.302C300.496 317.244 297.575 316.353 296.47 315.322C295.366 314.292 292.338 312.566 289.741 311.486L285.021 309.524L281.906 312.961C280.192 314.851 278.312 317.786 277.727 319.482C276.316 323.577 273.836 323.375 270.007 318.853L266.862 315.139L262.537 319.45C260.159 321.82 257.727 323.76 257.134 323.76C256.54 323.76 256.055 325.574 256.055 327.791C256.055 330.009 255.417 332.406 254.638 333.12C253.195 334.441 249.377 333.714 246.23 331.518C244.2 330.102 240.909 323.062 240.909 320.135C240.909 319 239.935 317.79 238.745 317.447C235.377 316.475 236.195 313.228 240.281 311.345C242.315 310.407 244.566 308.386 245.281 306.853C245.997 305.321 247.831 302.59 249.357 300.784C251.252 298.544 251.639 297.497 250.577 297.486C249.722 297.476 247.927 297.146 246.588 296.75C244.556 296.149 244.154 296.506 244.154 298.915C244.154 303.159 242.163 304.663 236.545 304.663C230.539 304.663 229.319 305.633 232.364 307.986C234.008 309.257 234.5 310.664 234.169 313.153C233.84 315.623 234.413 317.3 236.229 319.182C238.729 321.773 239.89 329.728 237.768 329.728C236.302 329.728 229.008 342.334 229.008 344.867C229.008 347.483 225.081 356.066 223.088 357.806C222.318 358.479 221.504 360.09 221.279 361.386C220.647 365.041 216.254 365.159 215.012 361.555C213.438 356.989 211.902 356.731 212.08 361.064C212.217 364.405 211.851 364.987 209.415 365.299C207.59 365.533 205.389 364.545 203.194 362.507ZM208.68 351.51C210.517 349.06 213.688 349.81 215.681 353.165L217.55 356.311L220.566 352.325C222.226 350.132 223.904 346.433 224.295 344.105C225.061 339.548 226.567 336.482 231.535 329.353L234.708 324.802L231.18 320.786C228.478 317.71 227.806 316.096 228.308 313.889C228.835 311.573 228.384 310.694 226.01 309.407C224.386 308.527 222.042 306.53 220.801 304.969C217.93 301.359 214.712 302.109 208.993 307.722C206.161 310.503 203.744 311.825 201.494 311.825C198.353 311.826 198.182 312.066 198.324 316.301C198.703 327.589 198.594 327.152 200.869 326.496C202.532 326.016 202.872 325.216 202.363 322.979C201.558 319.437 204.5 315.405 207.89 315.405C211.53 315.405 215.12 320.501 215.738 326.543C216.242 331.476 215.958 332.249 211.826 337.195C208.66 340.984 207.37 343.569 207.37 346.126C207.37 348.106 206.64 350.394 205.748 351.212C203.772 353.02 203.65 356.173 205.477 358.21C206.563 359.42 206.902 359.055 207.196 356.36C207.397 354.513 208.065 352.331 208.68 351.51ZM251.727 324.984C251.727 322.323 252.472 321.005 254.703 319.72C256.339 318.777 259.108 316.346 260.855 314.318C264.532 310.053 268.842 309.483 271.639 312.893C273.455 315.106 273.545 315.097 275.864 312.468C283.181 304.175 283.345 303.866 281.841 301.209C280.673 299.146 279.346 298.696 274.443 298.696C269.285 298.696 268.323 299.063 267.401 301.381C266.572 303.466 265.286 304.15 261.655 304.438C259.082 304.642 256.357 304.241 255.598 303.547C254.134 302.207 253.317 302.999 248.909 310.034C245.007 316.261 244.986 320.461 248.822 327.042C250.338 329.643 251.727 328.659 251.727 324.984H251.727ZM305.373 304.796C307.011 303.375 308.877 302.407 309.521 302.646C310.164 302.885 311.278 301.548 311.998 299.675C312.914 297.289 314.334 296.042 316.741 295.511L320.176 294.753L317.326 293.105C315.759 292.199 314.484 290.804 314.493 290.004C314.519 287.662 317.258 279.634 318.498 278.266C320.352 276.22 324.717 277.521 325.068 280.224C325.494 283.506 329.756 285.235 339.022 285.885C346.874 286.436 349.097 285.61 349.097 282.14C349.097 277.182 358.037 273.532 359.547 277.874C360.046 279.309 360.647 278.903 362.202 276.083C363.479 273.766 365.104 272.428 366.661 272.412C368.354 272.394 369.613 271.195 370.734 268.533C371.752 266.115 373.286 264.534 374.851 264.29C379.81 263.514 382.28 269.079 378.72 273.006C377.756 274.069 377.258 275.258 377.611 275.649C378.763 276.919 381.541 273.423 382.416 269.602C382.984 267.125 384.429 265.226 386.721 263.946L390.17 262.018L387.489 256.188C384.776 250.289 383.919 243.793 385.853 243.793C387.27 243.793 390.208 237.364 390.208 234.262C390.208 232.893 390.92 230.575 391.79 229.11C393.165 226.794 393.171 225.824 391.838 221.692C388.447 211.189 390.672 202.019 396.611 202.019C399.255 202.019 399.579 201.64 399.133 199.066C398.789 197.078 399.715 194.292 401.968 190.54C406.866 182.382 407.251 178.262 403.854 170.347C402.299 166.724 401.027 163.037 401.027 162.154C401.027 160.358 397.471 150.684 394.932 145.571C393.723 143.138 393.547 141.364 394.281 139.007C395.559 134.903 394.901 132.793 392.346 132.793C389.983 132.793 388.61 134.687 390.19 135.765C390.795 136.177 391.29 137.79 391.29 139.348C391.29 144.559 384.032 144.775 381.781 139.63C380.77 137.318 380.608 137.707 380.544 142.613C380.484 147.265 379.997 148.597 377.766 150.209C374.696 152.429 374.267 155.644 376.739 157.908C379.323 160.274 378.293 165.384 375.062 166.228L372.357 166.935L375.399 169.146C378.17 171.161 378.376 171.792 377.711 176.245C377.309 178.933 376.567 181.7 376.062 182.394C375.556 183.088 374.417 186.579 373.53 190.152C369.388 206.827 366.049 214.697 361.949 217.448C360.182 218.633 357.529 221.41 356.052 223.618C352.982 228.208 345.337 234.244 342.594 234.244C341.576 234.244 338.85 235.668 336.536 237.408C334.125 239.22 330.71 240.622 328.541 240.69L324.754 240.809L325.034 234.952C325.187 231.73 325.865 228.36 326.54 227.463C328.544 224.8 326.743 224.29 323.731 226.667C321.379 228.524 321.036 229.511 321.567 232.899C322.075 236.14 321.6 237.77 319.133 241.254C312.03 251.287 309.758 255.774 311.055 257.206C311.747 257.968 312.313 259.847 312.313 261.38C312.313 263.555 311.222 264.683 307.355 266.512C302.103 268.996 297.193 269.538 295.489 267.822C294.908 267.236 288.823 267.294 281.479 267.956C274.339 268.6 265.332 269.25 261.464 269.402C251.733 269.784 252.191 269.632 248.355 273.768C246.46 275.812 243.4 278.198 241.556 279.069C239.712 279.941 236.134 282.834 233.604 285.497C231.05 288.186 227.922 290.349 226.572 290.359C223.543 290.382 222.099 291.419 220.538 294.691C218.404 299.165 221.681 300.467 234.078 300.069C239.579 299.893 239.696 299.813 240.029 296.01C240.363 292.183 240.44 292.133 245.777 292.248C249.063 292.319 251.504 291.778 251.994 290.869C252.523 289.889 254.263 289.59 257.036 290C259.945 290.43 262.053 290.022 263.772 288.693C265.148 287.63 267.597 286.76 269.214 286.76C270.832 286.76 272.477 286.186 272.87 285.484C273.263 284.782 275.361 284.334 277.532 284.488C279.703 284.641 283.081 284.362 285.04 283.868C287.387 283.275 289.152 283.474 290.221 284.453C291.618 285.731 291.237 286.56 287.472 290.433C283.589 294.428 281.348 298.839 284.184 296.905C284.779 296.5 285.266 296.802 285.266 297.578C285.266 298.629 285.679 298.609 286.889 297.502C287.781 296.685 288.511 295.102 288.511 293.983C288.511 291.123 293.445 286.304 295.489 287.169C297.365 287.963 297.823 294.526 296.085 295.712C295.489 296.118 295.003 298.68 295.003 301.407C295.003 305.383 295.591 306.883 297.978 308.988C300.743 311.427 301.004 311.463 301.674 309.496C302.071 308.332 303.736 306.217 305.373 304.796V304.796ZM263.628 297.502C263.628 295.53 262.907 295.115 259.481 295.115C254.322 295.115 253.164 296.24 256.332 298.174C260.266 300.574 263.628 300.265 263.628 297.502ZM379.389 124.882C379.389 123.953 380.51 122.631 381.88 121.942L384.37 120.69L380.798 116.512C378.824 114.204 377.226 111.066 377.226 109.502C377.226 104.246 385.085 100.811 388.06 104.766C389.269 106.373 389.842 106.305 393.123 104.17C396.978 101.66 403.095 100.973 404.868 102.85C405.433 103.448 408.816 105.615 412.387 107.664C415.957 109.713 419.744 112.043 420.802 112.842C423.187 114.641 424.396 112.892 425.43 106.141C425.922 102.928 427.551 99.9394 430.778 96.3281C434.736 91.8981 436.27 91.0154 441.212 90.3205C447.099 89.4929 448.681 88.8377 452.255 85.7471C454.183 84.0801 454.153 83.8633 451.453 79.958C449.91 77.7265 448.342 74.2154 447.969 72.1556C447.37 68.853 447.035 68.561 445.132 69.6845C443.945 70.3852 441.447 70.6541 439.581 70.2819C437.715 69.9097 434.266 69.2499 431.917 68.8156C426.962 67.8992 415.201 58.8851 410.011 52.0249C401.28 40.484 400.004 39.1543 398.867 40.4089C398.074 41.2833 398.218 42.945 399.342 45.9124C401.405 51.3614 400.478 74.159 398.153 75.1434C397.191 75.5507 396.699 77.8847 396.699 82.0493C396.699 85.6496 396.121 88.8505 395.347 89.5336C392.538 92.013 389.079 92.3618 385.707 90.5057C383.834 89.4753 382.164 88.6323 381.996 88.6323C381.827 88.6323 381.969 90.5333 382.31 92.8567C382.805 96.2184 382.421 97.6811 380.431 100.018C379.056 101.633 377.296 102.955 376.521 102.955C375.746 102.955 374.3 104.321 373.308 105.992C371.568 108.922 371.607 109.148 374.422 112.389C377.086 115.457 377.276 116.285 376.6 121.907C375.951 127.301 376.078 127.972 377.624 127.317C378.595 126.906 379.389 125.811 379.389 124.882Z" fill="#E49BAC"/>
<path d="M203.194 362.507C200.487 359.994 199.797 358.436 199.797 354.832C199.797 352.269 200.5 349.667 201.42 348.824C202.313 348.007 203.043 345.575 203.043 343.42C203.043 340.69 204.191 337.986 206.829 334.502C210.995 329.002 211.755 323.89 208.806 321.221C207.207 319.774 207.065 319.862 207.592 321.97C207.92 323.283 208.37 325.086 208.591 325.976C208.819 326.895 207.186 328.653 204.818 330.04C197.007 334.613 193.695 330.916 192.774 316.599C192.353 310.053 194.383 307.05 199.227 307.05C201.607 307.05 203.946 305.778 206.903 302.874C209.243 300.577 211.948 298.697 212.915 298.697C214.006 298.696 214.921 297.325 215.328 295.085C216.186 290.348 220.615 285.567 224.144 285.567C225.905 285.567 228.444 283.965 230.955 281.27C233.157 278.907 236.419 276.153 238.204 275.151C239.989 274.148 241.632 273.15 241.855 272.933C242.078 272.715 240.559 269.695 238.479 266.221C214.356 225.938 214.408 174.567 238.612 133.987C243.927 125.076 257.341 109.736 265.251 103.524C274.329 96.3943 287.455 89.3396 298.845 85.4695C307.93 82.3821 309.758 82.1796 328.541 82.1796C347.218 82.1796 349.188 82.3946 358.011 85.3971C363.211 87.1667 369.784 89.8491 372.616 91.3579L377.766 94.1013V89.2781C377.766 84.7116 377.953 84.435 381.273 84.0816C383.202 83.8763 385.814 84.5072 387.077 85.4835C390.859 88.4059 392.372 86.7285 392.372 79.6123C392.372 75.3104 392.878 72.9226 393.926 72.2755C395.978 71.0083 396.637 51.0261 394.751 47.2351C391.764 41.2315 394.711 34.9229 400.503 34.9229C402.702 34.9229 409.927 42.478 415.075 50.1599C419.061 56.1067 429.214 63.4527 432.492 62.7614C434.205 62.4001 435.771 62.8917 436.657 64.0687C439.178 67.4195 442.46 66.1899 446.28 60.4643C450.374 54.3262 452.292 53.1179 454.594 55.2257C456.836 57.279 456.6 60.8437 453.978 64.5215C451.559 67.9145 451.787 71.2295 454.787 76.2809C456.188 78.6408 457.108 79.0543 459.607 78.4486C464.271 77.3187 465.084 81.0062 460.983 84.6837C453.819 91.1071 448.417 94.3261 443.522 95.0884C435.862 96.2813 431.687 100.752 429.373 110.242C427.606 117.493 427.336 117.893 423.978 118.25C421.863 118.476 419.043 117.695 416.956 116.308C404.365 107.935 397.781 104.899 397.781 107.465C397.781 107.976 400.965 111.87 404.857 116.118C446.644 161.733 447.377 235.405 406.51 282.4C393.063 297.865 376.959 308.689 358.051 314.972C349.589 317.784 346.673 318.139 331.246 318.238C308.835 318.381 298.838 317.524 296.398 315.252C295.333 314.26 292.338 312.566 289.741 311.486L285.021 309.524L281.906 312.961C280.192 314.851 278.312 317.786 277.727 319.482C276.316 323.577 273.836 323.375 270.007 318.853L266.862 315.139L262.537 319.45C260.159 321.82 257.727 323.76 257.134 323.76C256.54 323.76 256.055 325.574 256.055 327.791C256.055 330.009 255.417 332.406 254.638 333.12C253.195 334.441 249.377 333.714 246.23 331.518C244.2 330.102 240.909 323.062 240.909 320.135C240.909 319 239.935 317.79 238.745 317.447C235.377 316.475 236.195 313.228 240.281 311.345C242.315 310.407 244.566 308.386 245.281 306.853C245.997 305.321 247.831 302.59 249.357 300.784C251.252 298.544 251.639 297.497 250.577 297.486C249.722 297.476 247.927 297.146 246.588 296.75C244.556 296.149 244.154 296.506 244.154 298.915C244.154 303.159 242.163 304.663 236.545 304.663C230.539 304.663 229.319 305.633 232.364 307.986C234.008 309.257 234.5 310.664 234.169 313.153C233.84 315.623 234.413 317.3 236.229 319.182C238.729 321.773 239.89 329.728 237.768 329.728C236.302 329.728 229.008 342.334 229.008 344.867C229.008 347.483 225.081 356.066 223.088 357.806C222.318 358.479 221.504 360.09 221.279 361.386C220.647 365.041 216.254 365.159 215.012 361.555C213.438 356.989 211.902 356.731 212.08 361.064C212.217 364.405 211.851 364.987 209.415 365.299C207.59 365.533 205.389 364.545 203.194 362.507ZM208.68 351.51C210.517 349.06 213.688 349.81 215.681 353.165L217.55 356.311L220.566 352.325C222.226 350.132 223.904 346.433 224.295 344.105C225.061 339.548 226.567 336.482 231.535 329.353L234.708 324.802L231.18 320.786C228.478 317.71 227.806 316.096 228.308 313.889C228.835 311.573 228.384 310.694 226.01 309.407C224.386 308.527 222.042 306.53 220.801 304.969C217.93 301.359 214.712 302.109 208.993 307.722C206.161 310.503 203.744 311.825 201.494 311.825C198.353 311.826 198.182 312.066 198.324 316.301C198.703 327.589 198.594 327.152 200.869 326.496C202.532 326.016 202.872 325.216 202.363 322.979C201.558 319.437 204.5 315.405 207.89 315.405C211.53 315.405 215.12 320.501 215.738 326.543C216.242 331.476 215.958 332.249 211.826 337.195C208.66 340.984 207.37 343.569 207.37 346.126C207.37 348.106 206.64 350.394 205.748 351.212C203.772 353.02 203.65 356.173 205.477 358.21C206.563 359.42 206.902 359.055 207.196 356.36C207.397 354.513 208.065 352.331 208.68 351.51ZM251.727 324.984C251.727 322.323 252.472 321.005 254.703 319.72C256.339 318.777 259.108 316.346 260.855 314.318C264.532 310.053 268.842 309.483 271.639 312.893C273.455 315.106 273.545 315.097 275.864 312.468C283.181 304.175 283.345 303.866 281.841 301.209C280.673 299.146 279.346 298.696 274.443 298.696C269.285 298.696 268.323 299.063 267.401 301.381C266.572 303.466 265.286 304.15 261.655 304.438C259.082 304.642 256.357 304.241 255.598 303.547C254.134 302.207 253.317 302.999 248.909 310.034C245.007 316.261 244.986 320.461 248.822 327.042C250.338 329.643 251.727 328.659 251.727 324.984H251.727ZM305.373 304.796C307.011 303.375 308.877 302.407 309.521 302.646C310.164 302.885 311.278 301.548 311.998 299.675C312.914 297.289 314.334 296.042 316.741 295.511L320.176 294.753L317.326 293.105C315.759 292.199 314.484 290.804 314.493 290.004C314.519 287.662 317.258 279.634 318.498 278.266C320.352 276.22 324.717 277.521 325.068 280.224C325.494 283.506 329.756 285.235 339.022 285.885C346.874 286.436 349.097 285.61 349.097 282.14C349.097 277.182 358.037 273.532 359.547 277.874C360.046 279.309 360.647 278.903 362.202 276.083C363.479 273.766 365.104 272.428 366.661 272.412C368.354 272.394 369.613 271.195 370.734 268.533C371.752 266.115 373.286 264.534 374.851 264.29C379.81 263.514 382.28 269.079 378.72 273.006C377.756 274.069 377.258 275.258 377.611 275.649C378.763 276.919 381.541 273.423 382.416 269.602C382.984 267.125 384.429 265.226 386.721 263.946L390.17 262.018L387.489 256.188C384.776 250.289 383.919 243.793 385.853 243.793C387.27 243.793 390.208 237.364 390.208 234.262C390.208 232.893 390.92 230.575 391.79 229.11C393.165 226.794 393.171 225.824 391.838 221.692C388.447 211.189 390.672 202.019 396.611 202.019C399.255 202.019 399.579 201.64 399.133 199.066C398.789 197.078 399.715 194.292 401.968 190.54C406.866 182.382 407.251 178.262 403.854 170.347C402.299 166.724 401.027 163.037 401.027 162.154C401.027 160.358 397.471 150.684 394.932 145.571C393.723 143.138 393.547 141.364 394.281 139.007C395.559 134.903 394.901 132.793 392.346 132.793C389.983 132.793 388.61 134.687 390.19 135.765C390.795 136.177 391.29 137.79 391.29 139.348C391.29 144.559 384.032 144.775 381.781 139.63C380.77 137.318 380.608 137.707 380.544 142.613C380.484 147.265 379.997 148.597 377.766 150.209C374.696 152.429 374.267 155.644 376.739 157.908C379.323 160.274 378.293 165.384 375.062 166.228L372.357 166.935L375.399 169.146C378.17 171.161 378.376 171.792 377.711 176.245C377.309 178.933 376.567 181.7 376.062 182.394C375.556 183.088 374.417 186.579 373.53 190.152C369.388 206.827 366.049 214.697 361.949 217.448C360.182 218.633 357.529 221.41 356.052 223.618C352.982 228.208 345.337 234.244 342.594 234.244C341.576 234.244 338.85 235.668 336.536 237.408C334.125 239.22 330.71 240.622 328.541 240.69L324.754 240.809L325.034 234.952C325.187 231.73 325.865 228.36 326.54 227.463C328.544 224.8 326.743 224.29 323.731 226.667C321.379 228.524 321.036 229.511 321.567 232.899C322.075 236.14 321.6 237.77 319.133 241.254C312.03 251.287 309.758 255.774 311.055 257.206C311.747 257.968 312.313 259.847 312.313 261.38C312.313 263.555 311.222 264.683 307.355 266.512C302.103 268.996 297.193 269.538 295.489 267.822C294.908 267.236 288.823 267.294 281.479 267.956C274.339 268.6 265.332 269.25 261.464 269.402C251.733 269.784 252.191 269.632 248.355 273.768C246.46 275.812 243.4 278.198 241.556 279.069C239.712 279.941 236.134 282.834 233.604 285.497C231.05 288.186 227.922 290.349 226.572 290.359C223.543 290.382 222.099 291.419 220.538 294.691C218.404 299.165 221.681 300.467 234.078 300.069C239.579 299.893 239.696 299.813 240.029 296.01C240.363 292.183 240.44 292.133 245.777 292.248C249.063 292.319 251.504 291.778 251.994 290.869C252.523 289.889 254.263 289.59 257.036 290C259.945 290.43 262.053 290.022 263.772 288.693C265.148 287.63 267.597 286.76 269.214 286.76C270.832 286.76 272.477 286.186 272.87 285.484C273.263 284.782 275.361 284.334 277.532 284.488C279.703 284.641 283.081 284.362 285.04 283.868C287.387 283.275 289.152 283.474 290.221 284.453C291.618 285.731 291.237 286.56 287.472 290.433C283.589 294.428 281.348 298.839 284.184 296.905C284.779 296.5 285.266 296.802 285.266 297.578C285.266 298.629 285.679 298.609 286.889 297.502C287.781 296.685 288.511 295.102 288.511 293.983C288.511 291.123 293.445 286.304 295.489 287.169C297.365 287.963 297.823 294.526 296.085 295.712C295.489 296.118 295.003 298.68 295.003 301.407C295.003 305.383 295.591 306.883 297.978 308.988C300.743 311.427 301.004 311.463 301.674 309.496C302.071 308.332 303.736 306.217 305.373 304.796V304.796ZM263.628 297.502C263.628 295.53 262.907 295.115 259.481 295.115C254.322 295.115 253.164 296.24 256.332 298.174C260.266 300.574 263.628 300.265 263.628 297.502ZM379.389 124.882C379.389 123.953 380.51 122.631 381.88 121.942L384.37 120.69L380.798 116.512C378.824 114.204 377.226 111.066 377.226 109.502C377.226 104.246 385.085 100.811 388.06 104.766C389.269 106.373 389.842 106.305 393.123 104.17C396.978 101.66 403.095 100.973 404.868 102.85C405.433 103.448 408.816 105.615 412.387 107.664C415.957 109.713 419.744 112.043 420.802 112.842C423.187 114.641 424.396 112.892 425.43 106.141C425.922 102.928 427.551 99.9394 430.778 96.3281C434.736 91.8981 436.27 91.0154 441.212 90.3205C447.099 89.4929 448.681 88.8377 452.255 85.7471C454.183 84.0801 454.153 83.8633 451.453 79.958C449.91 77.7265 448.342 74.2154 447.969 72.1556C447.37 68.853 447.035 68.561 445.132 69.6845C443.945 70.3852 441.447 70.6541 439.581 70.2819C437.715 69.9097 434.266 69.2499 431.917 68.8156C426.962 67.8992 415.201 58.8851 410.011 52.0249C401.28 40.484 400.004 39.1543 398.867 40.4089C398.074 41.2833 398.218 42.945 399.342 45.9124C401.405 51.3614 400.478 74.159 398.153 75.1434C397.191 75.5507 396.699 77.8847 396.699 82.0493C396.699 85.6496 396.121 88.8505 395.347 89.5336C392.538 92.013 389.079 92.3618 385.707 90.5057C383.834 89.4753 382.164 88.6323 381.996 88.6323C381.827 88.6323 381.969 90.5333 382.31 92.8567C382.805 96.2184 382.421 97.6811 380.431 100.018C379.056 101.633 377.296 102.955 376.521 102.955C375.746 102.955 374.3 104.321 373.308 105.992C371.568 108.922 371.607 109.148 374.422 112.389C377.086 115.457 377.276 116.285 376.6 121.907C375.951 127.301 376.078 127.972 377.624 127.317C378.595 126.906 379.389 125.811 379.389 124.882Z" fill="#D9728A"/>
<path d="M203.194 362.507C200.487 359.994 199.797 358.436 199.797 354.832C199.797 352.269 200.5 349.667 201.42 348.824C202.313 348.007 203.043 345.583 203.043 343.437C203.043 340.645 204.272 337.895 207.366 333.765C211.866 327.757 212.16 325.093 208.735 321.373C207.006 319.495 207.003 319.588 208.591 325.976C208.819 326.895 207.186 328.653 204.818 330.04C197.007 334.613 193.695 330.916 192.774 316.599C192.353 310.053 194.383 307.05 199.227 307.05C201.607 307.05 203.946 305.778 206.903 302.874C209.243 300.577 211.948 298.697 212.915 298.697C214.006 298.696 214.921 297.325 215.328 295.085C216.186 290.348 220.615 285.567 224.144 285.567C225.905 285.567 228.444 283.965 230.955 281.27C233.157 278.907 236.419 276.153 238.204 275.151C239.989 274.148 241.624 273.159 241.837 272.953C242.049 272.747 239.94 268.536 237.148 263.594C230.722 252.219 226.424 240.947 223.39 227.508C219.852 211.838 220.059 186.75 223.856 170.973C234.056 128.594 263.193 96.2862 301.494 84.8871C309.333 82.5541 313.324 82.1502 328.541 82.1502C348.129 82.1502 357.603 84.0911 371.175 90.8849L377.766 94.1842V89.3195C377.766 84.7063 377.948 84.4356 381.273 84.0816C383.202 83.8763 385.814 84.5072 387.077 85.4835C390.859 88.4059 392.372 86.7285 392.372 79.6123C392.372 75.3104 392.878 72.9226 393.926 72.2755C395.978 71.0083 396.637 51.0261 394.751 47.2351C391.764 41.2315 394.711 34.9229 400.503 34.9229C402.702 34.9229 409.927 42.478 415.075 50.1599C419.061 56.1067 429.214 63.4527 432.492 62.7614C434.205 62.4001 435.771 62.8917 436.657 64.0687C439.178 67.4195 442.46 66.1899 446.28 60.4643C450.374 54.3262 452.292 53.1179 454.594 55.2257C456.836 57.279 456.6 60.8437 453.978 64.5215C451.559 67.9145 451.787 71.2295 454.787 76.2809C456.188 78.6408 457.108 79.0543 459.607 78.4486C464.271 77.3187 465.084 81.0062 460.983 84.6837C453.819 91.1071 448.417 94.3261 443.522 95.0884C435.862 96.2813 431.687 100.752 429.373 110.242C427.606 117.493 427.336 117.893 423.978 118.25C421.863 118.476 419.043 117.695 416.956 116.308C404.685 108.149 397.781 104.905 397.781 107.298C397.781 107.717 401.452 112.299 405.939 117.481C419.769 133.45 428.132 149.84 433.234 170.973C435.588 180.723 435.975 184.852 435.975 200.228C435.975 215.605 435.588 219.734 433.234 229.484C424.697 264.843 403.52 292.852 373.685 308.241C358.901 315.867 348.907 318.196 330.705 318.256C309.103 318.328 298.704 317.403 296.379 315.202C295.324 314.205 292.363 312.491 289.798 311.394L285.134 309.399L281.962 312.898C280.218 314.823 278.312 317.786 277.727 319.482C276.316 323.577 273.836 323.375 270.007 318.853L266.862 315.139L262.537 319.45C260.159 321.82 257.727 323.76 257.134 323.76C256.54 323.76 256.055 325.574 256.055 327.791C256.055 330.009 255.417 332.406 254.638 333.12C253.195 334.441 249.377 333.714 246.23 331.518C244.2 330.102 240.909 323.062 240.909 320.135C240.909 319 239.935 317.79 238.745 317.447C235.377 316.475 236.195 313.228 240.281 311.345C242.315 310.407 244.566 308.386 245.281 306.853C245.997 305.321 247.831 302.59 249.357 300.784C251.252 298.544 251.639 297.497 250.577 297.486C249.722 297.476 247.927 297.146 246.588 296.75C244.556 296.149 244.154 296.506 244.154 298.915C244.154 303.159 242.163 304.663 236.545 304.663C230.539 304.663 229.319 305.633 232.364 307.986C234.008 309.257 234.5 310.664 234.169 313.153C233.84 315.623 234.413 317.3 236.229 319.182C238.729 321.773 239.89 329.728 237.768 329.728C236.302 329.728 229.008 342.334 229.008 344.867C229.008 347.447 225.03 355.997 223.012 357.755C222.245 358.423 221.45 360.044 221.245 361.357C220.669 365.045 216.263 365.185 215.012 361.555C213.438 356.989 211.902 356.731 212.08 361.064C212.217 364.405 211.851 364.987 209.415 365.299C207.59 365.533 205.389 364.545 203.194 362.507ZM208.68 351.51C210.517 349.06 213.688 349.81 215.681 353.165L217.55 356.311L220.566 352.325C222.226 350.132 223.904 346.433 224.295 344.105C225.061 339.548 226.567 336.482 231.535 329.353L234.708 324.802L231.18 320.786C228.478 317.71 227.806 316.096 228.308 313.889C228.835 311.573 228.384 310.694 226.01 309.407C224.386 308.527 222.042 306.53 220.801 304.969C217.93 301.359 214.712 302.109 208.993 307.722C206.161 310.503 203.744 311.825 201.494 311.825C198.353 311.826 198.182 312.066 198.324 316.301C198.703 327.589 198.594 327.152 200.869 326.496C202.532 326.016 202.872 325.216 202.363 322.979C201.558 319.437 204.5 315.405 207.89 315.405C211.53 315.405 215.12 320.501 215.738 326.543C216.242 331.476 215.958 332.249 211.826 337.195C208.66 340.984 207.37 343.569 207.37 346.126C207.37 348.106 206.64 350.394 205.748 351.212C203.772 353.02 203.65 356.173 205.477 358.21C206.563 359.42 206.902 359.055 207.196 356.36C207.397 354.513 208.065 352.331 208.68 351.51ZM251.727 324.984C251.727 322.323 252.472 321.005 254.703 319.72C256.339 318.777 259.108 316.346 260.855 314.318C264.532 310.053 268.842 309.483 271.639 312.893C273.455 315.106 273.545 315.097 275.864 312.468C283.181 304.175 283.345 303.866 281.841 301.209C280.673 299.146 279.346 298.696 274.443 298.696C269.285 298.696 268.323 299.063 267.401 301.381C266.572 303.466 265.286 304.15 261.655 304.438C259.082 304.642 256.357 304.241 255.598 303.547C254.134 302.207 253.317 302.999 248.909 310.034C245.007 316.261 244.986 320.461 248.822 327.042C250.338 329.643 251.727 328.659 251.727 324.984H251.727ZM305.373 304.796C307.011 303.375 308.877 302.407 309.521 302.646C310.164 302.885 311.278 301.548 311.998 299.675C312.914 297.289 314.334 296.042 316.741 295.511L320.176 294.753L317.326 293.105C315.759 292.199 314.484 290.804 314.493 290.004C314.519 287.662 317.258 279.634 318.498 278.266C320.352 276.22 324.717 277.521 325.068 280.224C325.494 283.506 329.756 285.235 339.022 285.885C346.874 286.436 349.097 285.61 349.097 282.14C349.097 277.182 358.037 273.532 359.547 277.874C360.046 279.309 360.647 278.903 362.202 276.083C363.479 273.766 365.104 272.428 366.661 272.412C368.354 272.394 369.613 271.195 370.734 268.533C372.493 264.356 376.24 262.888 378.908 265.331C381.081 267.321 380.859 270.386 378.307 273.631C375.48 277.228 375.569 277.92 378.578 275.738C379.917 274.767 381.547 272.15 382.201 269.923C382.96 267.34 384.618 265.175 386.78 263.946L390.17 262.018L387.489 256.188C384.776 250.289 383.919 243.793 385.853 243.793C387.27 243.793 390.208 237.364 390.208 234.262C390.208 232.893 390.92 230.575 391.79 229.11C393.165 226.794 393.171 225.824 391.838 221.692C388.447 211.189 390.672 202.019 396.611 202.019C399.255 202.019 399.579 201.64 399.133 199.066C398.789 197.078 399.715 194.292 401.968 190.54C406.866 182.382 407.251 178.262 403.854 170.347C402.299 166.724 401.027 163.037 401.027 162.154C401.027 160.358 397.471 150.684 394.932 145.571C393.723 143.138 393.547 141.364 394.281 139.007C395.559 134.903 394.901 132.793 392.346 132.793C389.983 132.793 388.61 134.687 390.19 135.765C390.795 136.177 391.29 137.79 391.29 139.348C391.29 144.559 384.032 144.775 381.781 139.63C380.77 137.318 380.608 137.707 380.544 142.613C380.484 147.265 379.997 148.597 377.766 150.209C374.696 152.429 374.267 155.644 376.739 157.908C379.323 160.274 378.293 165.384 375.062 166.228L372.357 166.935L375.399 169.146C378.17 171.161 378.376 171.792 377.711 176.245C377.309 178.933 376.567 181.7 376.062 182.394C375.556 183.088 374.417 186.579 373.53 190.152C369.388 206.827 366.049 214.697 361.949 217.448C360.182 218.633 357.529 221.41 356.052 223.618C352.982 228.208 345.337 234.244 342.594 234.244C341.576 234.244 338.85 235.668 336.536 237.408C334.125 239.22 330.71 240.622 328.541 240.69L324.754 240.809L325.034 234.952C325.187 231.73 325.865 228.36 326.54 227.463C328.544 224.8 326.743 224.29 323.731 226.667C321.379 228.524 321.036 229.511 321.567 232.899C322.075 236.14 321.6 237.77 319.133 241.254C312.03 251.287 309.758 255.774 311.055 257.206C311.747 257.968 312.313 259.847 312.313 261.38C312.313 263.555 311.222 264.683 307.355 266.512C302.103 268.996 297.193 269.538 295.489 267.822C294.908 267.236 288.823 267.294 281.479 267.956C274.339 268.6 265.332 269.25 261.464 269.402C251.733 269.784 252.191 269.632 248.355 273.768C246.46 275.812 243.4 278.198 241.556 279.069C239.712 279.941 236.134 282.834 233.604 285.497C231.05 288.186 227.922 290.349 226.572 290.359C223.543 290.382 222.099 291.419 220.538 294.691C218.404 299.165 221.681 300.467 234.078 300.069C239.579 299.893 239.696 299.813 240.029 296.01C240.363 292.183 240.44 292.133 245.777 292.248C249.063 292.319 251.504 291.778 251.994 290.869C252.523 289.889 254.263 289.59 257.036 290C259.945 290.43 262.053 290.022 263.772 288.693C265.148 287.63 267.597 286.76 269.214 286.76C270.832 286.76 272.477 286.186 272.87 285.484C273.263 284.782 275.361 284.334 277.532 284.488C279.703 284.641 283.081 284.362 285.04 283.868C287.387 283.275 289.152 283.474 290.221 284.453C291.618 285.731 291.237 286.56 287.472 290.433C283.589 294.428 281.348 298.839 284.184 296.905C284.779 296.5 285.266 296.802 285.266 297.578C285.266 298.629 285.679 298.609 286.889 297.502C287.781 296.685 288.511 295.102 288.511 293.983C288.511 291.123 293.445 286.304 295.489 287.169C297.365 287.963 297.823 294.526 296.085 295.712C295.489 296.118 295.003 298.68 295.003 301.407C295.003 305.383 295.591 306.883 297.978 308.988C300.743 311.427 301.004 311.463 301.674 309.496C302.071 308.332 303.736 306.217 305.373 304.796V304.796ZM263.628 297.502C263.628 295.53 262.907 295.115 259.481 295.115C254.322 295.115 253.164 296.24 256.332 298.174C260.266 300.574 263.628 300.265 263.628 297.502ZM379.389 124.882C379.389 123.953 380.51 122.631 381.88 121.942L384.37 120.69L380.798 116.512C378.824 114.204 377.226 111.066 377.226 109.502C377.226 104.246 385.085 100.811 388.06 104.766C389.269 106.373 389.842 106.305 393.123 104.17C396.978 101.66 403.095 100.973 404.868 102.85C405.433 103.448 408.816 105.615 412.387 107.664C415.957 109.713 419.744 112.043 420.802 112.842C423.187 114.641 424.396 112.892 425.43 106.141C425.922 102.928 427.551 99.9394 430.778 96.3281C434.736 91.8981 436.27 91.0154 441.212 90.3205C447.099 89.4929 448.681 88.8377 452.255 85.7471C454.183 84.0801 454.153 83.8633 451.453 79.958C449.91 77.7265 448.342 74.2154 447.969 72.1556C447.37 68.853 447.035 68.561 445.132 69.6845C443.945 70.3852 441.447 70.6541 439.581 70.2819C437.715 69.9097 434.266 69.2499 431.917 68.8156C426.962 67.8992 415.201 58.8851 410.011 52.0249C401.28 40.484 400.004 39.1543 398.867 40.4089C398.074 41.2833 398.218 42.945 399.342 45.9124C401.405 51.3614 400.478 74.159 398.153 75.1434C397.191 75.5507 396.699 77.8847 396.699 82.0493C396.699 85.6496 396.121 88.8505 395.347 89.5336C392.538 92.013 389.079 92.3618 385.707 90.5057C383.834 89.4753 382.164 88.6323 381.996 88.6323C381.827 88.6323 381.969 90.5333 382.31 92.8567C382.805 96.2184 382.421 97.6811 380.431 100.018C379.056 101.633 377.296 102.955 376.521 102.955C375.746 102.955 374.3 104.321 373.308 105.992C371.568 108.922 371.607 109.148 374.422 112.389C377.086 115.457 377.276 116.285 376.6 121.907C375.951 127.301 376.078 127.972 377.624 127.317C378.595 126.906 379.389 125.811 379.389 124.882Z" fill="#CF4D6C"/>
<path d="M203.194 362.507C200.487 359.994 199.797 358.436 199.797 354.832C199.797 352.269 200.5 349.667 201.42 348.824C202.313 348.007 203.043 345.583 203.043 343.437C203.043 340.645 204.272 337.895 207.366 333.765C211.866 327.757 212.16 325.093 208.735 321.373C207.006 319.495 207.003 319.588 208.591 325.976C208.819 326.895 207.186 328.653 204.818 330.04C197.007 334.613 193.695 330.916 192.774 316.599C192.353 310.053 194.383 307.05 199.227 307.05C201.607 307.05 203.946 305.778 206.903 302.874C209.243 300.577 211.948 298.697 212.915 298.697C214.006 298.696 214.921 297.325 215.328 295.085C216.185 290.354 220.614 285.567 224.132 285.567C225.914 285.567 228.534 283.864 231.356 280.872C233.792 278.29 237.181 275.539 238.888 274.76C240.594 273.98 241.991 272.897 241.991 272.353C241.991 271.809 240.578 269.054 238.851 266.231C214.681 226.722 214.853 174.511 239.289 133.372C245.725 122.537 261.752 105.686 272.07 98.9061C302.17 79.1264 338.859 76.0758 370.446 90.7264L377.766 94.122V89.2884C377.766 84.7102 377.952 84.4351 381.273 84.0816C383.202 83.8763 385.814 84.5072 387.077 85.4835C390.859 88.4059 392.372 86.7285 392.372 79.6123C392.372 75.3104 392.878 72.9226 393.926 72.2755C395.978 71.0083 396.637 51.0261 394.751 47.2351C391.764 41.2315 394.711 34.9229 400.503 34.9229C402.702 34.9229 409.927 42.478 415.075 50.1599C419.061 56.1067 429.214 63.4527 432.492 62.7614C434.205 62.4001 435.771 62.8917 436.657 64.0687C439.178 67.4195 442.46 66.1899 446.28 60.4643C450.374 54.3262 452.292 53.1179 454.594 55.2257C456.836 57.279 456.6 60.8437 453.978 64.5215C451.559 67.9145 451.787 71.2295 454.787 76.2809C456.188 78.6408 457.108 79.0543 459.607 78.4486C464.271 77.3187 465.084 81.0062 460.983 84.6837C453.819 91.1071 448.417 94.3261 443.522 95.0884C435.862 96.2813 431.687 100.752 429.373 110.242C427.613 117.461 427.324 117.894 424.032 118.246C421.62 118.504 418.634 117.399 414.305 114.649C403.322 107.67 400.264 106.145 398.634 106.835C397.482 107.323 399.321 110.112 405.254 116.878C425.899 140.424 436.053 167.903 436.053 200.228C436.053 232.891 425.685 260.662 404.826 283.873C390.813 299.465 374.605 309.729 354.696 315.617C348.32 317.503 342.875 318.099 331.246 318.185C309.83 318.343 298.187 317.351 296.734 315.244C296.079 314.293 293.233 312.554 290.409 311.38L285.275 309.244L282.032 312.821C280.249 314.788 278.312 317.786 277.727 319.482C276.316 323.577 273.836 323.375 270.007 318.853L266.862 315.139L262.537 319.45C260.159 321.82 257.727 323.76 257.134 323.76C256.54 323.76 256.055 325.574 256.055 327.791C256.055 330.009 255.417 332.406 254.638 333.12C253.195 334.441 249.377 333.714 246.23 331.518C244.2 330.102 240.909 323.062 240.909 320.135C240.909 319 239.935 317.79 238.745 317.447C235.377 316.475 236.195 313.228 240.281 311.345C242.315 310.407 244.566 308.386 245.281 306.853C245.997 305.321 247.831 302.59 249.357 300.784C251.252 298.544 251.639 297.497 250.577 297.486C249.722 297.476 247.927 297.146 246.588 296.75C244.556 296.149 244.154 296.506 244.154 298.915C244.154 303.159 242.163 304.663 236.545 304.663C230.539 304.663 229.319 305.633 232.364 307.986C234.008 309.257 234.5 310.664 234.169 313.153C233.84 315.623 234.413 317.3 236.229 319.182C238.729 321.773 239.89 329.728 237.768 329.728C236.302 329.728 229.008 342.334 229.008 344.867C229.008 347.447 225.03 355.997 223.012 357.755C222.245 358.423 221.45 360.044 221.245 361.357C220.669 365.045 216.263 365.185 215.012 361.555C213.438 356.989 211.902 356.731 212.08 361.064C212.217 364.405 211.851 364.987 209.415 365.299C207.59 365.533 205.389 364.545 203.194 362.507ZM208.68 351.51C210.517 349.06 213.688 349.81 215.681 353.165L217.55 356.311L220.566 352.325C222.226 350.132 223.904 346.433 224.295 344.105C225.061 339.548 226.567 336.482 231.535 329.353L234.708 324.802L231.18 320.786C228.478 317.71 227.806 316.096 228.308 313.889C228.835 311.573 228.384 310.694 226.01 309.407C224.386 308.527 222.042 306.53 220.801 304.969C217.93 301.359 214.712 302.109 208.993 307.722C206.161 310.503 203.744 311.825 201.494 311.825C198.353 311.826 198.182 312.066 198.324 316.301C198.703 327.589 198.594 327.152 200.869 326.496C202.532 326.016 202.872 325.216 202.363 322.979C201.558 319.437 204.5 315.405 207.89 315.405C211.53 315.405 215.12 320.501 215.738 326.543C216.242 331.476 215.958 332.249 211.826 337.195C208.66 340.984 207.37 343.569 207.37 346.126C207.37 348.106 206.64 350.394 205.748 351.212C203.772 353.02 203.65 356.173 205.477 358.21C206.563 359.42 206.902 359.055 207.196 356.36C207.397 354.513 208.065 352.331 208.68 351.51ZM251.727 324.984C251.727 322.323 252.472 321.005 254.703 319.72C256.339 318.777 259.108 316.346 260.855 314.318C264.532 310.053 268.842 309.483 271.639 312.893C273.455 315.106 273.545 315.097 275.864 312.468C283.181 304.175 283.345 303.866 281.841 301.209C280.673 299.146 279.346 298.696 274.443 298.696C269.285 298.696 268.323 299.063 267.401 301.381C266.572 303.466 265.286 304.15 261.655 304.438C259.082 304.642 256.357 304.241 255.598 303.547C254.134 302.207 253.317 302.999 248.909 310.034C245.007 316.261 244.986 320.461 248.822 327.042C250.338 329.643 251.727 328.659 251.727 324.984H251.727ZM305.373 304.796C307.011 303.375 308.877 302.407 309.521 302.646C310.164 302.885 311.278 301.548 311.998 299.675C312.914 297.289 314.334 296.042 316.741 295.511L320.176 294.753L317.326 293.105C315.759 292.199 314.484 290.804 314.493 290.004C314.519 287.662 317.258 279.634 318.498 278.266C320.352 276.22 324.717 277.521 325.068 280.224C325.494 283.506 329.756 285.235 339.022 285.885C346.874 286.436 349.097 285.61 349.097 282.14C349.097 277.182 358.037 273.532 359.547 277.874C360.046 279.309 360.647 278.903 362.202 276.083C363.479 273.766 365.104 272.428 366.661 272.412C368.354 272.394 369.613 271.195 370.734 268.533C372.493 264.356 376.24 262.888 378.908 265.331C381.081 267.321 380.859 270.386 378.307 273.631C375.48 277.228 375.569 277.92 378.578 275.738C379.917 274.767 381.547 272.15 382.201 269.923C382.96 267.34 384.618 265.175 386.78 263.946L390.17 262.018L387.489 256.188C384.776 250.289 383.919 243.793 385.853 243.793C387.27 243.793 390.208 237.364 390.208 234.262C390.208 232.893 390.92 230.575 391.79 229.11C393.165 226.794 393.171 225.824 391.838 221.692C388.447 211.189 390.672 202.019 396.611 202.019C399.255 202.019 399.579 201.64 399.133 199.066C398.789 197.078 399.715 194.292 401.968 190.54C406.866 182.382 407.251 178.262 403.854 170.347C402.299 166.724 401.027 163.037 401.027 162.154C401.027 160.358 397.471 150.684 394.932 145.571C393.723 143.138 393.547 141.364 394.281 139.007C395.559 134.903 394.901 132.793 392.346 132.793C389.983 132.793 388.61 134.687 390.19 135.765C390.795 136.177 391.29 137.79 391.29 139.348C391.29 144.559 384.032 144.775 381.781 139.63C380.77 137.318 380.608 137.707 380.544 142.613C380.484 147.265 379.997 148.597 377.766 150.209C374.696 152.429 374.267 155.644 376.739 157.908C379.323 160.274 378.293 165.384 375.062 166.228L372.357 166.935L375.399 169.146C378.17 171.161 378.376 171.792 377.711 176.245C377.309 178.933 376.567 181.7 376.062 182.394C375.556 183.088 374.417 186.579 373.53 190.152C369.388 206.827 366.049 214.697 361.949 217.448C360.182 218.633 357.529 221.41 356.052 223.618C352.982 228.208 345.337 234.244 342.594 234.244C341.576 234.244 338.85 235.668 336.536 237.408C334.125 239.22 330.71 240.622 328.541 240.69L324.754 240.809L325.034 234.952C325.187 231.73 325.865 228.36 326.54 227.463C328.544 224.8 326.743 224.29 323.731 226.667C321.379 228.524 321.036 229.511 321.567 232.899C322.075 236.14 321.6 237.77 319.133 241.254C312.03 251.287 309.758 255.774 311.055 257.206C311.747 257.968 312.313 259.847 312.313 261.38C312.313 263.555 311.222 264.683 307.355 266.512C302.103 268.996 297.193 269.538 295.489 267.822C294.908 267.236 288.823 267.294 281.479 267.956C274.339 268.6 265.332 269.25 261.464 269.402C251.733 269.784 252.191 269.632 248.355 273.768C246.46 275.812 243.4 278.198 241.556 279.069C239.712 279.941 236.134 282.834 233.604 285.497C231.05 288.186 227.922 290.349 226.572 290.359C223.543 290.382 222.099 291.419 220.538 294.691C218.404 299.165 221.681 300.467 234.078 300.069C239.579 299.893 239.696 299.813 240.029 296.01C240.363 292.183 240.44 292.133 245.777 292.248C249.063 292.319 251.504 291.778 251.994 290.869C252.523 289.889 254.263 289.59 257.036 290C259.945 290.43 262.053 290.022 263.772 288.693C265.148 287.63 267.597 286.76 269.214 286.76C270.832 286.76 272.477 286.186 272.87 285.484C273.263 284.782 275.361 284.334 277.532 284.488C279.703 284.641 283.081 284.362 285.04 283.868C287.387 283.275 289.152 283.474 290.221 284.453C291.618 285.731 291.237 286.56 287.472 290.433C283.589 294.428 281.348 298.839 284.184 296.905C284.779 296.5 285.266 296.802 285.266 297.578C285.266 298.629 285.679 298.609 286.889 297.502C287.781 296.685 288.511 295.102 288.511 293.983C288.511 291.123 293.445 286.304 295.489 287.169C297.365 287.963 297.823 294.526 296.085 295.712C295.489 296.118 295.003 298.68 295.003 301.407C295.003 305.383 295.591 306.883 297.978 308.988C300.743 311.427 301.004 311.463 301.674 309.496C302.071 308.332 303.736 306.217 305.373 304.796V304.796ZM263.628 297.502C263.628 295.53 262.907 295.115 259.481 295.115C254.322 295.115 253.164 296.24 256.332 298.174C260.266 300.574 263.628 300.265 263.628 297.502ZM379.389 124.882C379.389 123.953 380.51 122.631 381.88 121.942L384.37 120.69L380.798 116.512C378.824 114.204 377.226 111.066 377.226 109.502C377.226 104.246 385.085 100.811 388.06 104.766C389.269 106.373 389.842 106.305 393.123 104.17C396.978 101.66 403.095 100.973 404.868 102.85C405.433 103.448 408.816 105.615 412.387 107.664C415.957 109.713 419.744 112.043 420.802 112.842C423.187 114.641 424.396 112.892 425.43 106.141C425.922 102.928 427.551 99.9394 430.778 96.3281C434.736 91.8981 436.27 91.0154 441.212 90.3205C447.099 89.4929 448.681 88.8377 452.255 85.7471C454.183 84.0801 454.153 83.8633 451.453 79.958C449.91 77.7265 448.342 74.2154 447.969 72.1556C447.37 68.853 447.035 68.561 445.132 69.6845C443.945 70.3852 441.447 70.6541 439.581 70.2819C437.715 69.9097 434.266 69.2499 431.917 68.8156C426.962 67.8992 415.201 58.8851 410.011 52.0249C401.28 40.484 400.004 39.1543 398.867 40.4089C398.074 41.2833 398.218 42.945 399.342 45.9124C401.405 51.3614 400.478 74.159 398.153 75.1434C397.191 75.5507 396.699 77.8847 396.699 82.0493C396.699 85.6496 396.121 88.8505 395.347 89.5336C392.538 92.013 389.079 92.3618 385.707 90.5057C383.834 89.4753 382.164 88.6323 381.996 88.6323C381.827 88.6323 381.969 90.5333 382.31 92.8567C382.805 96.2184 382.421 97.6811 380.431 100.018C379.056 101.633 377.296 102.955 376.521 102.955C375.746 102.955 374.3 104.321 373.308 105.992C371.568 108.922 371.607 109.148 374.422 112.389C377.086 115.457 377.276 116.285 376.6 121.907C375.951 127.301 376.078 127.972 377.624 127.317C378.595 126.906 379.389 125.811 379.389 124.882Z" fill="#C6294E"/>
<path d="M203.194 362.507C200.487 359.994 199.797 358.436 199.797 354.832C199.797 352.269 200.5 349.667 201.42 348.824C202.313 348.007 203.043 345.583 203.043 343.437C203.043 340.645 204.272 337.895 207.366 333.765C211.866 327.757 212.16 325.093 208.735 321.373C207.006 319.495 207.003 319.588 208.591 325.976C208.819 326.895 207.186 328.653 204.818 330.04C197.007 334.613 193.695 330.916 192.774 316.599C192.353 310.053 194.383 307.05 199.227 307.05C201.607 307.05 203.946 305.778 206.903 302.874C209.243 300.577 211.948 298.697 212.915 298.697C214.006 298.696 214.921 297.325 215.328 295.085C216.186 290.348 220.615 285.567 224.144 285.567C225.905 285.567 228.443 283.965 230.955 281.268C233.157 278.903 236.778 275.941 239.002 274.686L243.047 272.404L239.261 266.591C237.18 263.394 233.564 256.276 231.226 250.772C202.367 182.834 237.02 102.889 303.117 84.9186C325.881 78.7293 350.946 81.4312 373.98 92.5576L377.766 94.3867V89.4208C377.766 84.6934 377.935 84.4369 381.273 84.0816C383.202 83.8763 385.814 84.5072 387.077 85.4835C390.859 88.4059 392.372 86.7285 392.372 79.6123C392.372 75.3104 392.878 72.9226 393.926 72.2755C395.978 71.0083 396.637 51.0261 394.751 47.2351C391.764 41.2315 394.711 34.9229 400.503 34.9229C402.702 34.9229 409.927 42.478 415.075 50.1599C419.061 56.1067 429.214 63.4527 432.492 62.7614C434.205 62.4001 435.771 62.8917 436.657 64.0687C439.178 67.4195 442.46 66.1899 446.28 60.4643C450.374 54.3262 452.292 53.1179 454.594 55.2257C456.836 57.279 456.6 60.8437 453.978 64.5215C451.559 67.9145 451.787 71.2295 454.787 76.2809C456.188 78.6408 457.108 79.0543 459.607 78.4486C464.271 77.3187 465.084 81.0062 460.983 84.6837C453.819 91.1071 448.417 94.3261 443.522 95.0884C435.862 96.2813 431.687 100.752 429.373 110.242C427.613 117.461 427.324 117.894 424.032 118.246C421.62 118.504 418.634 117.399 414.305 114.649C402.832 107.358 400.277 106.139 398.261 106.993C396.589 107.701 397.127 108.628 401.856 113.191C414.458 125.353 427.482 149.041 432.321 168.6C437.232 188.447 437.244 211.81 432.353 231.857C427.017 253.732 412.467 278.112 396.227 292.388C385.464 301.85 366.917 312.094 354.506 315.432C342.348 318.702 322.948 319.663 312.175 317.53C306.429 316.393 303.185 316.26 301.494 317.092C299.537 318.055 298.717 317.815 297.279 315.855C296.297 314.517 293.213 312.462 290.426 311.287L285.358 309.152L282.074 312.775C280.268 314.768 278.312 317.786 277.727 319.482C276.316 323.577 273.836 323.375 270.007 318.853L266.862 315.139L262.537 319.45C260.159 321.82 257.727 323.76 257.134 323.76C256.54 323.76 256.055 325.574 256.055 327.791C256.055 330.009 255.417 332.406 254.638 333.12C253.195 334.441 249.377 333.714 246.23 331.518C244.2 330.102 240.909 323.062 240.909 320.135C240.909 319 239.935 317.79 238.745 317.447C235.377 316.475 236.195 313.228 240.281 311.345C242.315 310.407 244.566 308.386 245.281 306.853C245.997 305.321 247.831 302.59 249.357 300.784C251.252 298.544 251.639 297.497 250.577 297.486C249.722 297.476 247.927 297.146 246.588 296.75C244.556 296.149 244.154 296.506 244.154 298.915C244.154 303.159 242.163 304.663 236.545 304.663C230.539 304.663 229.319 305.633 232.364 307.986C234.008 309.257 234.5 310.664 234.169 313.153C233.84 315.623 234.413 317.3 236.229 319.182C238.729 321.773 239.89 329.728 237.768 329.728C236.302 329.728 229.008 342.334 229.008 344.867C229.008 347.447 225.03 355.997 223.012 357.755C222.245 358.423 221.45 360.044 221.245 361.357C220.669 365.045 216.263 365.185 215.012 361.555C213.438 356.989 211.902 356.731 212.08 361.064C212.217 364.405 211.851 364.987 209.415 365.299C207.59 365.533 205.389 364.545 203.194 362.507ZM208.68 351.51C210.517 349.06 213.688 349.81 215.681 353.165L217.55 356.311L220.566 352.325C222.226 350.132 223.904 346.433 224.295 344.105C225.061 339.548 226.567 336.482 231.535 329.353L234.708 324.802L231.18 320.786C228.478 317.71 227.806 316.096 228.308 313.889C228.835 311.573 228.384 310.694 226.01 309.407C224.386 308.527 222.042 306.53 220.801 304.969C217.93 301.359 214.712 302.109 208.993 307.722C206.161 310.503 203.744 311.825 201.494 311.825C198.353 311.826 198.182 312.066 198.324 316.301C198.703 327.589 198.594 327.152 200.869 326.496C202.532 326.016 202.872 325.216 202.363 322.979C201.558 319.437 204.5 315.405 207.89 315.405C211.53 315.405 215.12 320.501 215.738 326.543C216.242 331.476 215.958 332.249 211.826 337.195C208.66 340.984 207.37 343.569 207.37 346.126C207.37 348.106 206.64 350.394 205.748 351.212C203.772 353.02 203.65 356.173 205.477 358.21C206.563 359.42 206.902 359.055 207.196 356.36C207.397 354.513 208.065 352.331 208.68 351.51ZM251.727 324.984C251.727 322.323 252.472 321.005 254.703 319.72C256.339 318.777 259.108 316.346 260.855 314.318C264.532 310.053 268.842 309.483 271.639 312.893C273.455 315.106 273.545 315.097 275.864 312.468C283.181 304.175 283.345 303.866 281.841 301.209C280.673 299.146 279.346 298.696 274.443 298.696C269.285 298.696 268.323 299.063 267.401 301.381C266.572 303.466 265.286 304.15 261.655 304.438C259.082 304.642 256.357 304.241 255.598 303.547C254.134 302.207 253.317 302.999 248.909 310.034C245.007 316.261 244.986 320.461 248.822 327.042C250.338 329.643 251.727 328.659 251.727 324.984H251.727ZM305.373 304.796C307.011 303.375 308.877 302.407 309.521 302.646C310.164 302.885 311.278 301.548 311.998 299.675C312.914 297.289 314.334 296.042 316.741 295.511L320.176 294.753L317.326 293.105C315.759 292.199 314.484 290.804 314.493 290.004C314.519 287.662 317.258 279.634 318.498 278.266C320.352 276.22 324.717 277.521 325.068 280.224C325.494 283.506 329.756 285.235 339.022 285.885C346.874 286.436 349.097 285.61 349.097 282.14C349.097 277.182 358.037 273.532 359.547 277.874C360.046 279.309 360.647 278.903 362.202 276.083C363.479 273.766 365.104 272.428 366.661 272.412C368.354 272.394 369.613 271.195 370.734 268.533C372.493 264.356 376.24 262.888 378.908 265.331C381.081 267.321 380.859 270.386 378.307 273.631C375.48 277.228 375.569 277.92 378.578 275.738C379.917 274.767 381.547 272.15 382.201 269.923C382.96 267.34 384.618 265.175 386.78 263.946L390.17 262.018L387.489 256.188C384.776 250.289 383.919 243.793 385.853 243.793C387.27 243.793 390.208 237.364 390.208 234.262C390.208 232.893 390.92 230.575 391.79 229.11C393.165 226.794 393.171 225.824 391.838 221.692C388.447 211.189 390.672 202.019 396.611 202.019C399.255 202.019 399.579 201.64 399.133 199.066C398.789 197.078 399.715 194.292 401.968 190.54C406.866 182.382 407.251 178.262 403.854 170.347C402.299 166.724 401.027 163.037 401.027 162.154C401.027 160.358 397.471 150.684 394.932 145.571C393.723 143.138 393.547 141.364 394.281 139.007C395.559 134.903 394.901 132.793 392.346 132.793C389.983 132.793 388.61 134.687 390.19 135.765C390.795 136.177 391.29 137.79 391.29 139.348C391.29 144.559 384.032 144.775 381.781 139.63C380.77 137.318 380.608 137.707 380.544 142.613C380.484 147.265 379.997 148.597 377.766 150.209C374.696 152.429 374.267 155.644 376.739 157.908C379.323 160.274 378.293 165.384 375.062 166.228L372.357 166.935L375.399 169.146C378.17 171.161 378.376 171.792 377.711 176.245C377.309 178.933 376.567 181.7 376.062 182.394C375.556 183.088 374.417 186.579 373.53 190.152C369.388 206.827 366.049 214.697 361.949 217.448C360.182 218.633 357.529 221.41 356.052 223.618C352.982 228.208 345.337 234.244 342.594 234.244C341.576 234.244 338.85 235.668 336.536 237.408C334.125 239.22 330.71 240.622 328.541 240.69L324.754 240.809L325.034 234.952C325.187 231.73 325.865 228.36 326.54 227.463C328.544 224.8 326.743 224.29 323.731 226.667C321.379 228.524 321.036 229.511 321.567 232.899C322.075 236.14 321.6 237.77 319.133 241.254C312.03 251.287 309.758 255.774 311.055 257.206C311.747 257.968 312.313 259.847 312.313 261.38C312.313 263.555 311.222 264.683 307.355 266.512C302.103 268.996 297.193 269.538 295.489 267.822C294.908 267.236 288.823 267.294 281.479 267.956C274.339 268.6 265.332 269.25 261.464 269.402C251.733 269.784 252.191 269.632 248.355 273.768C246.46 275.812 243.4 278.198 241.556 279.069C239.712 279.941 236.134 282.834 233.604 285.497C231.05 288.186 227.922 290.349 226.572 290.359C223.543 290.382 222.099 291.419 220.538 294.691C218.404 299.165 221.681 300.467 234.078 300.069C239.579 299.893 239.696 299.813 240.029 296.01C240.363 292.183 240.44 292.133 245.777 292.248C249.063 292.319 251.504 291.778 251.994 290.869C252.523 289.889 254.263 289.59 257.036 290C259.945 290.43 262.053 290.022 263.772 288.693C265.148 287.63 267.597 286.76 269.214 286.76C270.832 286.76 272.477 286.186 272.87 285.484C273.263 284.782 275.361 284.334 277.532 284.488C279.703 284.641 283.081 284.362 285.04 283.868C287.387 283.275 289.152 283.474 290.221 284.453C291.618 285.731 291.237 286.56 287.472 290.433C283.589 294.428 281.348 298.839 284.184 296.905C284.779 296.5 285.266 296.802 285.266 297.578C285.266 298.629 285.679 298.609 286.889 297.502C287.781 296.685 288.511 295.102 288.511 293.983C288.511 291.123 293.445 286.304 295.489 287.169C297.365 287.963 297.823 294.526 296.085 295.712C295.489 296.118 295.003 298.68 295.003 301.407C295.003 305.383 295.591 306.883 297.978 308.988C300.743 311.427 301.004 311.463 301.674 309.496C302.071 308.332 303.736 306.217 305.373 304.796V304.796ZM263.942 297.502C264.442 295.392 263.975 295.115 259.921 295.115C254.349 295.115 253.085 296.193 256.332 298.174C260.127 300.49 263.3 300.21 263.942 297.502ZM379.389 124.882C379.389 123.953 380.51 122.631 381.88 121.942L384.37 120.69L380.798 116.512C378.824 114.204 377.226 111.066 377.226 109.502C377.226 104.246 385.085 100.811 388.06 104.766C389.269 106.373 389.842 106.305 393.123 104.17C396.978 101.66 403.095 100.973 404.868 102.85C405.433 103.448 408.816 105.615 412.387 107.664C415.957 109.713 419.744 112.043 420.802 112.842C423.187 114.641 424.396 112.892 425.43 106.141C425.922 102.928 427.551 99.9394 430.778 96.3281C434.736 91.8981 436.27 91.0154 441.212 90.3205C447.099 89.4929 448.681 88.8377 452.255 85.7471C454.183 84.0801 454.153 83.8633 451.453 79.958C449.91 77.7265 448.342 74.2154 447.969 72.1556C447.37 68.853 447.035 68.561 445.132 69.6845C443.945 70.3852 441.447 70.6541 439.581 70.2819C437.715 69.9097 434.266 69.2499 431.917 68.8156C426.962 67.8992 415.201 58.8851 410.011 52.0249C401.28 40.484 400.004 39.1543 398.867 40.4089C398.074 41.2833 398.218 42.945 399.342 45.9124C401.405 51.3614 400.478 74.159 398.153 75.1434C397.191 75.5507 396.699 77.8847 396.699 82.0493C396.699 85.6496 396.121 88.8505 395.347 89.5336C392.538 92.013 389.079 92.3618 385.707 90.5057C383.834 89.4753 382.164 88.6323 381.996 88.6323C381.827 88.6323 381.969 90.5333 382.31 92.8567C382.805 96.2184 382.421 97.6811 380.431 100.018C379.056 101.633 377.296 102.955 376.521 102.955C375.746 102.955 374.3 104.321 373.308 105.992C371.568 108.922 371.607 109.148 374.422 112.389C377.086 115.457 377.276 116.285 376.6 121.907C375.951 127.301 376.078 127.972 377.624 127.317C378.595 126.906 379.389 125.811 379.389 124.882Z" fill="#BB002C"/>
<path d="M203.194 362.507C200.487 359.994 199.797 358.436 199.797 354.832C199.797 352.269 200.5 349.667 201.42 348.824C202.313 348.007 203.043 345.583 203.043 343.437C203.043 340.645 204.272 337.895 207.366 333.765C211.866 327.757 212.16 325.093 208.735 321.373C207.006 319.495 207.003 319.588 208.591 325.976C208.819 326.895 207.186 328.653 204.818 330.04C197.007 334.613 193.695 330.916 192.774 316.599C192.353 310.053 194.383 307.05 199.227 307.05C201.607 307.05 203.946 305.778 206.903 302.874C209.243 300.577 211.948 298.697 212.915 298.697C214.006 298.696 214.921 297.325 215.328 295.085C216.186 290.348 220.615 285.567 224.144 285.567C225.905 285.567 228.443 283.965 230.955 281.268C233.157 278.903 236.906 275.879 239.286 274.548C241.666 273.216 243.981 271.433 244.431 270.585C246.514 266.66 252.641 263.981 258.961 264.233C262.421 264.371 272.505 263.857 281.37 263.091C291.892 262.182 297.931 262.104 298.763 262.865C299.601 263.633 301.212 263.543 303.47 262.602C307.012 261.127 307.698 259.992 305.821 258.712C303.35 257.027 305.892 251.292 314.197 239.822C315.878 237.501 316.64 234.851 316.64 231.331C316.64 226.753 317.073 225.883 320.755 223.068C325.496 219.444 327.409 219.215 331.84 221.743C335.837 224.023 336.081 227.896 332.327 229.47C330.672 230.165 329.623 231.542 329.623 233.021C329.623 236.083 329.857 236.059 335.032 232.454C337.389 230.813 340.148 229.47 341.165 229.47C343.905 229.47 349.485 224.874 352.356 220.252C353.744 218.018 356.233 215.417 357.888 214.473C361.734 212.279 365.069 204.406 369.202 187.765C370.089 184.192 371.308 180.614 371.909 179.814C372.654 178.824 372.618 178.098 371.795 177.537C371.13 177.084 370.819 176.045 371.103 175.229C371.387 174.412 370.69 173.005 369.554 172.102C366.675 169.813 366.979 165.635 370.23 162.814C371.831 161.424 372.506 160.118 371.852 159.673C371.237 159.253 370.734 156.833 370.734 154.293C370.734 150.79 371.387 149.11 373.439 147.329C375.534 145.511 376.144 143.885 376.144 140.112C376.144 135.926 376.592 134.986 379.336 133.421C381.091 132.419 383.23 131.6 384.088 131.6C384.947 131.6 385.929 130.794 386.272 129.809C386.698 128.584 388.434 128.019 391.772 128.019C397.877 128.019 400.596 131.574 399.486 138.105C399.099 140.376 399.266 143.198 399.856 144.376C401.887 148.435 405.354 158.164 405.354 159.806C405.354 160.71 406.572 164.233 408.059 167.635C409.547 171.037 410.764 175.886 410.764 178.41C410.764 183.424 408.427 190.577 405.706 193.895C404.681 195.145 403.927 198.321 403.854 201.697L403.732 207.39L399.687 207.129C396.191 206.903 395.55 207.27 394.968 209.828C394.598 211.456 395.079 215.434 396.038 218.668C398.193 225.936 398.223 228.37 396.193 231.331C395.319 232.605 394.589 235.05 394.57 236.763C394.551 238.477 393.363 241.786 391.929 244.116L389.323 248.354L391.929 254.033C395.829 262.532 395.287 267.046 390.272 267.842C388.352 268.146 387.39 269.294 386.747 272.047C385.727 276.41 378.252 283.568 375.344 282.964C374.296 282.747 372.958 281.364 372.371 279.89C370.724 275.761 366.934 276.412 365.386 281.091C362.589 289.546 361.581 290.938 358.251 290.938C355.344 290.938 354.986 290.495 354.389 286.163C354.027 283.538 353.662 282.504 353.578 283.867C353.493 285.229 352.329 287.445 350.99 288.79C348.836 290.954 347.306 291.208 337.718 290.998C329.344 290.814 326.201 290.269 323.891 288.598C319.942 285.745 318.749 287.221 322.425 290.411C327.046 294.421 325.844 299.149 319.968 300.073C318.408 300.319 316.618 301.938 315.553 304.067C314.387 306.397 312.663 307.859 310.613 308.254C308.54 308.653 306.969 310.002 306.012 312.203C305.214 314.042 303.358 316.151 301.889 316.889C299.591 318.044 298.856 317.826 296.62 315.327C295.191 313.729 293.269 311.729 292.349 310.882C291.428 310.036 290.675 307.77 290.675 305.847C290.675 303.23 290.267 302.524 289.052 303.038C288.16 303.416 287.429 304.365 287.429 305.147C287.429 305.93 285.474 308.815 283.084 311.559C280.694 314.303 278.272 317.902 277.701 319.557C276.315 323.579 273.815 323.351 270.007 318.853L266.862 315.139L262.537 319.45C260.159 321.82 257.727 323.76 257.134 323.76C256.54 323.76 256.055 325.574 256.055 327.791C256.055 330.009 255.417 332.406 254.638 333.12C253.195 334.441 249.377 333.714 246.23 331.518C244.2 330.102 240.909 323.062 240.909 320.135C240.909 319 239.935 317.79 238.745 317.447C235.377 316.475 236.195 313.228 240.281 311.345C242.315 310.407 244.566 308.386 245.281 306.853C245.997 305.321 247.831 302.59 249.357 300.784C251.252 298.544 251.639 297.497 250.577 297.486C249.722 297.476 247.927 297.146 246.588 296.75C244.556 296.149 244.154 296.506 244.154 298.915C244.154 303.159 242.163 304.663 236.545 304.663C230.539 304.663 229.319 305.633 232.364 307.986C234.008 309.257 234.5 310.664 234.169 313.153C233.84 315.623 234.413 317.3 236.229 319.182C238.729 321.773 239.89 329.728 237.768 329.728C236.302 329.728 229.008 342.334 229.008 344.867C229.008 347.447 225.03 355.997 223.012 357.755C222.245 358.423 221.45 360.044 221.245 361.357C220.669 365.045 216.263 365.185 215.012 361.555C213.438 356.989 211.902 356.731 212.08 361.064C212.217 364.405 211.851 364.987 209.415 365.299C207.59 365.533 205.389 364.545 203.194 362.507ZM208.68 351.51C210.517 349.06 213.688 349.81 215.681 353.165L217.55 356.311L220.566 352.325C222.226 350.132 223.904 346.433 224.295 344.105C225.061 339.548 226.567 336.482 231.535 329.353L234.708 324.802L231.18 320.786C228.478 317.71 227.806 316.096 228.308 313.889C228.835 311.573 228.384 310.694 226.01 309.407C224.386 308.527 222.042 306.53 220.801 304.969C217.93 301.359 214.712 302.109 208.993 307.722C206.161 310.503 203.744 311.825 201.494 311.825C198.353 311.826 198.182 312.066 198.324 316.301C198.703 327.589 198.594 327.152 200.869 326.496C202.532 326.016 202.872 325.216 202.363 322.979C201.558 319.437 204.5 315.405 207.89 315.405C211.53 315.405 215.12 320.501 215.738 326.543C216.242 331.476 215.958 332.249 211.826 337.195C208.66 340.984 207.37 343.569 207.37 346.126C207.37 348.106 206.64 350.394 205.748 351.212C203.772 353.02 203.65 356.173 205.477 358.21C206.563 359.42 206.902 359.055 207.196 356.36C207.397 354.513 208.065 352.331 208.68 351.51ZM251.727 324.984C251.727 322.323 252.472 321.005 254.703 319.72C256.339 318.777 259.108 316.346 260.855 314.318C264.532 310.053 268.842 309.483 271.639 312.893C273.455 315.106 273.545 315.097 275.864 312.468C283.181 304.175 283.345 303.866 281.841 301.209C280.673 299.146 279.346 298.696 274.443 298.696C269.285 298.696 268.323 299.063 267.401 301.381C266.572 303.466 265.286 304.15 261.655 304.438C259.082 304.642 256.357 304.241 255.598 303.547C254.134 302.207 253.317 302.999 248.909 310.034C245.007 316.261 244.986 320.461 248.822 327.042C250.338 329.643 251.727 328.659 251.727 324.984H251.727ZM305.373 304.796C307.011 303.375 308.877 302.407 309.521 302.646C310.164 302.885 311.278 301.548 311.998 299.675C312.914 297.289 314.334 296.042 316.741 295.511L320.176 294.753L317.326 293.105C315.759 292.199 314.484 290.804 314.493 290.004C314.519 287.662 317.258 279.634 318.498 278.266C320.352 276.22 324.717 277.521 325.068 280.224C325.494 283.506 329.756 285.235 339.022 285.885C346.874 286.436 349.097 285.61 349.097 282.14C349.097 277.182 358.037 273.532 359.547 277.874C360.046 279.309 360.647 278.903 362.202 276.083C363.479 273.766 365.104 272.428 366.661 272.412C368.354 272.394 369.613 271.195 370.734 268.533C372.493 264.356 376.24 262.888 378.908 265.331C381.081 267.321 380.859 270.386 378.307 273.631C375.48 277.228 375.569 277.92 378.578 275.738C379.917 274.767 381.547 272.15 382.201 269.923C382.96 267.34 384.618 265.175 386.78 263.946L390.17 262.018L387.489 256.188C384.776 250.289 383.919 243.793 385.853 243.793C387.27 243.793 390.208 237.364 390.208 234.262C390.208 232.893 390.92 230.575 391.79 229.11C393.165 226.794 393.171 225.824 391.838 221.692C388.447 211.189 390.672 202.019 396.611 202.019C399.255 202.019 399.579 201.64 399.133 199.066C398.789 197.078 399.715 194.292 401.968 190.54C406.866 182.382 407.251 178.262 403.854 170.347C402.299 166.724 401.027 163.037 401.027 162.154C401.027 160.358 397.471 150.684 394.932 145.571C393.723 143.138 393.547 141.364 394.281 139.007C395.559 134.903 394.901 132.793 392.346 132.793C389.983 132.793 388.61 134.687 390.19 135.765C390.795 136.177 391.29 137.79 391.29 139.348C391.29 144.559 384.032 144.775 381.781 139.63C380.77 137.318 380.608 137.707 380.544 142.613C380.484 147.265 379.997 148.597 377.766 150.209C374.696 152.429 374.267 155.644 376.739 157.908C379.323 160.274 378.293 165.384 375.062 166.228L372.357 166.935L375.399 169.146C378.17 171.161 378.376 171.792 377.711 176.245C377.309 178.933 376.567 181.7 376.062 182.394C375.556 183.088 374.417 186.579 373.53 190.152C369.388 206.827 366.049 214.697 361.949 217.448C360.182 218.633 357.529 221.41 356.052 223.618C352.982 228.208 345.337 234.244 342.594 234.244C341.576 234.244 338.85 235.668 336.536 237.408C334.125 239.22 330.71 240.622 328.541 240.69L324.754 240.809L325.034 234.952C325.187 231.73 325.865 228.36 326.54 227.463C328.544 224.8 326.743 224.29 323.731 226.667C321.379 228.524 321.036 229.511 321.567 232.899C322.075 236.14 321.6 237.77 319.133 241.254C312.03 251.287 309.758 255.774 311.055 257.206C311.747 257.968 312.313 259.847 312.313 261.38C312.313 263.555 311.222 264.683 307.355 266.512C302.103 268.996 297.193 269.538 295.489 267.822C294.908 267.236 288.823 267.294 281.479 267.956C274.339 268.6 265.332 269.25 261.464 269.402C251.733 269.784 252.191 269.632 248.355 273.768C246.46 275.812 243.4 278.198 241.556 279.069C239.712 279.941 236.134 282.834 233.604 285.497C231.05 288.186 227.922 290.349 226.572 290.359C223.543 290.382 222.099 291.419 220.538 294.691C218.404 299.165 221.681 300.467 234.078 300.069C239.579 299.893 239.696 299.813 240.029 296.01C240.363 292.183 240.44 292.133 245.777 292.248C249.063 292.319 251.504 291.778 251.994 290.869C252.523 289.889 254.263 289.59 257.036 290C259.945 290.43 262.053 290.022 263.772 288.693C265.148 287.63 267.597 286.76 269.214 286.76C270.832 286.76 272.477 286.186 272.87 285.484C273.263 284.782 275.361 284.334 277.532 284.488C279.703 284.641 283.081 284.362 285.04 283.868C287.387 283.275 289.152 283.474 290.221 284.453C291.618 285.731 291.237 286.56 287.472 290.433C283.589 294.428 281.348 298.839 284.184 296.905C284.779 296.5 285.266 296.802 285.266 297.578C285.266 298.629 285.679 298.609 286.889 297.502C287.781 296.685 288.511 295.102 288.511 293.983C288.511 291.123 293.445 286.304 295.489 287.169C297.365 287.963 297.823 294.526 296.085 295.712C295.489 296.118 295.003 298.68 295.003 301.407C295.003 305.383 295.591 306.883 297.978 308.988C300.743 311.427 301.004 311.463 301.674 309.496C302.071 308.332 303.736 306.217 305.373 304.796V304.796ZM264.183 297.204C265.091 294.921 266.218 294.464 271.705 294.153C277.857 293.804 280.938 292.483 280.938 290.195C280.938 288.746 275.811 288.872 274.988 290.341C274.62 290.997 272.98 291.534 271.344 291.534C269.708 291.534 267.424 292.323 266.269 293.287C265.114 294.251 262.181 295.056 259.751 295.077C254.329 295.124 253.123 296.216 256.332 298.174C260.171 300.517 263.005 300.167 264.183 297.204ZM373.025 131.171C372.209 130.087 371.767 126.889 371.94 123.313C372.176 118.393 371.793 116.834 369.859 114.847C365.453 110.318 367.103 103.576 373.753 98.9328C377.487 96.3257 377.764 95.7287 377.765 90.2935C377.766 84.5822 377.843 84.4467 381.273 84.0816C383.202 83.8763 385.814 84.5072 387.077 85.4835C390.859 88.4059 392.372 86.7285 392.372 79.6123C392.372 75.3104 392.878 72.9226 393.926 72.2755C395.978 71.0083 396.637 51.0261 394.751 47.2351C391.764 41.2315 394.711 34.9229 400.503 34.9229C402.702 34.9229 409.927 42.478 415.075 50.1599C419.061 56.1067 429.214 63.4527 432.492 62.7614C434.205 62.4001 435.771 62.8917 436.657 64.0687C439.178 67.4195 442.46 66.1899 446.28 60.4643C450.374 54.3262 452.292 53.1179 454.594 55.2257C456.836 57.279 456.6 60.8437 453.978 64.5215C451.559 67.9145 451.787 71.2295 454.787 76.2809C456.188 78.6408 457.108 79.0543 459.607 78.4486C464.271 77.3187 465.084 81.0062 460.983 84.6837C453.819 91.1071 448.417 94.3261 443.522 95.0884C435.862 96.2813 431.687 100.752 429.373 110.242C427.613 117.461 427.324 117.894 424.032 118.246C421.62 118.504 418.634 117.399 414.305 114.649C410.87 112.466 406.224 109.62 403.981 108.324L399.903 105.967L395.326 108.642C390.007 111.75 387.731 111.98 385.934 109.59C385.223 108.645 383.949 108.164 383.104 108.521C381.853 109.051 381.982 109.816 383.797 112.628C385.024 114.529 386.698 116.084 387.517 116.084C388.336 116.084 390.331 117.342 391.952 118.879C395.963 122.686 394.881 125.632 389.471 125.632C386.461 125.632 384.855 126.398 383.216 128.614C380.452 132.353 374.952 133.733 373.025 131.171ZM379.389 124.882C379.389 123.953 380.51 122.631 381.88 121.942L384.37 120.69L380.798 116.512C378.824 114.204 377.226 111.066 377.226 109.502C377.226 104.246 385.085 100.811 388.06 104.766C389.269 106.373 389.842 106.305 393.123 104.17C396.978 101.66 403.095 100.973 404.868 102.85C405.433 103.448 408.816 105.615 412.387 107.664C415.957 109.713 419.744 112.043 420.802 112.842C423.187 114.641 424.396 112.892 425.43 106.141C425.922 102.928 427.551 99.9394 430.778 96.3281C434.736 91.8981 436.27 91.0154 441.212 90.3205C447.099 89.4929 448.681 88.8377 452.255 85.7471C454.183 84.0801 454.153 83.8633 451.453 79.958C449.91 77.7265 448.342 74.2154 447.969 72.1556C447.37 68.853 447.035 68.561 445.132 69.6845C443.945 70.3852 441.447 70.6541 439.581 70.2819C437.715 69.9097 434.266 69.2499 431.917 68.8156C426.962 67.8992 415.201 58.8851 410.011 52.0249C401.28 40.484 400.004 39.1543 398.867 40.4089C398.074 41.2833 398.218 42.945 399.342 45.9124C401.405 51.3614 400.478 74.159 398.153 75.1434C397.191 75.5507 396.699 77.8847 396.699 82.0493C396.699 85.6496 396.121 88.8505 395.347 89.5336C392.538 92.013 389.079 92.3618 385.707 90.5057C383.834 89.4753 382.164 88.6323 381.996 88.6323C381.827 88.6323 381.969 90.5333 382.31 92.8567C382.805 96.2184 382.421 97.6811 380.431 100.018C379.056 101.633 377.296 102.955 376.521 102.955C375.746 102.955 374.3 104.321 373.308 105.992C371.568 108.922 371.607 109.148 374.422 112.389C377.086 115.457 377.276 116.285 376.6 121.907C375.951 127.301 376.078 127.972 377.624 127.317C378.595 126.906 379.389 125.811 379.389 124.882Z" fill="#BB002C"/>
<g clip-path="url(#clip0)">
<path d="M348.359 413.171C401.858 433.333 446.057 370.569 413.093 316.524L429.41 305.064L375.319 276.018L377.397 341.591L394.225 329.773C419.49 368.652 393.719 412.303 348.359 413.169L348.359 413.171Z" fill="white" stroke="white" stroke-width="7.7696"/>
<path opacity="0.69886" d="M359.032 415.313C406.573 424.452 440.261 364.672 409.878 315.129L423.82 305.099L379.324 280.674L380.429 336.319L394.678 326.068C420.531 365.35 399.362 406.46 359.032 415.314L359.032 415.313Z" stroke="url(#paint0_linear)" stroke-width="7.7696" stroke-miterlimit="10"/>
<path opacity="0.69886" d="M429.955 307.006L428.182 308.356L415.667 317.871C428.515 342.88 427.198 369.523 415.215 392.441C407.686 406.841 394.309 414.699 394.309 414.699C439.09 370.156 394.144 340.047 409.72 295.058L429.955 307.006Z" fill="url(#paint1_radial)"/>
</g>
<defs>
<linearGradient id="paint0_linear" x1="391.581" y1="370.308" x2="359.696" y2="385.604" gradientUnits="userSpaceOnUse">
<stop stop-color="white"/>
<stop offset="1" stop-color="white" stop-opacity="0"/>
</linearGradient>
<radialGradient id="paint1_radial" cx="0" cy="0" r="1" gradientUnits="userSpaceOnUse" gradientTransform="translate(422.051 351.303) rotate(-88.923) scale(197.69 20.051)">
<stop stop-color="white"/>
<stop offset="1" stop-color="white" stop-opacity="0"/>
</radialGradient>
<clipPath id="clip0">
<rect width="145.859" height="79.0184" fill="white" transform="matrix(0.305251 -0.952272 -0.931858 -0.362823 407.571 437.857)"/>
</clipPath>
</defs>
</svg>
